<mxfile host="app.diagrams.net" modified="2023-06-14T03:23:49.439Z" agent="Mozilla/5.0 (Windows NT 10.0; Win64; x64) AppleWebKit/537.36 (KHTML, like Gecko) Chrome/114.0.0.0 Safari/537.36" etag="tR-NN09LSEpofxGzpQHB" version="21.3.8" type="device">
  <diagram name="Page-1" id="U4p2_I3qd1t4wM2nIOpz">
    <mxGraphModel dx="2049" dy="1010" grid="0" gridSize="10" guides="1" tooltips="1" connect="1" arrows="1" fold="1" page="1" pageScale="1" pageWidth="850" pageHeight="1100" math="0" shadow="0">
      <root>
        <mxCell id="0" />
        <mxCell id="1" parent="0" />
        <mxCell id="o294ewDcCMPDDSSyki-N-21" style="rounded=0;orthogonalLoop=1;jettySize=auto;html=1;entryX=0.13;entryY=0.77;entryDx=0;entryDy=0;entryPerimeter=0;exitX=0.5;exitY=0;exitDx=0;exitDy=0;strokeWidth=2;startArrow=classic;startFill=1;" edge="1" parent="1" source="o294ewDcCMPDDSSyki-N-9" target="o294ewDcCMPDDSSyki-N-4">
          <mxGeometry relative="1" as="geometry" />
        </mxCell>
        <mxCell id="o294ewDcCMPDDSSyki-N-9" value="" style="rounded=1;whiteSpace=wrap;html=1;dashed=1;dashPattern=12 12;" vertex="1" parent="1">
          <mxGeometry x="55" y="354" width="395" height="312" as="geometry" />
        </mxCell>
        <mxCell id="o294ewDcCMPDDSSyki-N-2" value="" style="shape=image;verticalLabelPosition=bottom;labelBackgroundColor=default;verticalAlign=top;aspect=fixed;imageAspect=0;image=data:image/png,iVBORw0KGgoAAAANSUhEUgAAAgAAAAIACAMAAADDpiTIAAAAA3NCSVQICAjb4U/gAAAACXBIWXMAAA3XAAAN1wFCKJt4AAAAGXRFWHRTb2Z0d2FyZQB3d3cuaW5rc2NhcGUub3Jnm+48GgAAAlVQTFRF////AAAAAAAAAAAAAAAAAAAAAAAAAAAAAAAAAAAAAAAAAAAAAAAAAAAAAAAAAAAAAAAAAAAAAAAAAAAAAAAAAAAAAAAAAAAAAAAAAAAAAAAAAAAAAAAAAAAAAAAAAAAAAAAAAAAAAAAAAAAAAAAAAAAAAAAAAAAAAAAAAAAAAAAAAAAAAAAAAAAAAAAAAAAAAAAAAAAAAAAAAAAAAAAAAAAAAAAAAAAAAAAAAAAAAAAAAAAAAAAAAAAAAAAAAAAAAAAAAAAAAAAAAAAAAAAAAAAAAAAAAAAAAAAAAAAAAAAAAAAAAAAAAAAAAAAAAAAAAAAAAAAAAAAAAAAAAAAAAAAAAAAAAAAAAAAAAAAAAAAAAAAAAAAAAAAAAAAAAAAAAAAAAAAAAAAAAAAAAAAAAAAAAAAAAAAAAAAAAAAAAAAAAAAAAAAAAAAAAAAAAAAAAAAAAAAAAAAAAAAAAAAAAAAAAAAAAAAAAAAAAAAAAAAAAAAAAAAAAAAAAAAAAAAAAAAAAAAAAAAAAAAAAAAAAAAAAAAAAAAAAAAAAAAAAAAAAAAAAAAAAAAAAAAAAAAAAAAAAAAAAAAAAAAAAAAAAAAAAAAAAAAAAAAAAAAAAAAAAAAAAAAAAAAAAAAAAAAAAAAAAAAAAAAAAAAAAAAAAAAAAAAAAAAAAAAAAAAAAAAAAAAAAAAAAAAAAAAAAAAAAAAAAAAAAAAAAAAAAAAAAAAAAAAAAAAAAAAAAAAAAAAAAAAAAAAAAAAAAAAAAAAAAAAAAAAAAAAAAAAAAAAAAAAAAAAAefD+bwAAAMZ0Uk5TAAECAwQFBgcICQoLDA0PEBITFBYXGBkaGxwdHh8gISIjJScpKiwtLzAxMjM0NTc4OTo7PD1AQUJDRUZHSEpLTU5PUFJTVFVWV1hZWlteX2BhYmRmaGlqbG9wcnR1dnd4eXp7fH1+gIKDhIWHiIuOj5CTl5iam5ydnqChoqSmp6msra6vsLGztLW2uLm6vL2/wMLDxcfIysvMzc7P0dLT1NXW19jZ2tvc3d7f4OHj5OXm5+nq6+zt8PHy8/T19vf4+fr7/P3+x6T8pwAADYpJREFUeNrt3ftbFNcdx/GzCISbKCIKpkkUpWq1JUGTqmji1lSsSLQpYIjRoFZFLDGFCMZbiIpo6iURrXhLqlVrbGyANCICocg6f1ef6GOL7J7ZGZ0M83zP+/PzPMP5nu9rkT1zzqhUsJKUH17fdOr89Y6eiCUokZ6O6+dPNa0P5ycpom3+vK2nBy3hGTy9dR4IYiRtVWuvZUh6W1el0fHhSViw555lVO7tWZBA3x9n2TXLwFxbRucfZv4Zy9CcmU/31YwWy+C0zDC8/ZN3DVlGZ2jXZIPbn1rbZxmfvtpUU/uf1077f0x7npn9L+yk94/SWWhi/8sG6PzjDJSZt/RTR9uHp86wZaHMY/T8yRzLNKn/067S8ZG5Os2c/ud20O/odOSa0v+Uc3Q7Vs6lGAJgP72Onf1m9L+aTutSbUL/l0ZotC6RpfL7X9BDn/XpKZDe/6ybdNkuN7OEAzhJj+1zUnb/S+hwvJRI7n/SDRocLzckbxpf63ASHnRdbG1sEJTG1otdDxwWv1Zu/8d2Oah/8HjlVJEfgqSplcednHvpGisWwLb41R8tFf1ULLP0aPw52Ca1+py4R3/aiuQvhBS1xZuF3hyhpTfEKfxK2Iy18PCVOBPRILPu/Pv2ZTclG/IwTCU32c/E/XyRZe+1LXqoShmUKvvjEHsl1pxhewagu1gZleJuu9noyxBYcpldxf1zlWGZ2283HxJ3CZ+wK3iFMi4r7ObjhLx6cyMmfvN92lWRiLz9gRU25R4MmQggdNBmSirEldtsswsiWxmZbJu9Mc3Sik24oy92izI0W/RzckfaSaHZ+lo7000FkG5zPHa2sFrX6UstV8amXD8r64SVekD/9DPRXACJ+ufjB4SVekH/CMDLHzO2YPHrs8Y7unTSL3/zO9dZsbjA06f1+ocCF4R95dGvA3v3CDC96vNHS+ztmyfGuXR63VNvThv6vMq7hdqwfjVY1lfjKfpFYM/emfnq18P+iF5pd+WY6v8807a9r3/t1ZjT9AvCU0QBWKits8Wrj/+fn9xzd1C/uDDjr8+6cfNBvVe/BPQvyVsoCoD+SdAmb37ApH+MvPH3v9BcWuLFu2n++bw3495kyPOgSm2da7z5AUei7/zVczGvzOv2ZPf2cW/GvUb7AypFAdigrXORJ/dfHevWf4p56V882r//B08Gvkh7/w2iANRo6/TkNGRuzE/10K/crb24PMf5My9GXqC9f40oADu1dY734vaaJ01fRl85wbvX0h/2YuTjtbffKQpAvbZOL+6eqftW9/OoS3/v3RmuQU9OMGhvXy8KQMNPCmCl7uYbXXztcp+VPymABgA4zg7dzT+JuvSWhwB2ACAgAD7WnjSKuvQHDwF8DICAAND+Xv/7yCtTvTzI3QKAgADYrbv56ahL+z0EsBsAAQFQq7t59Iv3vHxFUS0AAgJgmfNtNc0eAvgtAAICIF33p130IctV3vX/hwwABASA2hf73u0x1ozueAZgnwJAUABk/zvmUt1MN4tGbvN9NgACA0Atj3XrP8a89NMgrQMCwCMA6pMY/wAkuvht4TqHFACCBGDC5ZE3vq37Tzlf9+KB4N8mAiBQAFRyzZNvoNmtf1b3wjO/r3Zox3MKAMECoNScL/9/138tsbsyVPFsvwS+8vB1FgDwLsmrDz9c6b1/Yu24OJc+v+mp/9ua/sOrvXybFQA8zZi8wqIXnL1nNG3aq4tdp7gwb4y3IwaA4QEAAAAAAAAAAAAAAAAAAAAAAAAAAAAAAAAAAAAAAAAAAAAAAAAAAAAAAAAAAAAAAAAAAAAAAAAAAAAAAAAAAAAAAAAAAAAAAAAAAAAAAAAAAAAAAAAAAAAAAAAAAAAAAAAAAAAAAAAAAAAAAAAAAAAAAAAAAAAAAAAAAAAAAAAAAAAAAAAAAAAAAAAAAAAAAAAAAAAAAAAAAAAAAAAAAAAAAAAAAAAAAAAAAAAAAAAAAAAAAAAAAAAAAAAAAAAAAAAAAAAAAAAAAAAAAAAAAAAAAAAAAAAAAAAAAAAAAAAAAAAAAAAAAAAAAAAAAAAAAAAAAAAAAAAAAAAAAAAAAAAAAAAAAAAAAAAAAAAAAAAAAAAAAAAAAAAAAAAAAAAAAAAAAAAAAAAAAAAAAAAAAAAAAAAAAAAAAAAAAAAAAAAAAAAAAAAAAAAAAAAAAAAAAAAAAAAAAAAAAAAAAAAAAAAAAAAAAAAAAAAAAAAAAAAAAAAAAAAAAAAAAAAAAAAAAAAAAAAAAAAAAAAAAAAAAAAAAAAAAAAAAAAAAAAAAAAAAAAAAAAAAAAAAAAAAAAAAAAAAAAAAAAAAAAAAAAAAAAAAAAAAAAAAAAAAAAAAAAAAAAAAAAAAAAAAAAAAAAAAAAAAAAAAAAAAAAAAAAAAAAAAAAAAAAAAAAAAAAAAAAAAAAAAAAAAAAAAAAAAAAAAAAAAAAAAAAAAAAAAAAAAAAAAAAAAAAAAAAAAAAAAAAAAAAAAAAAAAAAAAAAAAAAAAAAAAAAAAAAAAAAAAAAAAAAAAAAAAAAAAAAAAAAAAAAAAAAAAAAAAAAAAAAAAAAAAAAAAAAAAAAAAAAAAAAAAAAAAAAAAAAAAAAAAAAAAAAAAAAAAAAAAAAAAAAAAAAAAAAAAAAAAAAAAAAAAAAAAAAAAAAAAAAAAAAAAAAAAAAAAAAAAAAAAAAAAAAAAAAAAAAAAAAAAAAAAAAAAAAAAAAAAAAAAAAAAAAAAAAAAAAAAAAAAAAAAAAAAAAAAAAAAAAAAAAAAAAAAAAAAAAAAAAAAAAAAAAAAAAAAAAAAAAAAAAAAAAAAAAAAAAAAAAAAAAAAAAAAAAAAAAAAAAAAAAAAAAAAAAAAAAAAAAAAAAAAAAAAAAAAAAAAAAAAAAAAAAAAAAAAAAAAAAAAAAAAAAAAAAAAAAAAAAAAAAAAAAAAAAAAAAAAAAAAAAAAAAAAAAAAAAAAAAAAAAAAAAAAAAAAAAAAAAAAAAAAAAAAAAAAAAAAAAAAAA+JmEooqa3Z9dvvzZ7pqKogQAmAUg5Y3G74aP4rvGN1IAYAyArA96owfS+0EWAIwAkLaxO/ZQujemAUA+gOXfasdifbscAMIBhLZbttkeAoBkABmHrDg5lAEAuQByLllxcykHAFIBpJy1HORsCgCEAthnOco+AMgE8L7lMO8DQCKA1yJOAUReA4A8AKELluNcCAFAHIBSy0VKASANQPItNwBuJQNAGIB3LFd5BwDCAFxyB+ASAGQBeMlymZcAIArAu24BvAsAUQC+cAvgCwBIAjAu4hZAZBwABAGYabnOTAAIArDYPYDFABAEYLV7AKsBIAhAtXsA1QAQBOBD9wA+BIAgANvdA9gOAEEA1roHsBYAggC86R7AmwAQBOAV9wBeAYAgAC+6B/AiAAQBCHW47X9HCACCAKh6twD8mn8A+JNitwCKASAKQPJdd/2/mwwAUQCcngry/XQQAHzK9CE3/R+aDgBhANRHbgB8pAAgDcCkXuf9750EAHEA1DbnALYpAMgDkNrutP/tqQAQCEDldTrrf2eeAoBvC3F+juLlASf9H3hZBQFAvSgAO7V1jvdzGG85AfCWnyMarx3GTlEAarR1Fvg6jpL+eO3vL/F1QAXagdSIArBBW+cifwcy57Z9/2/P8Xc8i7Qj2SAKQKW2zjU+jyTH9k1hZ3N8Hs4a7VAqRQEo09a5ye+hJJZrvwx0lif6PZpN2okpEwVgobbOFv8Hk7455qPBu5vT/R9Li3ZiFooCMEX/R9covKFbTXivbcRp0UjbexNGYSBp+j9Kp4gCEOrTFhoenRFNfPvIN4OPRjD4zZG3J47OKMLaaekLiQKg9O9oaxpFltmzliyZlT2KU92kf1OdrP6rA9pKuxKVsUns0k7LAWGlrtN/9So3F0C5flbWCSt1ts2zl3RT+59u83RqtrBaE+7oa91iKoAt+jm5kyCt2GZ9sT3ZZvY/u0c/J83iqq2wWYA9GDKx/6GDNlNSIa7c3EgwtmAFJ3Zb1CK58uo9YfcQZoV5/V9hNx8nBBZcZvsUfq5p/Z9ruzOhTGDFGX12FXcXm9X/4m672ejLkFjzXvuzOFUm9b/K/pzSXpFF59+334zTlGxK+5Ob7Gfifr7MuhvibMe7Ejaj/+ErAXk3gd/JiXs4q61IfvuL2uIeTMuRWruDw1lHSzMldz+z9GigDqb5nLFdDrblDx6vnJoksfqkqZXHBx1MQNdYuR8Ap+9rfNB1sbWxQVAaWy92PQjWGypH50NwwyJxciNJMABVQoPjpUSJzkk6bJ+Twr8EZd2kx3a5mSX9a3BBD1222RtToMRnaYQ+a7cBLDVhJbSaRutSbcZa+H46HTv7DXkYlnKOXsfKuRRDAKjcDrodnY5cZUymXaXfI3N1mjIomcfo+JM5lqmMSkIdPR+eugRlWsoGaPvjDJQpA1PYSecfpbNQGZm8dnr/Y9rzlKFJre2j/X21qcrcTN41ZHb7h3ZNVmZnRovJ/W+Zocj8M6a2/8x8uv8wy66Z2P5ry+j8/5aFFuy5Z1b37+1ZkEDfhydtVWuvKd3vbV2VRsejkzRv6+lB6c0fPL11XhK91iPID69vOnX+ekePqJ1jkZ6O6+dPNa0P5wet+f8FU+HQPXQNHhwAAAAASUVORK5CYII=;" vertex="1" parent="1">
          <mxGeometry x="50" y="390" width="240" height="240" as="geometry" />
        </mxCell>
        <mxCell id="o294ewDcCMPDDSSyki-N-4" value="&lt;b&gt;&lt;font style=&quot;font-size: 15px;&quot;&gt;Cloud&lt;/font&gt;&lt;/b&gt;" style="ellipse;shape=cloud;whiteSpace=wrap;html=1;fillColor=#b1ddf0;strokeColor=#000000;strokeWidth=2;fontColor=#000000;" vertex="1" parent="1">
          <mxGeometry x="389" y="208" width="180" height="120" as="geometry" />
        </mxCell>
        <mxCell id="o294ewDcCMPDDSSyki-N-7" value="" style="group" vertex="1" connectable="0" parent="1">
          <mxGeometry x="211" y="482.5" width="55" height="55" as="geometry" />
        </mxCell>
        <mxCell id="o294ewDcCMPDDSSyki-N-1" value="" style="rounded=1;whiteSpace=wrap;html=1;fillColor=#ff3333;strokeColor=none;" vertex="1" parent="o294ewDcCMPDDSSyki-N-7">
          <mxGeometry width="55" height="55" as="geometry" />
        </mxCell>
        <mxCell id="o294ewDcCMPDDSSyki-N-3" value="" style="shape=image;verticalLabelPosition=bottom;labelBackgroundColor=default;verticalAlign=top;aspect=fixed;imageAspect=0;image=data:image/png,iVBORw0KGgoAAAANSUhEUgAAAqwAAAKsCAIAAACmoHhnAAAAAXNSR0IArs4c6QAAAARnQU1BAACxjwv8YQUAAAAJcEhZcwAADsMAAA7DAcdvqGQAACxWSURBVHhe7d3tWeNKtjbgN6dJwAGMA3ACnYADgABIgAQIgA6ABEiAANwBkECfYtvDyxZfxqqSVtW6n+v+ca45M+5ubKxHWqXS//v7n/8AAAkpAQCQlBIAAEkpAQCQlBIAAEkpAQCQlBIAAEkpAQCQlBIAAEkpAQCQlBIAAEkpAQCQlBIAAEkpAQCQlBIAAEkpAQCQlBIAAEkpAQCQlBIAAEkpAQCQlBIAAEkpAQCQlBIAAEkpAQCQlBIAAEkpAQCQlBIAAEkpAQCQlBIAAEkpAQCQlBIAAEkpAQCQlBIAAEkpAQCQlBIAAEkpAQCQlBIAAEkpAQCQlBIAAEkpAQCQlBIAAEkpAQCQlBIAAEkpAQCQlBIAAEkpAQCQlBIAAEkpAQCQlBIAAEkpAQCQlBIAAEkpAQCQlBIAAEkpAQCQlBIAAEkpAQCQlBIAAEkpAQCQlBIAAEkpAQCQlBIAAEkpAQCQlBIAAEkpAQCQlBIAAEkpAQCQlBIAAEkpAQCQlBIAAEkpAQCQlBIAAEkpAQCQlBIAAEkpAQCQlBIAAEkpAQCQlBIAAEkpAQCQlBIAAEkpAQCQlBIAAEkpAQCQlBIAAEkpAQCQlBIAAEkpAQCQlBIAAEkpAQCQlBIAAEkpAQCQlBIAAEkpAQCQlBIAAEkpAQCQlBIAAEkpAQCQlBIAAEkpAQCQlBIAAEkpAQCQlBIAAEkpAQCQlBIAAEkpAQCQlBIAndts/v73vy9+/fr/rq/P9fZ/dXR8taK88uTPAsaiBEB45WC8270csG9u/t7d/b2///v4+PfPn7/Pz3+XSfmDyh9XlD+3eHh4+Tvc3r441ojy19MYoENKAERSzr/3+5cjaznYl2Ptkkf6+Sl/1aenl7/2aznQDCA2JQDWczzkl/P7cmJdDp8dHe/PT/lHPT6+dJryz1QLIBglABZUjvqvZ/lDHvLPyfFqgU4AASgB0FI5yJVz/XLUL2fDaY/6X+e1E+x2058e0JgSALWV0/3jFf4/f07HOTkzx9nB7a2LBLAMJQBqeD3wO92vmONiAoUAmlEC4FLlyHR97cC/UF6vEEzeBWAGJQB+ohz4y3GonJ4+PZ0OTrJwSuV6ePh7dfVy9WXy7gA/pATAGcqx/+Ym9ZL+mClV7DgvmLxfwHmUAPjccdL/+Hg65EjYHA4vc5n9fvoOAl9SAuCdcuy/vXXs7zLPz9oAnE8JgP9x7B8p2gCcQQkgveO837F/1BwnBdYNwEeUALI6rvN37M+T0gZK23NPAbyhBJDP8R4/6/zTpjS/q6vppwJSUgJIw2V/eZvjmMCFAXJTAkjAqb98kYcHKwZISwlgaKb+cmYOBzMCElICGNFm83Kzn1N/+WnMCEhGCWAsDv9SJaoAOSgBjGK7/fv79+kbXKRKbDDA6JQA+mfwL01TPl2qAINSAuiZw78sFisHGZESQJ+225c7u0QWjirAWJQAerPZmP3LylEFGIUSQD+s/JdQUQXonxJAJxz+JWaeniwbpF9KAOGVb9g/f05fuCIxY18B+qQEEJjF/9JXVAF6owQQ0mbz8sgfkR5zezv9PENUSgDx3NwY/0vfsWaQTigBRPLr18syK5ExYjpAeEoAMbj+L0Pm+dm9A0SmBBCA6/8yZMqnuny2J592iEQJYFXbrfX/MmaenswCiE8JYD0uAMioububftohJCWANbgAIKPmcLAIgI4oASyuNAA7AMqQKdXWCICuKAEsrpwniYwXawDpkBLA4jYbSwFkqBwOf3e76ecceqAEsAYLAmSY3N299NrJJxw6oQSwhpub0xeoSL+xDQD9UwJYQzlzEuk6tgFgCEoAKzERkH5jGwBGoQSwEhMB6TG2AWAsSgAr2W5P36oivcQ2AAxHCWA9nhosHcUaQEakBLCe29vT16tI5NgGgHEpAazH1oESP7YBYGhKAKuydaCETflwXl1NP7Er2u+n/wnMpgSwqnKaJRIwobYB2G5PC2gOBysTqUsJYFUmAhIwobYBuLn51wUzCxSoSglgbSYCEiehtgHYbD7dU8utClSiBLA2EwEJknLEjbMGsHSRP39Of7EPc3s7/Z/AzykBrM1EQCIkzrl1KSJnNuNQYwv6pASwtvKVZyIgKybUlP11DeCZ8Rwj5lECOE85T7q/n/6Htfz+ffpGE1k45WQ6zghgsgbwzLhlgBmUAM5wPEiXr6dGX5f7/T9fZiILpnye42wDUH6z5jxXUw/gUkoAX5p8NzX60jQRkIUT6ir6t2sAz0n5DXLrID+nBPC59+PJUggm/51a5pwGifwoodbT1b07JtQWh/RACeATpQF8eHbSaCJwfX16fZF2CbUNwE/XAJ4Ztw7yE0oAH/msAZQ0upOqdAuRpgm1DcBlawDPjB7A2ZQA3vmiAZSYCEiPCbUNwMPD6W/VLnoA51EC+Lfd7vsTlEanU+VrWqR6Qm0DUGUN4JnRAziDEsAb5zSAEhMB6SWhtgGouwbwnOgBfEcJ4H/ObAAlJgISP+XDHGep/Ha72me73R5fDEEJ4B/nN4BjTAQkcsoRN842AKWL/OiXq3r0AD6nBPDzBlDSaCJQTphEZibONgClKy8/AvgwegCfUALSu6ABlJgISMCE2gag/GYttgbwnOgBfEQJyO2yBnBMo4nA7e3p9UV+lFIf46wBjDnY0gN4RwlIbLudNao0EZAgKR/jRp/GC6y4BvCcuF+Af1MCsipfVTOvVbabCIS6iCrBE2obgP1+VrFeJnoAbygBKc1vAMeYCMi6ibMNQJw1gOdED+B/lIB8ajWAkkbXYH/9Or2+yGcpJ9yhtgHo7vKVHsA/lIBkyvlKxW8rEwFZJeWDF2cbgFKF448APoznDqMEpFP90aWNLsZ2dGVVFk6obQAWeBRQ08S5o5KVKAGZ/P59+s2vGBMBWSyhtgEof5MBrlc9PwdaVskalIA0Gq22azcR6PQSqzRK+aQFWQNYjHSlqlSrOLMVFqcE5NB0vb2JgDRNqYOhtgGoPlNbPXpAYkpAAvv96Ve9UUwEpF1CbQPQ7xrAb1OaTZwLLSxICRhdOXFp/bVlIiCNcmcbgAVjU+GUlIChLXb7somA1E3pf/v99POwlmiPAmoXmwfkowSMqxyYF/vmMhGQiom2DUCqxFl+wSKUgHEteQdzo4lA6TEmAtlyF2YbgG3sRwG1i5sGM1ECBtX0doAP02gi0GJvA4mZaNsApC2gbhbIRAkY0fX16Zd5yZgIyJw8PLTqkT9V/hoWo7hZIA0lYDgL3A7wYUwE5LKU9zfOHHrIbQAui5sFclACxrLY7QAfptGpQ865bJLYBiByLBJMQAkYy7qPM2n0lbHKdEMWSKhtAHp/FFCjxFmlQRtKwECWXww4iYmAnJnyhsbZBqAc55JsA3BBLBIcnRIwiiAL6EwE5NuUdzPOccUawG/TqNwTgxIwhHWXArxNo4lAeVkZI7YB6DFx3jVqUwKGEOe7rNFJw2Zzen3pN6G2AdjvzZh+ljjjG6pSAvq3+lKASUwE5H1sA9B7SmeyOGBESkDnAu6lYyIgb1MOHo0+EhfI8yigFrE4YERKQM/iLAV4GxMBeY1tAAaLxQHDUQJ6FnZffRMBKSkHjDgjANsA1IqdA8aiBHQr8uVxE4HksQ3AwDkconQ7alAC+rRd6QEBZ8ZEIHPKu28bgLHz8DD9OdMtJaBP8c9sTARy5vZ2+patxTYATRNnsSfzKAEdinZP4Idp9B3Rxb89Z2wDkCrlx+uOwSEoAb0p5zddpNFEoJd/frbYBiBhGv2OsywloDcdLXEyEciQckYY58pwzJtmB46hQP+UgK70dTHcRGD4hHrEXPm8GQEsHEOB/ikB/ejuSnijq4UBN0nMGdsASImhQOeUgH70eJ2z0UHCJd91U87/bAMgrzEU6JkS0IlOr4GbCIyXcuYXagQgq8dQoGdKQA/6XRJvIjBYSv2avBdrKb8UlojGie2DuqUE9CDsMwK+TTlFaDQRsARs4YTaBqD8TXwAoiXOx4OfUALCu74+/Y51mqur6b+oCveCL5k42wAU3vqY8UyBPikBsQ1w37OJQNcpJ9xxln2VX4enp9NfTAKm9LPJW0Z4SkBsA5z0mAj0G9sAyE+z203fOGJTAgLrdz3gJCYCPab8eINc3S1/De91L7FtQG+UgMCGufJpItBXygl3nG0AypmlbQD6SqPSTxtKQFS9rwd8GxOBjlIam20AZE7a/b7TgBIQUvkVGuzsx0Sgi8TZBqD8CtgGoN/E+SDxHSUgpPF2xDMRCJ5o2wAYAfQeewh2QgmIZ5j1gG9jIhA5obYBsCf0GLFCsBNKQDz97g/4dRpNBEb9cS2TUqFCbQNgBDBS4lxb4nNKQDBDXgY45v5++o+twkTg4oTaBqC8jy7qDBYXA3qgBAQz8JlQo4lAeU0HjwsSZxuAwgLPUeN2wfCUgEhGui3wwzS6PGgi8KOUzhRnGwA7AY8dDxQITwmIZPgV0Y0mAuWQJmfmMdI2AOU00VWc4eN2wdiUgDCGvwxQYiKwbu7CPN+lvGVGAEnS6LeeSpSAMJLcGN1oImBV+dcJtQ3Atv9nY8qP4mJAYEpADBkuAxzTaCKQ5wd4QUJtA+BhgAnjYkBgSkAMeU6MTASWTPmZxNkGoLxHlnCmjYsBUSkBAWQ7izURWCaHQ6CHu3sYYPK4GBCVEhBAti/HRsvTPHHubUJtA+CtkRIXA0JSAtaWcJhdzgkmP4QqyjFPSsqPN842AOVNeXg4/cUkeVwMCEkJWFvOa6QmAo0SahuA8i4bAcjbuBgQjxKwqrRr2k0EWiTONgCFEYC8j4sB8SgBq0p7nmQiUDehtgEo74JLMvJZXAwIRglYT/Jb200EaiXUNgBGAPJ1XAwIRglYT/LvShOB+Snfp+XfO/kJrMgIQM6JiwGRKAErscOdicDMhNoGoPzY3QUgZ6bR7z4XUQJWYmhaYiJwcUJtA2AjIPlprq6mnyJWogSsoRz8pMRE4IKUs6g42wAUHgcsF6Q09ckHiZUoAWuwg/oxJgI/TfnqjLMNwFGpXEqAXJA497PkpgQsbrs9/Q5IiYnA+Qm7nMqjgeWCuBgQgxKwOJcB3qbRRKAcL0dKqG0APrTxhED5eaJd1kpJCViWywCTNJoIjPRzDrUNwNfcIig/insFA1ACluVb8n1MBD5LaUjlAzP5dwVnNCDnp3zCeym441ICluX78X1MBD7M4dDrxVKjATk/3dXc4SgBC7JB0IcxEXifUNsAXMZFLzknlgeuTQlY0JBL1quk0UTg6en0+h2lVKJQ2wDMYTQg58S9gqtSApZiSeAXabQ+qLuJQKmJg62X3mxermqIfJFGA0HOowQsxZT0ixwO0x9XFeUMo6MMvFL6+vrlCofIh7E8cFVKwFJcF/06jS4JdvFjj78NwHxGA/JFLA9cjxKwCEsCv03aiUBH2wDM192ARpaJ5YHrUQIWYUngt0k4EXjucBuA+UohdklA3sfywJUoAe1ZEnhmUk0Enp7y7plafiN6vHFDmmbgNTGxKQHtWR19ZvJMBAbYBmA+owF5m0b7hfAdJaA9Fz/PTKO5YKiJwEjbAMxX3hq/HfIaE4E1KAGNhToCxU+jK+RB7k8bbxuA+bbbl6WRIiX399OPB+0pAY3ZHuBHaTQRiDCRcRPUF4wGpMSGAWtQAhpztfNHGXIikGEbgPlsJCAlhmWLUwJaMgu4IINNBH7/dnJzrtIDXDlLHhsGLE4JaMk32gUZZiJQaocRwAU8fjBzTAQWpwS05PLmBRljIpB5G4D5jAYy5+pq+nmgJSWgGbOAi9PoVGCxiYCnos1XPgM22MgZE4FlKQHNmAVcnEZX0Rc4qFgDWJc9hhPGRGBZSkAzvrwuTqcTgfLXNgKozmggYTTpBSkBbex2p0+zXJbuJgLWADZlI4FUsWvQgpSANqxwnpmOJgKHw0vnm/xBVFfODl0SSJJS1ifvPs0oAW08enbwvPQyESitwvxyMfYYzhMTgaUoAQ2Uo4LMT/CJQHkdu5utwmggQ9xisxQloIFybJD5iTwRsAZwXVYLDp/DYfqm04YS0ICbA6sk7ESg0Z6G/Ig9hoePnr0IJaAB5yi1Em0iYBuAaG5uGt7xIevGHTeLUAJqKycoUiuhJgLlvNMawICMBkZNo2uB/JsSUNv19ekTLPMTZCJQzjWdlATX4uZPWTfl927yLtOAElCbW5jqZvWJgDWAvbDH8HgxfWtPCajNhLJuGj1S7MwTR/cp9WW7fXl+owwTi3DbUwKqsltw9aw1EbAGsF82EhgmlgW0pwRUdWO34Np5bvZIsS+u2dzZB7BzpcAZDQyQdr/+/I8SUJUFAS2y5ESgfOnYB3AMNhIYIy7INaYEVGVBQIssNhGwBnA8RgO9x7KAxpSAeiwIaJQFJgLl/3AT4KhsJNB1LAtoTAmox4KAdmk6EXABYHilRJ55P4hES7tzAP6hBNRjQUC73N9Pf9pVlHNEE8c8rq8N7LqMX9KWlIB6XHJsF2cDVGE00GOM6lpSAiopXy7SNM4GqMVqwb7S6EIg/1ACKtnvT59XaRRfBFRUOqVLAr3kcJi+fdSjBFRi2VHrmAhQ13ZrHU83sXS3GSWgksfH04dV2sVEgOqMBrqILbyaUQIqsep4gdx5nA8NWC0YP373m1ECarBN0DIpTWvyk4cqNht7DIfOw8P0LaMSJaAGqwIXi4kA7dzcuKQXNE4AmlECarAqcLG4KkhTRgNhY21gG0pADVYFLhYnBCzAasGAsTawDSWgBpcQl4yJAAsohxyXBELFvoFtKAGzbTanz6gsExMBlrHdusgXKLYLa0MJmK2cmMqSMRFgSUYDQfL0NH1rqEEJmM0ThJePiQBLslowSCbvCzUoAbPZeXT5mAiwMBsJRIgbBBpQAmYzNVw+JgKswkYC68YNAg0oAbP5UlglJgKswmhgxbhBoAElYB63BqyV29vpewGLsVpwlbhBoAElYB63BqwVjxhnXdfXLgksHTcINKAEzFO+CGStmAiwLhsJLBzVvwElYB5XBVeMiQAR+BJYMpvN9OfPPErAPO4PXDFOCwjCasHF4i7B2pSAeVwMXDe73fQdgVWUHmAjgQXiLsHalIB53B+4bkwECMVGAq3jLsHalIAZ3B+4eh4fp28KrMtooGnsFlqbEjDDbnf6XMqKMSMkIKsFG8VWAbUpATPYJCBCTASIyUYCLWKrgNqUgBlsEhAhJgKEZSOB6nFPUG1KwAyu+AWJW4eJzBdF3Ux+vMyjBMzgjqAgsWCY4KwWrBilvyolYAYX+oLERID4yqHLaUOVWAtclRIwgxIQJ04O6IKNBObHQ0OqUgJmcH0vTkwE6IXRwMxcXU1/pMygBMwgcWIiQF+sFrw4Gn9VSsClbBcYLSYC9GW/d0ngktgapCol4FLb7ekTKUHi/IDu2Ejggtg5uCol4FK2C4wWEwE6ZTTwo9g5uCol4FJKQMCYCNApqwXPz8PD9KfHDErApfb70ydS4sREgH7ZSODMuOZXlRJwKQ8OCBjfDvTORgLfxuMDqlICLlV+VyVayreniQC9Mxr4OkpAVUrApazliRkbiTAG3zCfRQmoSgm4lF/RmDERYBg2Evgskx8UMygBl7q7O30cJVRMBBjJdvuyGF4mmfyUmEEJuJR1vGHj+SIMxnXHSSY/H2ZQAi6lBISNvUSoYrcL9NRaqwXfZvLDYQYl4FJKQNiYCFBFOegeDoGWmtpI4DVxyln/lIBLGdRFjokAM73dEvT+PtBR5/raRgJKQEVKwKU89iNyTASYaXLOfTi8TAcm/521GA0oAfUoAZdSAiKnnCpN3i84XznKfpjbSA+xzbxaUAmoRwm4lBIQPCYCXOyLTcEPh0BHoPIhz3lJQAmoRwm4lBIQPB46zsWenk6fog/z/BxoteB2m3G1oBJQjxJwKSUgeEwEuMxns4BJQq0WzDYaUALqUQIupQTEj4kAFzh/M1CrBdeKElCPEnApJSB+TAS4wE8PpXFWC242WbYzVwLqUQIupQTEj4kAP/V2e4Dz8/QU6LB0fT3+JQEloB4l4FI2C+oiJgL8yMWL7ELtLbjdfrO2sfcoAfUoAZeyf2cXMRHgR2aeQ5fPW5wtqwdeLWhf8HqUgEspAV2knJ9N3jj4zGWzgElCbSSw2405Gpj8M5lBCbiUEtBLTAQ4U8Vf6jirBYfcSGDyb2QGJeBSSkAvifN1THB1T5ofHwNdEri5GeqxQ5N/HTMoAZfKtjtHvzER4BxVZgGTRFstOMZowF0/VSkBl1ICOkqcHV0Iq921vVCrUwf44lLrq1ICLnVzc/pESvyYCPCtpmfJoVYL7vd9XxJQAqpSAi71xXPGJFoeH6dvH7zVYhbwPuXMYfLnrmW77XinE7/OVSkBl1IC+ordRfjCYut8PXZofpSAqpSASy1z6iC1YiLAF5a8PH44BLpttcfVgg8P038FMygBl9rtTp9I6SLOHvjMKoU+Tivt7rFD9/fTfwIzKAGXKg1a+oqtRvnQWnt+hFot2NFjh1zVq0oJuFQ5okhfibMsi1BWPPiVHuCxQz+NElCVEjCD9BUTAd6LsLjHY4d+lDi1aQhKwAxd32ubMyYCTAQZh4caDQR/7FCcZZVDUAJmGPuJ3UPGRICJUEe7OBe6t4EfO6QEVKUEzNDvbhtpYyLAWwHv8SnfKnEuCcR87JA9P6pSAmbwIMEeYyLAq5i3xh0OLzv7Tv6qawm4kcDkb8g8SsAM8VfQyPtYVcSryJPvUGvg43zXeYRgbUrADHYO7jEmAhzF3+8r1GrBX79CdKanp+lfjHmUgBn2+9PnUjpKOZMwEaDo4kGg5eMa6rFDq89AlfjalIAZ7BzcaUwEKDq6u+f+PlBzXXe1oD2Da1MCZii/ltJjfI/Q3bbfoUYDK64WDLVUYghKwDwB75+Rb2MiQBezgPexWjDOfROjUALmiby6WL6I/UaS63enr8fH1KsF/ebWpgTMY7+gTmMikFl3s4BJom0ksORqQTsF1aYEzNPXc7jlNc/uNk5sjJt7Q40GFlstOPlzmU0JmKfTyaKUuK6Y1uPj6TPQe7KtFrRJQANKwDy2Cug3d3fTd5MMep8FTFLOv+NsJFA0XS348DD945hNCZhnsC+UVDERyGnIjT5DbSTQbrWg4t6AEjDbMpMwaRETgYSGmQVMEm000GK1YKhrHqNQAmbr914jcWKRzfCX7sZeLai1N6AEzOaBwv3GRCCbDA/9engYdrWgPb4aUAJmc4NA13Fukcqos4BJQm0kUFRZLaiyt6EEzOYGga4T6vIpTWV72Eeoz/b81YKeH9iGEjCbGwS6TjlnmryhjCrDLGCSkVYLWsHThhJQgxsEus5uN31DGVLOTb7Lt1OoZ2eXKnbZJQG3BrShBNTgBoGuYyKQQfIHf4faSGC7vWRxhuU7bSgBNXiCQNcxa8wg4SxgklCjgeKnqwXdGtCGElCD75feE+rLkRY88POYUNe9zr+B0FMDmlECatjtTp9U6TTGjcOzcOc1j4/9XRLw1IBmlIAako8bB4iJwNjcxztJtI0Evr2BUE1vRgmoxNrA3mPiODDben6YaKOBL94mqwKbUQIqsTaw9zjVGJhZwGeJtlrwsxsIdfRmlIBKrA3sPSYCozIL+DqlIYVqwO8vCVgV2JISUEn54ErvcbYxJLOAcxJqI4Hi7SWB8neb/H+pRwmoxyXH3hNqYzVquWx/uoSJNhp4vSQQag3jcJSAei7YA0tCxW1I4/n16/TmypmJtoFmqQIu0bWkBNRz45nCnef52dfNaMwCLki0jQRoSQmoxznHAHEn0mDMAi5LtI0EaEYJqKecRErv8bjSkejlMxNtNEADSkBVlgX0nufn6XtKv8wC5ifaakFqUwKqsmXQADERGIZZQJVE20iAqpSAqmxLMkBMBMZgFlA30TYSoBIloCrLAgbI4TB9W+mRy3LVYzQwIiWgNlcgB4hvugH4TWwUqwXHogTU5vxjgJiA9m63O72V0iI2EhiIElCbJwm9Tzkna+Tp6eX76Bz39x8rpzWvyrG/vH1FOYRM3lb6oou3jo0ERqEEAMMpBVEWiNFA/5QAYCxmAUvGasHOKQHAWDzFY+HYSKBnSgAwlqen08FJlsz9vUsCPVICgIFst6djkiwfo4EOKQHAQMwCVo/Vgl1RAoCBPHqIV4CUd8ElgU4oAcAozALi5HD4e3U1fYOIRwkARmGrrmgxGghPCQBGYRYQMFYLxqYEAEMwCwgbGwkEpgQAQzALCB4bCYSkBABDMAuIH6OBeJQAoH9mAR3FasFIlACgf2YBfcVGAmEoAUD/zAK6i40EYlACgM5tNqfjinQXo4G1KQFA58wCuo7VgqtSAoDOPTycDifSaZ6f/+5207eVRSgBQM/MAsaIiwErUQKAnu33p6OI9JvHx+nbylKUAKBnv3+fDiTSb9wmsB4lAOjZ8/PpQCL9xixgPUoA0C2zgAFiFrAqJQDollnAADELWJUSAHTLLKD3HA7T95RlKQFAn379Oh1IpN+4DLA2JWBZ5Wvr/p6+3d297HXKZ66vpzab6S9CFWYBA8SSwLUpAcsq34YuYEq2NPqi//Pn9PrSaUqlnrynLE4JWJzHnUmqPD1NfwWqMAsYIC4DBKAELM6Xl6TKzc30V6AKs4De4zJADErAGlwMkDwxC5AP4zJADErAGq49+VRyxCxAPozLAGEoAStxHiMZcnc3/eRXYRbQe0qNm7ynrEQJWImLAZIhjR4Sr0N3HfsER6IErMe9gjJ2Gm0GV4qFdB2XASJRAtZze3v6lRAZMo1mAeVlpd+4DBCMErCezcZVTRk5jU74/NZ0HZcBglECVmVlgIwaswB5H5cB4lEC1ua0RoZMo3vAzAK6jssA8SgBa3MxQIZMo6/7p6fT60t3cRkgJCUgABcDZLA0mgVst6fXlx7jMkBISkAA5XdDZKQ0mgXc3JxeX7qLywBRKQExlN8QkWFiFiCTuAwQlRIQg4sBMkyen6cf7yrMAvqNywCBKQFhuBggY6TRLMAS2n7jgYGBKQFhuBggY2S/n362q9CSO40HBsamBETia056j1mATOIyQGxKQCS+6aT3mAXI27gMEJ4SEIwN0aTrXF1NP9JVuEjWaVwGCE8JCGaz8Yhh6TjlAzz5SM/nClmncRmgB0pAPB4xLJ3m4WH6Ya7CLKDHHA4uA3RBCYjHxQDpNGYB8ppyMjN5HwlJCQjJ9qjSY8wC5JhGD4+gASUgKjukSl8p5+uTz3AVZgE9ptE1IRpQAqKyd5D0lUbf+w8Pp9eXXuIyQFeUgMCMQqWjtFgFttmcXlw6imcFdUUJCMw0VHqJWYAc47bA3igBsbldULqIWYAc47bA3igBsbldULpIo69+H/6+4rbADikB4bkiKsHTaBaw359eX7qI9YB9UgJ6YIWgRE6jWcDv36fXly5iPWCflIAebLeui0rcmAWI9YDdUgI6YQ9BiZmnp+lntQqzgI7iMQE9UwL6YSggAVPq6eSDWoVZQEexP2DPlIB+7HanXzmROGl0Cvjnz+n1JXgMAjqnBHTFUEBCpdEswJ7ZvcQgoH9KQG8MBSROzAKSxyCgf0pAb9wpIHGy200/n1WYBXSRu7vpG0eHlIAOGQpIhDTaHMYsoIuUd3+zmb53dEgJ6JOhgKyeRieCZgFdxFKAUSgBfSod3CVTWTdmAWnjGQEDUQK65aqprBizgLRpdEsIK1ECenZ3d/q1FFk4ZgE5457A4SgBnbM4QFZJo6fFmAUEj3sCh6MEdM4dg7J8Gs0C7IkZPJYCjEgJ6J8xqiycRjvFGm9FjqUAg1IChlAaushiMQvIFksBxqUEjMLiAFkmZgEJ06j2EYASMAo7B8gyaTQLsA9m2FgKMDQlYCDlXMoiQWmdRieFT0+n15dQeXiYvlOMRQkYi9MpaZpGs4Dt9vT6Eirl7faAgNEpAcOxxFraxSwgT56fLQbMQAkYkUWC0iiNZgE+sQGz30/fJkakBIzIIkFpkXJqOPmkVWEWEDAWA6ahBAzKToJSPY1mAdfXp9eXIGn0YAhCUgLGZSdBqZtG14fNAkLFzoDJKAFDs95KasUsIEPsDJiPEjA6NwtIlZgFDB8NICUlIIGHh9MvucjFMQsYPrvd9N0hASUggc3GdmwyNy02jTELiJObm+m7Qw5KQA7l29ZNg3JxGu0daxYQJG4ITEwJSEMPkItzdTX9OFVhFhAhGkBuSkAmnjAkl6XFLKC8pqye37+n7wvJKAHJ7PenX36RM2MWMGpsCYASkJEvX/lRGs0C3LSybkoDaHGBh94oASnd3p6+CES+TYt7x80C1o0tAfgfJSArPUDOyePj9JNThbHUitEAeEMJSEwPkG/TaBbw+/fp9WXhaAD8mxKQm02F5es0OmC4S2WVaAC8owSk55xMPotZwEjRAPiIEoAeIJ/ELGCYPD9rAHxICeAfvpflfRodNuxcuXBKA/BwID6hBPA/eoC8TaNZwK9fp9eXZaIB8CUlgDf0AHmNWcAA0QD4jhLAv/mOlmPMAnqPlYCcQQngHT1AGu0qbxawWDQAzqME8BH7ByTPzc30I1GFfrlMNADOpgTwCfsJZo5ZQL/RAPgJJYDP6QE5YxbQbzQAfkgJ4Et6QMKUN33yMajCjKl1PB2Yn1MC+M7NzekrRpKk0U1lZgFN8/CgAXABJYAz7Pee+JIlh8P03a+iFAtpl7u76Q8czqMEcJ7yJe5MLkMaHU7Mldql0fiGHJQAzrbd6gHjp9Es4Onp9PpSN41u5iQNJYCfKD3At/nAaTQLKB8bqZ7n55c53eRHDT+kBPBzlnmPmvv76XtdhbWl1VPqmocCUIMSwEWMeIfMr1/TN7oKV4/qpvw8bQZAJUoAl7q+dsvAUDEL6CK/f7sVkIqUAGawVHCkNJoFlLIoteJGAGpTApin9IDHx9M3lHSdRrMAH48qeX7+e3U1/dnCbEoANVgi0HvMAiKnvDsWAdCGEkAl+73RQMcxCwibx0eLAGhHCaAeSwT6jVlAzFgEQGNKALUZDXSX5+fpm1iFWcCclDelUTODN5QAGri+dkmgp5gFRMvjo0UALEMJoA13DXSURrvPPjycXl9+FI8EZEFKAC0ZDcRPo1nAZnN6fTk/h4MRAAtTAmjMasHgaTQL2O9Pry9n5uHBXQAsTwlgES4JhE2jLWh+/z69vnyb52dPBGYtSgBLcUkgZhqdfZYDm5wTawBZlRLAslwSCJWHh+kbVIVZwDlxAYAAlAAW55JAnJgFrBUXAIhBCWAlLglESKNZgJL3RVwAIBIlgPVst3+fnk7fjLJ8ysno5B2p4tev0+vL+7gFgGCUANZme8G1YhawZOwBQEhKAAFst44cK6TRTFqle5/bWxcAiEkJIAwLBpeMWcAysQCQ2JQAgjEdWCaNZgF3d6fXF9f/6YESQDzbrXsHmscsoF2en13/pxdKAFFZKNAujWYBu93p9TPn/t7hn44oAcRWjituI6wes4AWKdXK9X96owTQAwsF6qbRLCBtXXP4p1tKAP1QBaqkHKonP9gqttvT66fK4dDqsgosQgmgN6rAzDTas7a8bKpY/ccQlAD6pApcnEazgMfH0+sPH4d/BqIE0DNV4KcxC5gTh3+GowTQP1Xg/JRj2OSnV0V5C8aOwz+DUgIYhSpwTna76c+tioFnAYfDy3IHh38GpQQwFlXgi5Tj2eTHVcWos4DSbPb76T8WxqIEMKJfv14e3C6T3N1Nf1BVjDcLcN8/aSgBjMvGw5M0mgUM07een196UqOfEoSkBDC6UgXMCEoazQI2m9Prdx3r/shKCSCN/T7Rvezvc38//YFUUX6qXceVf3JTAkjmOCNIeGGg0aGu04GLU3/4hxJAVtfXiS4MNJoFFOVo2lec+sMbSgC5bbcvd4EPf2Gg0SygHE17STn2O/WHd5QA+Ec5ng08Jkg7Czhe9nfqD59QAuDf9vvRbixsNwsI25mON/s59sN3lAD4yGbzsmhgjDvg88wCHPvhh5QA+NJrG+huBdxrGh0Uy+E2SBz74VJKAJztOCnoa91AOUBO/hW1rP5zOK71c+yHGZQA+Lly4CmHny7uMGw0C9jtTq+/cEqnKf+i62vr/KEKJQBmOO5JHPnyQKPn4N3cnF5/gZQDf+lb5U900g+1KQFQSTk5jrZ6oN0soPVVkOOB/3i130k/NKMEQAOvhWDdKwSNZgHb7en166Yc+MtP7HjG78APi1ACoLFyyNzvX5avl1PbhS8SNJoFlH5TJcfT/fKTKS/43/9O/xSgPSUAlrXbLdcJGp1PXzwL+PPn5VzfUR/CUAJgVeU4/evXyzXwYy14ejodL+enHG4nf1YV5S98Zl4P+a7wQ1RKAMSz270cNcvp8u3ty1z/WA5+etng6mr6slXs96fXf035i5W/3uvxvvwXylm+Qz70QAmArpTj67EilGNtaQnloFuKQlEOwKUuHBvDUaPD8PGuyPKnl7+Ggz10TgkAgKSUAABISgkAgKSUAABISgkAgKSUAABISgkAgKSUAABISgkAgKSUAABISgkAgKSUAABISgkAgKSUAABISgkAgKSUAABISgkAgKSUAABISgkAgKSUAABISgkAgKSUAABISgkAgKSUAABISgkAgKSUAABISgkAgKSUAABISgkAgKSUAABISgkAgKSUAABISgkAgKSUAABISgkAgKSUAABISgkAgKSUAABISgkAgKSUAABISgkAgKSUAABISgkAgKSUAABISgkAgKSUAABISgkAgKSUAABISgkAgKSUAABISgkAgKSUAABISgkAgKSUAABISgkAgKSUAABISgkAgKSUAABISgkAgKSUAABISgkAgKSUAABISgkAgKSUAABISgkAgKSUAABISgkAgKSUAABISgkAgKSUAABISgkAgKSUAABISgkAgKSUAABISgkAgKSUAABISgkAgKSUAABISgkAgKSUAABISgkAgKSUAABISgkAgKSUAABISgkAgKSUAABISgkAgKSUAABISgkAgKSUAABISgkAgKSUAABISgkAgKSUAABISgkAgKSUAABISgkAgKSUAABISgkAgKSUAABISgkAgKSUAABISgkAgKSUAABISgkAgKSUAABISgkAgKSUAABISgkAgKSUAABISgkAgJT+85//A339awlQDOrmAAAAAElFTkSuQmCC;" vertex="1" parent="o294ewDcCMPDDSSyki-N-7">
          <mxGeometry x="2.4626865671641793" y="2.4626865671641793" width="50.07462686567165" height="50.07462686567165" as="geometry" />
        </mxCell>
        <mxCell id="o294ewDcCMPDDSSyki-N-11" value="" style="rounded=1;whiteSpace=wrap;html=1;" vertex="1" parent="1">
          <mxGeometry x="301" y="390" width="120" height="102" as="geometry" />
        </mxCell>
        <mxCell id="o294ewDcCMPDDSSyki-N-10" value="" style="shape=image;verticalLabelPosition=bottom;labelBackgroundColor=default;verticalAlign=top;aspect=fixed;imageAspect=0;image=data:image/png,iVBORw0KGgoAAAANSUhEUgAAAgAAAAIACAYAAAD0eNT6AAAABHNCSVQICAgIfAhkiAAAAAlwSFlzAAAOxAAADsQBlSsOGwAAABl0RVh0U29mdHdhcmUAd3d3Lmlua3NjYXBlLm9yZ5vuPBoAAB1qSURBVHic7d17lJ1lYe/x38wkM5N7AlGIhCQQCTcVBLycakRjULlIayuiPfWC1mWVU+0pClhrj7W0iyjV0lpEj6W1ejyAxTtKKyAKxxYVEIsgQRDCNRoMuWcymZnzxxALkZDJft89e+95Pp+19lowmfd5n8Va5Pnu95oAAAAAAAAAAAAAAAAAAAAAAAAAAAAAAAAAAAAAAAAAAAAAAAAAAAAAAAAAQKfqavH+u5MsTHJwktlJZj766WnlpJhw1ibZnOSXSe5I8rMk21s6I4AWG+8AmJ9kWZKXJDkqowt/3zjPAQYzGgHfT/LtJNdkNAwAijEeAbA4yeuTvDajCz60o1VJLk7y2ST/2eK5AHSsniS/m+TaJMNJRnx8OujzoyRvjaNTAGPWm+T3M3o4tdV/ifv4VP3cn+SMJNMDwC4tS3JbWv+Xto9P3Z8Hkrwhrb9oFqCtzE9yWVr/l7SPT7M/VyU5JAATQNXb7U5OckVGr+iHie6AJG9JsjHJ9S2eC0BLTEpyblzg51Pu5zNxbQDQwRo5pzk7yVeSLK15LtBpbkpyQpKHWj0RgD21pwGwb5JvJDmyCXOBTvSzJK9IsrLVEwHYE3sSAAuTfCuj50GB/7I6ycuT3NzqiQCM1VgDYG5GH+rjCmh4YmuTHJfkhlZPBGAsusfwO1Mzes7f4g+7NifJN5Mc3eqJAIzF7gKgK8nnkvy3cZgLdLo5Gb0t9ohWTwRgd3Z3CuCPkny0qRPoShbt05sl83uz4KmTM3t6T7rHclwCxmjthqHct2YwK+/blrse2Jbhkabvck2S5XFNANDGniwAnpvR8/69de90xtTu/M7SmTnxeTPy4iOmZe6sqs8jgrF5ZONQrv3Pzfn69zbm0mvW5Zcbhpq1KxEAtLVdBUBfRv/iqvX1vU/frzdnnTo3r1s2K9P6fc2ntbZtH8ll31mfFZesyc13bm3GLkQA0LZ2FQDvS3JOXTuZO6sn5/7+PnnTy2enp9v7VGgvIyPJ57+zLmdcuDr3/WKw7uFFANCWnmg1PiDJLRm9+r+yU188Kxe8a172muEwP+1t45bhnHHhQ/nk5WvrHloEAG3niQLgc0leV3XgyZO6cv7p++btr9yr6lAwri7+1rq8+bwHsmVguM5hRQDQVnYOgMVJfpLRl/00bGpfdy79s/k58XkzqgwDLXP9bVty0p/ekzXrar1I0MOCgLax85V4703Fxb9vcle+es4Ciz8d7XmHTsmVH1pU9x0qnhMAtI3HHgHYN8k9qXDbX1dXcun798+rXzSz8sSgHdx859YsP/Puuo8EOB0AtNxjjwD8Xire83/WqXMt/kwoRyzuz1Ufrv1IwNyMvljLY4OBlnnsEYCbkzyr0YGec/CUfPdvD8ikHrf5MfE4EgBMNDuOAByRCot/T3dXPv6ueRZ/JqwjFvc345qAuUmujGsCgBbYEQAnVRnkTS+fnaOXTKlhOtC+RAAwkewIgGWNDtDT3ZWzXju3pulAe3NNADBRdCfpT4XX/Z78GzNy0H61vy8I2tazDmzKkQC3CALjqjvJMUkaPn7/xpfNrm820CGcDgA6XXeSwxrdeObU7pzw3Ok1Tgc6hwgAOll3kkMa3fjYI6Zl8iRX/lMu1wQAnao7yZJGN176zFpeGAgdzTUBQCfqTrKg0Y0PXdBX41SgczkdAHSa7iQNv7VnyXwBADuIAKCTdCdp+OH9Nf9FBx3PNQFAp+hO0vBl/NOn7Pw2YeBZBzYlAuYk+WZEAFCT7lR4A2CvOwDgCYkAoN35Cg9NIgKAdiYAoIlEANCuBAA0mQgA2pEAgHEgAoB2IwBgnIgAoJ0IABhHIgBoFwIAxpkIANqBAIAWEAFAqwkAaBERALSSAIAWauKrhEUA8KQEALRYk94iKAKAJyUAoA2IAGC8CQBoEyIAGE8CANqICADGiwCANiMCgPEgAKANiQCg2QQAtCkRADSTAIA2JgKAZhEA0OZEANAMAgA6gAgA6iYAoEOIAKBOXUlGGt145MrDa5wKMBY337k1y8+8O2vWDdU57JokH0kyXOegwK8MJVn/6GdtkpVJ7kkL/58TANCBmhQBwPjamtEQuDHJ1Y9+7h+vnQsA6FAiACaknyS5OMlnktzVzB25BgA6VJOuCQBa65AkH0jy0yTXJnldkqb8Ty4AoIOJAJiwupK8MMnnktyR5F1J+uvcgQCADicCYMI7IMnfJLklyfF1DSoAYALYEQF7zxQBMIEtTvL1JJ9PMr/qYAIAJogjFvfnqg87EgAFeHWSHyc5pcogAgAmEKcDoBgzk1yS5PwkvY0MIABggnE6AIrRleSdSf4tyaw93VgAwATkdAAU5dgk1yXZb082EgAwQTkSAEV5RkafG7BgrBsIAJjAHAmAohyQ5KokTx3LLwsAmOCOWNyfq89blIX7TG71VIDme3qSrySZtrtfFABQgGce0J/vX3Bg/uCVe6V3UlerpwM01/OSfHp3v+RlQFCYdZuGctVNm3LP6sGsXru91dOBzrW1Jxka2/fooeFk3ebtWfXwtqx8cGvuXjOQkYZX3zF7Z5K/29UfCgAAaNT63mTznp9e+8X67bnmtvW5/IeP5LLvr83GrU15q+dAkhckueGJ/lAAAEAVDUbADpsGhvO57z6cFV97IHeuHqhxYkmS25IcmWTbzn8gAACgipEkj/QnA9XuthkaHslF316T915ybx7eWOvpubOTrNj5hwIAAKoa6UoenpJsr36R7cMbt+ft/3h3Pn/9L2uYWJJkU5LDkqx67A/dBQAAVXWNJLO3jn6trmjv6ZNy6R8+PR9748JM6qnlrp1pSc7Z+YcCAADqMGk4mf5rp9obdvpx++Tr71mS6f21PMjrd5Mc9NgfCAAAqMu0wdEQqMlxz5iVL//xQemr/vyOniTveewPBAAA1GlmfUcBkmTZYTPzmbcvTlf1swFvSLLPjn8RAABQp96hpK/e+/pPed5eefcJ86oO05fkdTv+RQAAQN2mDtY+5F++Zn6OPmC3j/jfndfv+AcBAAB16xtKJtd3LUCSTO7pysdPW5TuaqcCjkpyeCIAAKA5ptR/FOA5B07LG5bOrTrMSYkAAIDmmLK9lucC7OxPf3O/qs8HWJYIAABojq4kk+t/yc/iffpy0pGzqwzxwiR9k2qaT2UjI8mNd2zJD1ZuzSMbm/JWJAAYX9t6koGezJ7Wk2MOmJajFk2r43a+vGHp3HzphrWNbj41ydFtEQBfuG593vup1Vl5X733TgJAOzl4Xn/Ofe3++a2j51Qa58QjZ2d6f0+V1wgf1tJTACMjyRkXPpTf+cC9Fn8AJrzbH9yaV330jrzn/95baZzeSV1ZevD0KkMc3NIAWHHJmnzkXx5u5RQAYNydd/mD+fDlD1Ya49hDZlbZvHUB8LOHtuUDn/55q3YPAC31Z/9yf+5ZM9Dw9oftN6XK7he0LAAu+MraDAyOtGr3ANBSWweHc8GVjX8RPmjf/iq7n9myALjiextatWsAaAtX/Ghdw9vOnVHpOv4ZLQuAu1fX/4QkAOgkd/288VMAM/p7quy6dQGwcUu9z0gGgE5T4Ta+9E2u9ECBPk8CBIACCQAAKJAAAIACCQAAKJAAAIACCQAAKFBbvA1wT732f57V6ikA0GE2DSUbmnQH+jUfW9GcgZuoIwPgrX9+bqunAECHeXBb8kCTnkHXiQHgFAAAFEgAAECBBAAAFEgAAECBBAAAFEgAAECBBAAAFEgAAECBBAAAFEgAAECBBAAAFEgAAECBBAAAFKgj3wZ48Ueb99al6bNmZ8lRx+SgI45KV1dX0/YzMjKSO26+MStv/EE2rnukafsBYNT6oWTDUKtn0T66kow0uvHIlYc3vuPlP2542/Gw/0EH561/fm5ecNJv1T72tV/5Qj71gffmvp+urH1sADrLm499Sl56+MwsO3xm9p01eY+27fq97zW8XwGwG69557vztnM+XMtYIyMjufB9786/fOwjtYwHwMTR1ZUcvt+U/PZz9sppL5qbRU/p2/02FQLANQC7cenfnpdLzq8nAC7+6AqLPwBPaGQkueW+LfngF+/P4j++OS879/Zc8h+/zOBQw9/Tn5QjAGMwqbc3//SD2zJv0YENj/HQqrvzpqMPyeDAQI0zA2CiWzi3L39y8ry85cVPSU/3469NcwSgybZv25avXvSJSmN8+ZN/b/EHYI/ds2Ygb7vo7hz5J7fkazfVd9G4ABij7195RUu3B6Bst9y3Ja/865V53d/fmTUbtlceryNvA2yFh+7+WaXtV6+6p6aZAFCyi//94Xzr1vW58M2LKo0jAMZoUndXls1ofPvuxi+1AIDHWb1uMK/66B2VxnAKYIwWLVrU0u0BoE4CYIyOP/74lm4PAHUSAGPQ39+fd7zjHZXGOP3009PXt/uHOgDAeBAAY3DOOedkwYIFlcZYuHBhPvjBD9Y0IwCoRgDsxnve856cccYZtYx15pln1jYWAFQhAHbh0EMPzZe//OV86EMfqnXc8847L1/60pdyyCGH1DouAOyJjnwU8FlnndXwtk+mv78/++23X4455pg8+9nPbso+HuvGG2/MDTfckPvvvz9bt25t+v6gE91yyy25/PLLm76fnu6uHDh/Zg5aMCvz95mWOTNds0NNBtdnaNv6rNs4lFU/H8zK+7bl7tXbMtLiu8M7MgBGWv1fDRgXN998c5YvX541a9Y0Zfy9ZvXl1JctzvEv2D9Lj5qX2TN6m7IfCrdlVbL53sf96BfrtueaH27O5ddvyGXXrs/GLcPjPi0BALSlZi7+Rx68d8467cj89rID0jvZmVCa7AkC4LE2bR3O565elxUXr8mdD2wbt2kJAKDtNGvx33/f6fnrP35+Xr38wHR17f73oRa7CYAdhoZHctEVj+S9n1qdh9cPNX1a0hdoK81a/N/26kNz2xdek1OOs/jTnnq6u/LWE+bk9n86KKccO7Pp+xMAQNtoxuI/tX9SLj73pbnwfUszbYrXn9D+9p7Zk0vfv38+9ofzMqmnebUqAIC20IzFf/aM3vzrBSfk1Jcvrm1MGC+n/+Ze+fpfLcj0Kc1ZqgUA0HLNWPznzu7PNZ96ZV747H1rGxPG23FHT8+XP7ggfZPrPxIgAICWatbif+UnTswRS/aubUxolWXPnpbPnD2/9mtXBADQMs1Y/OfM7MsVF5xg8WdCOeXYmXn3KXNrHVMAAC3RrG/+3/rfJ+XoQ+v9ixLawV+++ak5esmU2sYTAMC4880f9tzkSV35xB/NS093PecCBAAwrnzzh8YdvWRKXn/crFrGEgDAuPHNH6r70//+lFqeDyAAgHHhmz/UY/HTenPS86dXHkcAAE3nmz/U6w3Hza48hgAAmso3f6jfic+fUfkJgQIAaBrf/KE5eid1Zekzp1YaQwAATeGbPzTXsc+aVml7AQDUzjd/aL5DF/RV2t67MYFaebY/jI8l+/dW2t4RAKA2vvnD+Jk7s9p3eAEA1KJZi/83LzzROX94AjOmugsAaDGLP4y/vsnVngYoAIBKLP7QmQQA0DCLP3QuAQA0xOIPnU0AAHvM4g+dTwAAe8TiDxODAADGzOIPE4cAAMbE4g8TiwAAdsviDxOPAACelMUfJiYBAOySxR8mLgEAPCGLP0xsAgD4NRZ/mPgEAPA4Fn8ogwAAfsXiD+UQAEASiz+URgAAFn8okACAwln8oUwCAApm8YdyCQAolMUfyiYAoEAWf0AAQGEs/kCSTGr1BBqxYsWKVk8BOtLw8HA+8pGP1Lr4z53dnys/cWKOWLJ3bWMCzTeuAfDQL7fn6h9uylU3bqo0ztlnn13TjIAqLP7QuZoeAD97aFv+8YpH8oXr1ufHdw80e3fAOLH4Q2drSgAMbh/JZdeuzz98Y22uvmlThkeasRegVSz+0PlqDYDhkeSy76zP+y5anTvu31bn0ECbmDOzL1dccILFHzpcbQHwle9uyJ9ctNphfpjA9p7Vn6s+6Zs/TASVA2DthqGc/anV+eTla+uYD9Cm5szsy79+3Dd/mCgqBcAXr1uft5//YFav3V7XfIA25Js/TDxdSVyiB+ySh/xARVtWJZvvbcrQXct/3PC2ngQI7JLFHyYuAQA8IYs/TGwCAPg1Fn+Y+AQA8DgWfyiDAAB+ZeG86fn2p15p8YcCdOTbAIF69U7uzlt+65B88B3HZO7s/lZPBxgHLQ+Arq5k0dNmZMnCWVmw7/TMntGX7u6uVk8LirDPXlOycN70vPR5+2XW9N5WTwcYRy0JgBnTJud3XnpATly6IC8+5mm+cQDAOBvXAHj6/jNz1mlH5nWveHqmTWn5wQcAKNa4rMJzZ/fn3Hc9N286+eD0OLwPAC3X9AA49eWLc8F7X5i9ZvU1e1cAwBg1LQAmT+rO+Wf+Rt5+ymHN2gUA0KCmBMDU/km59EPLc+LSBc0YHgCoqPYA6OvtyVfPf0WWPfdpdQ8NANSk1icBdnUln/3Ll1j8AaDN1RoAZ73pyLx6+YF1DgkANEFtAfCcw5+Svzj9mLqGAwCaqJYA6O7uysfOfkEm9Xi3EAB0glpW7NNOPjjPfcZT6xgKABgHlQOgp7srZ512RB1zAQDGSeUAOPnFC3PQgll1zAUAGCeVA+BNJx9cxzwAgHFUKQBmTuvN8S/Yv665AADjpFIAHHvMvEye5Mp/AOg0lVbvpc/et655AADjqFIAHHbgnLrmAQCMo0oB4Op/AOhMlQJg7uz+uuYBAIyjSgEwferkuuYBAIyjSgHQO9kdAADQiazgAFAgAQAABRIAAFAgAQAABRIAAFAgAQAABRIAAFAgAQAABRIAAFAgAQAABRIAAFAgAQAABRIAAFAgAQAABRIAAFAgAQAABRIAAFAgAQAABRIAAFAgAQAABRIAAFAgAQAABRIAAFAgAQAABRIAAFAgAQAABRIAAFAgAQAABRIAAFAgAQAABRIAAFAgAQAABRIAAFAgAQAABRIAAFAgAQAABRIAAFAgAQAABRIAAFAgAQAABRIAAFAgAQAABRIAAFAgAQAABRIAAFAgAQAABRIAAFAgAQAABRIAAFAgAQAABRIAAFAgAQAABRIAAFAgAQAABRIAAFAgAQAABRIAAFAgAQAABRIAAFAgAQAABRIAAFAgAQAABRIAAFAgAQAABRIAAFAgAQAABRIAAFAgAQAABRIAAFAgAQAABRIAAFAgAQAABRIAAFAgAQAABRIAAFAgAQAABRIAAFAgAQAABRIAAFAgAQAABRIAAFAgAQAABRIAAFAgAQAABRIAAFAgAQAABRIAAFAgAQAABRIAAFAgAQAABRIAAFAgAQAABRIAAFAgAQAABRIAAFAgAQAABRIAAFAgAQAABRIAAFAgAQAABRIAAFAgAQAABRIAAFAgAQAABRIAAFAgAQAABRIAAFAgAQAABRIAAFAgAQAABRIAAFAgAQAABRIAAFAgAQAABRIAAFAgAQAABRIAAFAgAQAABRIAAFAgAQAABRIAAFAgAQAABRIAAFAgAQAABRIAAFAgAQAABRIAAFAgAQAABRIAAFAgAQAABRIAAFAgAQAABRIAAFAgAQAABRIAAFAgAQAABRIAAFAgAQAABRIAAFAgAQAABRIAAFAgAQAABRIAAFAgAQAABRIAAFAgAQAABRIAAFAgAQAABRIAAFAgAQAABRIAAFAgAQAABRIAAFAgAQAABRIAAFAgAQAABRIAAFAgAQAABRIAAFAgAQAABRIAAFAgAQAABRIAAFAgAQAABRIAAFAgAQAABRIAAFAgAQAABRIAAFAgAQAABRIAAFAgAQAABRIAAFAgAQAABRIAAFAgAQAABRIAAFAgAQAABRIAAFAgAQAABRIAAFAgAQAABRIAAFAgAQAABRIAAFAgAQAABRIAAFAgAQAABRIAAFAgAQAABRIAAFAgAQAABRIAAFAgAQAABRIAAFAgAQAABRIAAFAgAQAABRIAAFAgAQAABRIAAFAgAQAABRIAAFAgAQAABRIAAFAgAQAABRIAAFAgAQAABRIAAFAgAQAABRIAAFCg7iTbGt142+BwjVMBgAloZKQpww4MVhp3oDvJxka33rh5sMrOAWDiGxlqyrDrN1cad0N3kvWNbr3mka1Vdg4AE1+TAuDh9dUDYEOjW6+8Z12VnQPAxDfc8Jn2J7Xy3krjru9OsqrRrW+9a22VnQPAxDe0pSnD3rpqoMrmq7qT3N7o1tfe9GCVnQPABDecjDTnCMC3b95UZfOfVAqA79zwkDsBAGBXBjc25S6AgcGRXHfL5ipDrOxOcmujW6/ftC3f+H8Nn0EAgIlte3Oulfv69RuycUulL+C3dif5fpKGT1B8+qsrq0wAACauweYEwD9/85Eqm29K8oPuJANJvtvoKF+55h53AwDAzoYHk8GG77TfpZ/evy1f/feGH+GTJNcl2bbjUcBXNzrK0PBIzv3HH1aZCABMPNvWJKn//P9ffPYXGRquNO7VyX+9C+BrVUb69FdX5ge3/qLKEAAwsWxdXfuQ3/vJlnz2ykqH/5NH1/wdAfCjJDc3OtLw8Ej+4JxrM7jdHQEAkMFHkqFKt+n9+pDbR/L28x9ItS//uTGPXvzf85gfTkvyskZHfHDN5mzdNpTjnj+/0swAoONt+mkyXOlBPb/mzE+uzheua/jhvTusSHJ98vgA+FmSd+70sz3y7z9anUMPmJPDF8+pNj0A6FSD65It99Y65CXXrMu7P1H5lMJAkt/P6F0AvzoFkCQPJfnnKiOPjCRveP+3cvX3HqgyDAB0ppGRZNOdtQ551U2b8sYV99fxPKFPJ/lVRXTt9IeLk/wkyaQqe5jaPymXfmh5Tly6oMowANBZttyXbL6ntuG+9h8bcupf3JfNA5WvsRtKckiSn+74wc6H+9c++gvPrLKXwe3DufTf7sres/ry3Gc8tcpQANAZtm9MNt2Rum79+7sv/TJv/vADGRisZbzPJrnosT/Y+QhAkixK8uMkU+vY4ynHHZiPv++F2XtWfx3DAUD7GRlK1v0wGdpaeag164byB3/zQC67traHCG1KcmiSx12Y8EQX/D2S0Xx5aR17vfWutfmHL96eOTP7csSSvdLd/UTNAQCdaiTZeNvoEYAKtg+N5JOXr82r/te9ufGO6iHxGO9P8o2df7ir1bg3o88FOKTOGSyePzNnnXZkfvf4p2falEqXGQBAe9h4RzLw88Y33zKcz129LisuXpO7Hqz91cG3JjkyyeDOf/BkX8efk9HnBffWPZvpUyfnVS9ZlBOXLshLnvO0PHWvKXXvAgCab9OdydaH9niz1Wu351s/3JTLr9+YL163Ppu2NuVBegNJfiOjD//5Nbs7Hv+uJH9T94weN4GuZMG+07Nk4ewsnDc9s6b3ZvrUyZnS1/DjCACgyUaSgYfH9LS/LduGs3HLcNZtGs49qwez8r6BrPr5YB239e3O/0jy97v6w90FQFeSy5K8qs4ZAQBN9fkkr3myXxjLFXlTk3wzo4cRAID29r0ky/LoE/92ZayX5O+d5NqM3kYAALSnO5K8IMluX9HbvbtfeNTDSV6R5K4KkwIAmueuJMszhsU/GXsAJMmqjFbFTQ1MCgBonluSvCija/WY7EkAJKMvDHpJkmv2cDsAoDmuzugX9Pv3ZKNG7rUbSPJ/Mvq0wBdl7NcRAAD1GUnyd0nemGTznm5cdfF+ZZJ/SrJXxXEAgLFbl+QtGb1VvyFVn7azMqNHA+YnObziWADA7l2S5OSM3u7XsDoP3x+X5GNJltQ4JgAw6vaMPt3vyjoG29OLAJ/MN5M8I6PnIn5S47gAULK7krwtyTNT0+KfNO8Cvp4kr07yjiRLm7gfAJiIRjL6AL4LMvpY39rfFjQeC/OiJK9PcmpcJwAAT+aWjJ7j/2ySu5u5o/H+Zj4vo88nXpbkqCQHJ/EuYABKtCWj5/VvyOi9/Fdn9Hk746LVh+a7kizM6IWDsx/9zHj009/CeQFAXbYm2fDo55FHP7dn9Kl9zX8pMAAAAAAAAAAAAAAAAAAAAAAAAAAAAAAAAAAAAAAAAAAAAAAAAAAAAAAAAABMOP8fV4GxPyXiymsAAAAASUVORK5CYII=;" vertex="1" parent="1">
          <mxGeometry x="333" y="400" width="56" height="56" as="geometry" />
        </mxCell>
        <mxCell id="o294ewDcCMPDDSSyki-N-12" value="App Storage" style="text;html=1;align=center;verticalAlign=middle;resizable=0;points=[];autosize=1;strokeColor=none;fillColor=none;fontStyle=0;fontSize=14;" vertex="1" parent="1">
          <mxGeometry x="313.5" y="458" width="96" height="29" as="geometry" />
        </mxCell>
        <mxCell id="o294ewDcCMPDDSSyki-N-15" value="" style="rounded=1;whiteSpace=wrap;html=1;" vertex="1" parent="1">
          <mxGeometry x="301" y="528" width="120" height="102" as="geometry" />
        </mxCell>
        <mxCell id="o294ewDcCMPDDSSyki-N-16" style="edgeStyle=orthogonalEdgeStyle;rounded=0;orthogonalLoop=1;jettySize=auto;html=1;entryX=0;entryY=0.5;entryDx=0;entryDy=0;strokeWidth=2;" edge="1" parent="1" source="o294ewDcCMPDDSSyki-N-1" target="o294ewDcCMPDDSSyki-N-11">
          <mxGeometry relative="1" as="geometry">
            <Array as="points">
              <mxPoint x="281" y="510" />
              <mxPoint x="281" y="441" />
            </Array>
          </mxGeometry>
        </mxCell>
        <mxCell id="o294ewDcCMPDDSSyki-N-14" value="" style="shape=image;verticalLabelPosition=bottom;labelBackgroundColor=default;verticalAlign=top;aspect=fixed;imageAspect=0;image=data:image/png,iVBORw0KGgoAAAANSUhEUgAAAw0AAAErCAIAAAAT6fi1AAABNmlDQ1BpY2MAACiRY2Bg4kksKMhhYWBgyM0rKQpyd1KIiIxSYH/CwMLAy8DPoMegnphcXOAYEOADVMIAo1HBt2sMjCD6si7ILO7m56ecZsRPlIxWmTb3k4kcpnoUwJWSWpwMpP8AcVxyQVEJAwNjDJCtXF5SAGI3ANkiRUBHAdlTQOx0CHsFiJ0EYe8BqwkJcgayLwDZAskZiSlA9gMgWycJSTwdiQ21FwRYnI3MCTiTdFCSWlECop3zCyqLMtMzShQcgaGTquCZl6yno2BkYGTAwAAKa4jqzzfAYcgoxoEQ6wxkYLAF+eE8QsxtNgPD6hwGBkEPhJjaKwYGsS0MDAfFChKLEuEOYPzGUpxmbARhc29nYGCd9v//53AGBnZNBoa/1////739//+/yxgYmG8xMBz4BgAZwl0kRZxDFAAAAANzQklUCAgI2+FP4AAAAF96VFh0UmF3IHByb2ZpbGUgdHlwZSBBUFAxAAAImeNKT81LLcpMVigoyk/LzEnlUgADYxMuE0sTS6NEAwMDCwMIMDQwMDYEkkZAtjlUKNEABZiYm6UBoblZspkpiM8FAE+6FWgbLdiMAAAgAElEQVR4nO3deXBcV5Ym9nvuW/JlIrGDBLEQ3Bdw38RdEiVSa0mlklRbV1V3u7vs7nGHZybGdnvC4+jwEu6ZmJiJiR6XJ+ye6nK7W1XuWrpUpSqVJFIUKYqLuO8rQAAEQRAEiB25ve0e/5EACQIPABcQyAS+X1AKCfky8wGKQH4699xziZkFAAAAAAwjJ/sGAAAAADIUchIAAABAMOQkAAAAgGDISQAAAADBkJMAAAAAgiEnAQAAAARDTgIAAAAIhpwEAAAAEAw5CQAAACAYchIAAABAMOQkAAAAgGDISQAAAADBkJMAAAAAgiEnAQAAAARDTgIAAAAIhpwEAAAAEAw5CQAAACAYchIAAABAMOQkAAAAgGDISQAAAADBkJMAAAAAgiEnAQAAAARDTgIAAAAIhpwEAAAAEAw5CQAAACAYchIAAABAMOQkAAAAgGDISQAAAADBkJMAAAAAgiEnAQAAAARDTgIAAAAIhpwEAAAAEAw5CQAAACAYchIAAABAMOQkAAAAgGDISQAAAADBkJMAAAAAgiEnAQAAAARDTgIAAAAIhpwEAAAAEAw5CQAAACAYchIAAABAMOQkAAAAgGDISQAAAADB9Mm+AQCYkliwECTSfz3w9fTfAh4CAMg4qCcBwLhiJZTHnu11Nfi9LYJ58GOC2b19TsXb2HcF+w8+CgCQcVBPAoDxwyzY9/ta7Wu73bZL4eVva7mzhBD9pSNmwSp1/ucslLX4VaPyGdItQdqk3jEAwGiQkwDgiTELoVgptvuchoOpa5+4LecFK2vpV4ZdyH5vs9t8yrt71ShbE17xjla8iDRDkBREWIkDgEyDnAQAT47Zc7zWK8mz/+A0n/R7moUQMlwYvKzGzL7rtV72O+q8tkuhBS+Gln1Ny5khRDoqAQBkEOQkAHhcrAQrVp7qbU2e/4Vdt8/vvsV+SrASNGbvI7Nnu3cu+t03nabj4RXvGnO2kZlDUkdhCQAyB3ISADwGTjcbKbvPqdmbOP0Tr7OevaRgfpSEw0J5KtnpNB312i6Z854Lr/sDvXgRSVOQxIY4AMgEyEkA8EhYMLPyhe94rVfjR//aaTjM7AlW/Xv+H4PyVaonde13TuPB8OrvhZe/S5FikpogDStxADC5kJMA4CH115DYc/zeltSF9xOn3mMvJZiFeKQy0givrJRKdsWP/Se75uPI5j8zKzeTlUdSEwK1JQCYNMhJAPAwWCjFXsrvbXGbTsYO/h8q0TlQQxq/GUjMQiivq773kz8Pzd0RXvNdvWQxWQUDTUsAABMNOQkARsGChWDFvqtirW7z+cSpH7st59Id3EI8hSoPsxC+YGE37HOajoRXfstcsFMvXiRDuQPLcAhMADBxkJMAYGTMrHwVb3ebz9o1n9rXP2c7Ns41pFHe2ksmzr1nN+yzlr1jVm7WixeRERmYtAQAMBGQkwBgGGYhmJXPdsy7c9Gu+8Ku3ef3NAvlP3Er0iPchGAhlOf33Eyc+M/uzSOhha8YszdpebNJw4Y4AJggyEkAMByzZ3t3r9s1e536L7y719h3J+0sNmZ2E07zCa+rzmg+Gpq/y5y9RUaKhdARkwDgaUNOAoAB6e1sylexNrtmr12737tzQdl9GXBaLQtmleyw6/d5ndedW0etxW8Ys9aQYaFpCQCeKuQkABBCDKy1uQm7/nDyzM+8tqsqfnfQ3MgMCCLMgj2/q1713vLaLpnlG6zV39Xy55A0BHFG3CEATDnISQDTXP/sIvYdr60mfvRvvNbLfk+zYD8DykjB2He9zlq/77bbeja06HVr6VtkFRJpaPEGgHGHnAQwjQ30a6veO4kT79k1e1VvC/tOxpdmWDCz0+fdvez33rLr90bWfd+cvY10SwgN/d0AMI6QkwCmpXQrEvuc6rOv7U2ceM/vusGePREb/scTs9PrtV3o2/cXRuXGnHV/ohUtJM1A0xIAjBfkJIDpZmChzUu6LZfiX/6NU39YKDfbEtIAZsEe291O/V7vzhmr+utW9ddlzgySBmYHAMCTQ04CmE5YCVbKjvudN1LnP0he+DU7McE8qF87O7EQglWiI3H6h87Ng+EV3zYqt8hISf+kpez+3gBgMiEnAUwH6SNsmX3H77rl1H0RP/Fjv6dZsKIsLSMNxUL0LyZ6dy/3HfjfQnN3WEu/ppeulqECITUhCC3eAPAYkJMAprx0QnJV7x2n6Uzy3PtO4zHBSjALmhohaQgl2LUbPnObj1nLvmHM3qbPWC7NqBAaohIAPCrkJICp616zdqLbuXnSrjuUuvCbgWbtdAFmii5JMQvhK6c3cfZvtYbPrOp3jfKNetEi0kMDswOm5LcNAOMPOQlgqmLBStkx99ZZp+5Q6spuv+9OfxlJTI+cwCyE8nsaE8d/oJetDc190azaLnNnk2agsAQADwk5CWCK4f4ykud47XX2tf127X6vrZY9Wwg12fc28dJrjrZ7+4Tfdd1tPWtWPWdWbpPhQiE1ITCXEgDGgJwEMLWwYOWrvjb76mepK7u91isq1TuNakgjYV8lOuz6PV7bBff28dDC141Za8mICIHdcAAwGuQkgCmhf7K2J5ykc+N44tRPvdYav69VsMrWwUjjj4Xy/L5bqr7Du3vRrHo2tPhrWn4VyfRcSoHABADDIScBTA2Kfd9vvxE78H+6t874fW1CeULgo38YZnYTXmetH7vtNB20lv9eaP7rMpSHwQEAEAg5CSB7sWAh2Gflq0R38vhPEqd/wake9pzJvrHMx+zEva66+PG/Sl3+ec6W/8GYuUboJpHEXEoAGAw5CSA7Mad7kdiO2zX7Y3v/yuu5LYQ/0IqET/oxsWCf7R7P6evd/V+bldsjG/+FlldFUh+oLeFnCADISQDZJ72Hy2M77t25Ejv4127jSfYdtCI9Jmb2Hfvm527bOWvpN6zFb8nITNJCA4fpAsC0hpwEkD3SNSSllBP32xuS5z5IXfhQJboED2z4x8f64+ifpKAS7cmzP3RvHbSW/Z5Rtqn/eDiBw3QBpjXkJIAskZ6K5Ca9jkbn+qHkuV97d+vuz42EccDMntd+OX7kL43K7daCr+gzV1G4hKSOwhLAtIWcBJDh0s3aipWvelqc+i9Tl/fY9UeEcpGQxh+zEIrdpHNjr9d21pz/qjn7eb1khTSjOPAEYHpCTgLIbMxCKZXocq4ftuuPpC59wk7i/gFt8FSwYKESd1OXfuLePhaas9Os2qEVLiLdwhocwHSDnASQmTidkNhJOE1n7JoD9uVP/d4795u18WH9dKXPCfb9rppET4PXfl4v2xyau0tGywc2xMnJvkMAmAjISQAZiAUze7bXdj114WPn+iGvtYbTC22IRxOMWfiu03zYvXvBu3vOrHzOrHpBWoVYgwOYJpCTADJJullbeaq3LXVpt311n9dyRdl9/TvdYHKwYMFOr3Pzc7/zitt2OjTvVaN0HenhgdkBCEwAUxZyEkDGSO9OT8Wc64eTJ3/utlxW8U7BCp/CGYFZsOv3NavEXa/trFn5XGjxO1r+PJIGdsMBTGHISQAZgJVQin3Ha7+ROPL3Ts0Blehi30UNKfMw+7bf25iqfd9tOWpVf9es2kmhXJK6EBKBCWDqQU4CmFTMQjArn1Ox5PGfxg/9iFN97LtCYDEng7Fit8/rro0f/zep2n/M2fDn+oyVJA1BmhAC/+UAphLkJIBJMtCKxE7CbTzd86u/ULEOwT5qSFmDFfspr/1S757vm3Nfyln7zyg8kzRDkI7xAQBTBnISwIS7X0Pq89rqYnt/4Nw4zr4rmLFukzVYCEr/p/RZKbvhY/fWIWvlfxma85LMKSUthANPAKYG5CSAicXMyuNUzGu/kTr32+TZ36pEV/+0JMhWLFgoty959gdOw0fWsj8wZq6VObNIMwVJRCWArIacBDBhWCjFbsrraHRqDydP/9ptrRHsC2b0/2Y/FsysXK+7Jn78X5vlW0Lzv6oXLx84Hg5DKQGyFXISwMRgoZTfd9e+si916VOn/hh7NqYiTUHM7Mbtpn1ux0Wz8oXQ3Ff14hVkhFFVAshSyEkAE4IFs/Jar/ft+SsV68BUpKmr/8ATFb9j1/5CsKflVpJuoWQIkKVQDQaYKKzYSah4l2A12bcCTxmLdCcaO32s3HtfAoCsg5wEMFHwQTntcLrFGwCyF3ISAAAAQDDkJAAAAIBgyEkAAAAAwZCTAAAAAIIhJwEAAAAEQ04CAAAACIacBAAAABAMOQkAAAAgGHISwDSGszQAAEaFnAQwbRGCEgDA6HAOLsA0QyRIkpRk5ZMRUr23BU+dkzXICJNusZdi5QhmwTy558WwcnCcH0BWQz0JYMJwBiQSEoKkETbnbsl79S+spS9PrV8CRGauteLbkfV/quVVCalPfr1MuUL4ONsPIHuhngQwgdTkfWSSFJJI6lpeWc5zf2ZUrJK5pSrWKmhqfYhLTStabFZsMiq3pq78wq7/lN2EUJ6gSQqpU+lnCzAtIScBTJhJXAMiISWZ4Zxn/iC89l2ZW0q6yb4jaOq1KBGRlFaBDBdp+bOt6q/HDv2l135NsIvMAgCPATkJYAojQURSJ80w5mzIfflfafllZFiCZP+jUxlJq1CG8vLf+KHbdDh29N9xopPZF4xVMAB4BMhJAFMVCSlJM7TCyujOPw8t3Ea6JWggG01+p9RTRkIIKUhKqyC08HWjfGPi7I/smg+U0yfYR281ADwk5CSAKYdISI0MS4vOsFa9FV73DS13hiB5PyRNLyRIyEhxzub/LjRvV+Lc/+O1nWe7h5U3qSuhAJAdkJMAphAiIYg0Q+bONOdtimz4tlGxehonpHtIkEaaZpStzytZal//KFXzG7+rVjkxIXzBAmkJAEaCnAQwVaRbkcL5ZtWGUPUua/lrpJkISQ8gIiPHWvquUbE5de1X7q3DXtd19lOCFaISAARCTgLIdtQ/OlI3zar1xtyNkQ3fkpFCJKQg/T8rLa8qZ8N/41Zsthv2ODcPqvhtZiVYTfHWdgB4dMhJAFmOJGm6PnNRaNHz1orX9NLFAwkJn/kjIxJCM8qf0UtX6zNWendO2Y2fsd3DKCwBwIOQkwCyEA0cP0KazJ0ZWvZyaMFWc/5W0s2BPf8wFiIhNNIta/FXVeVWrXiJe+uI23KMfVuwmvQDTwAgQyAnAWQjEiSlGQ0teSG0dJc5byMW2h4XCZIyMtOq/qZRvsltOmjX/c7rui6UK4RAVAIA5CSALHK/FUkvqw6veducv1UrKCPNREJ6AiRIkGbqhQu1nFK9dI3TsMdu+ESlOoXyhVBTf9YUAIwMOQkge5AQUtNyS8Nr37FWf1XLn0VGGAlpnJAgolCeUbpWy59rztmRvPiee/sYe0kh0LQEMH0hJwFkPhIkhZRkWOa8zbkv/beyoEyaOVhoewpIEEmrkErXRwsXObcOJc/+ZxVrZnYFM6Z4A0xDyEkAGY4ECZIaRfILvvUfjaq1pBlo1n66SJJmUrjEWvBmaM6u+Ml/b1/7FQsPzd0A0xByEkDGIiEl6SEK50U2fTdn+x+TNIREDWkCSUlGOGfT/xRe9V/F9v9Lv6eWvQQrBCaAaQQ5CSADkSAiTZe5JcacDdGd/1wvmi00DSORJlz6wBOp5ZTnvfZDp+lA8vwP/b4mdmJoWgKYJpCTADIMSZKajJboZUsjm75jzt9MhiVIIiRNHhLEpIVCc3YZM1alan/lNH7m991kL4EDTwCmPOQkgAxBgkhIkqGoPmuJteKV0IrXtLyZmKz9iFgwMzMxj+sCZf9EBplTFl79J0b5ZrvuQ7flqIo1s3KFwDIcwJSFnASQCUgQkR4yZi4IVb8Qqt5plC0baEVCSHp4zG7CbT2nl1TLvAqS+vg3vBMR6cbMNXrhYufWF07TAbflS2V3CfZGGLPESFAAWQ05CWBSEQkikjpFCsJr3wrN32Qu3IbjRx4b2312zW842WHO2WFWbScz+hROuyNBGpnR0LxXjZlrnKY1zq3P3TvH+wtLD7Z4s3IZ0wQAshlyEsBEYcFqyEcmCdLICFmrXg8t2h5a/JwM5/Uv8cDjYaWSnana37lt552mw1b123rpGpK6IDHelbn+ZThryTf1mWvcttP2tZ97vQ1C+IMKSyx8R7A/ru8LABMKOQlgYrAQPPCRmW5FkiQ1Y/bqyIZ3jXkb9aLZmBs5Tliw8ntu+n3Nftd1fUZ1eO2fyJyZJDUhxvcn3N+0pBct1Qrm6wUL3daTqas/VU6PEEoIhTVTgCkAOQlgwhEJKbX8spytvx9a/Kw2Yx5pBlqRxhULZuGz23bB66zx2mvMOc+FV36PjIigpzBegSRpIWPWRr2oWi9ZZTd86DTtZc9GczfAFICcBDAxKL1SQ5pJummtfDWy8VvazAUylCMk9vw/JSyY2Uu5bef9ngb39nFrxXfMqmdJGk+naYkolGeUbdaLlpgV21NX3vO6awVpaDUDyGrISQAThYg03ahcFX3xn5jzN5JuCYlP0KePWbCnUt1O8zH37kVzzvORdf9EL5g33mtwaUSaSZHS0NzXjLItds3PvK4awuwrgGyGnAQwIUiQZoSW7QxVv0hSx/EjE44FK3Zidt0n7q3D4dXftxa/RVY+Sf2pBCapS6s4vPJP2UuRFsKiKkD2wv/OAkwMElIjPUSGJTQd87UnAwtWQrkq2RU//h96Pvwj9+YXKtkp2H8KjUQkSAppkJkrNBP/rQGyF3ISAEwnLNKByeuu7937L2IH/1f3zhmV7BQ43RYAgmDdDQCmH2bBPrOyb+x1mg6GV/+RWblNL15KRkQI+RSGLQFAtkJOAoBpiwUL9u3k2R/a1z+yln3TmLVOL64mzcTCKACkIScBwHTGgpmV8vtuJk7+wChdHZr/mlG+SebNJmzpBwDkJAAAIYRgZj/ltpzwu+uM28fMBa+bFZvJzEVVCWCaQ04CABD9a3CsVLLDafxMEOmFCzQjivENANMcqsoAAPekl+E8P9HGTqz/VD4AmMaQkwAAhlEes5rsmwCAyYecBAAwHMpIACAEchIAAADASJCTAAAAAIIhJwEAAAAEQ04CAAAACIacBAAAABAMOQkAAAAgGHISAAAAQDDkJAAAAIBgyEkAAAAAwZCTAAAAAIIhJwEAAAAEQ04CABiCB/0dAKY15CQAAACAYMhJAABDsZsQvouKEgAgJwEADMOMdTcAEMhJAAAAACNBTgIAAAAIpk/2DQAAjB+pCZKClWCFhTMAeHLISQAwdZCZa87eyk7MbT3LblywEiwQmADgsSEnAcCUQaSHzTk79MIFbuu51NV/9Duvs/IEIycBwGNCTgKAKYSIdFMrWaIVztVnVDu3jiTPv8dOTAiFLWwA8BiQkwBgiiEiKYwco3SNVrjArNicvPwzp34P+w7W4ADgUSEnAcBURCSIZCifStdE8+e4815OnP6//M5aZn+gtgQAMDbkJACYqkiQIM2gnBmheS8Ys9akaj5InvtbZXdhNxwAPCTMTwKAKY8E6TJSHF75+/lf+aG14E1pFZJmCpJC0GTfGwBkNOQkAJgGiARppFt6SXX0+f8l+uz/rM9aR2auIOQkABgN1t0AYDohIt0Kzd9llG9IXfmZc/Og11nDfhK74QAgEOpJADCtkCAppCHDJZE1f5r7/P8eWvgVvXARST3d+j1wGaPXGwAE6kkAME0RCalpBfOjW/+V23LcrvvYvXNKxVqE8IUQwneZfVSYAAA5CQCmK5KCBMmwOftZvXi503TAuXnAbTnObozZF6wm+/4AYPIhJwHANEeCpIwUhxa+aZSudpoOO42fqWS7EITdcACAnAQAQIKI9JBWMN/KmaXPXOndvShzZmI3HAAgJwEADCBJRtSYuVovXCQ0UxBKSgDTHXISAMA9JEgI0imUi4QEAAJzAQAAgiAkAYAQyEkAAAAAI0FOAgAAAAiG/iQAgH48fAY3Yc8bwLSGnAQA09TgVOT7vuv5nud5nq+ULwRJSbqm67qm67qua/efhuQEMJ0gJwHANMIDkim7vaOro6MrFku4npdMJOPJVCKRSqVsx3WEIEPXLMuKhK2cnHAkEjYMIycSLi4qKCkpDFshKSURITIBTHnISQAw9TEzC6F8v6urt6Gxue1uR3tH542bzU1NLZ1dPY7juK6vlFKsBN8/1I1IEJEmNV3XQqFQYUHe7MpZc+dWlhQVlM4smTunsrAwT5MynZaQmQCmJOQkAJjK0tWjRDJ1tab+2rX6m7fu1NU3tt3tTKZSvq+YedDyW1B7khA++Y5LiWSqu6fnxs1bR46dsazQzBnFC+dXVVbMWrJwXvXSBZGIJQcCEwBMJchJADDV8MBfSnEymTx45PTlK7W19Y3Nza2JZMr3/XR4eqSXuvcVz/Mdx+3rjTXcuBUJW+VlMxctmLN0yfzntj0TjUZowFP5xgBgwiEnAcAUxKxSKWfP3sMnz1y8Xt/Y2dnjeu694tFDhqSRX5xZCPb9WDxee/1GQ+OtE6cvHD1+bv26FTuf35ybmyOwDAcwVSAnAcDUwSyUUq7rHT918ZO9h67V1Hd397me9/AFpEd5r/7QpRynra2js6vnWm3DqdMXX965bdMzqw3DSLd6j++bAsAEQ04CgKmDmVvutP92zz8cPna2q6v3KSWkYW8qWLDreu0dnd09vddqG86cu/zOWy9XlJeiaQkg2yEnAUDWYyGYha/EibrUB5990txrOa6n1FNPSA/cAzOzcF2vvaProz1fXLlW/91vv7lx/SoUlgCyGs4tAYCsx0x9Dv2mvvCH5yob2illO/172SbhTlgpZdvOtdqGf/9XP/rlB3u6e3qVmoxbAYDxgHoSAGQxFsJX1BzXP2ooPtxc7viaEjTpqSQd0fpi8b//ya9b2zreeeulirJSXddQVQLIOshJAJDFFFNDr/n+9ZIzrbM8lsyZEkSY2fc5pezffby/q7vne9/+6oL5VRralQCyDXISAGSldE/SlU7rFzUzr3WW+CxFUEgiIkPXCwrypLzfZsDMvX0xO2XfWxAjItM08vNyx7wsZJp5edHhl6VS9vCVPmb2ff/I0dOxWPz7f/iNJYvnaVKTElEJIGsgJwFAVmKma93mT66U13UXKkEjVZKIRElJ0dffftUw7v+6U0rt2XvoWm2D8rz0V6Sk8rLSN157wTSNwZd98unB2us37l0mhKiqKnt55/ZQKDT4st17D12rqfP9gAU/xcyef/bclb/+0U+//4dfX7FsEZGOohJAtkBOAoAsk64kXesy/uFaeUNPoWI5Sj8SERUU5L2yc7tlmfe+6Ct16XLt9fpG36d0EYhIzigpfHnntkjYGnSZf+HitfqGm4Muo1mlM156cWs0J+f+Zb5/4VJNbW2DL1TwDTMrIS5duf53P/7VH//h15ctXYB5AQDZAvvdACDLMIvmmPZB3azarmKPaaymbZKSNE0ahn7vj65pQ1qFiASRHHaZLgMuI03THrhM73+1UaJPegHu4uXan//y48amFqWCExUAZBrkJADIJswi5tCH9bMudxR7POJyWwZiZsd1T529+Mtf72672zkBAzAB4MkhJwFA1khPAdjdOONUW4nt61kUktKYOZFIHT5yavenBxOJJHISQOZDTgKArMFMR+5ED7cU9zmmyraQlMZKdff2fX7w2JfHz3meP9m3AwBjQE4CgOzALO4k6FhLUVs8osZuS8pQLIRSqqn5zv4DR5tu3VFqcuaGA8BDQk4CgCzAQnhMR1pmXGgvckfd4DbEiK3VQ79O997owbcNfl5AuHmU8pbn+SdPXzh05GQikUJOAshkmAsAAFmAWVzoCJ9ozX2YtiQi0nWtqDDfMAxN02aUFPvKtx3n3gVKqfz83IryUtdxWbAQQtf14uJ8z/OdQZf5virIz6soK3VcN52ZpJSFhfm+7zuuO/iy/Py8irJSz/c9z+vriyeSSaVGSz/MnLKdw8fOLKteuGZVNZHElACAzET4XxmA6YiZfSd56id9n/5boTwhHiyHBPwzjfrosH8gKcOFea/+ZWjhi4Ko/6usWPk9//h9p+mYuDdqaKRXGPTPLETMlb+uL/34Rrmrxj6chIjKZ838i//xzyrKSyVJqUnTMKV2/1nM7Lqu7/n3tpwRkZQyZJg09DLP97z7lwnSNGmaBj04j9t1XN/3mbmtvev/+9lv939x9GF6jwxdf+uNnb/3zTdKigsxTgkgM6GeBACZTjHVdEdOtOZ7KvhwkiGISJIMW1ZOJExSkhBDhhsxszRDwhz0/4kkRrjMFKYx9mVWSDAzi0g4qes6PdwinK/8YyfObdywKj8v1zB0RCWADIScBACZrteRVzpz2pM5w/e4EYmAVqN0UJJSalrggtZAzhm7LvWwlw3cipRS1zVN11RQqd73HygyKcW379w9eebSwgVzigrzkZMAMhByEgBkNGbREg+daC301QP7TtIh5pkNq8tKS0R/oWfgIUkFeXm50cjE546wFVq1ckk0J+z7QyduxxPJPZ8d9jxvcLeDUuro8TPbt6wbcgQvAGQI5CQAyFwsRMqn693W3WTO8PoMEb2669mNG1YOPTGESJI0zYCVLGYRuIvtsQQUgMIRa8vGNc9ve2ZI6ycL0dbWsf/AsXQb0+CHWlrunr94beH8Kl3XUFICyDTISQCQuZhFt20cay30gtu3yTSNcNiiYZElMHAw3zssZFyiEqWPe3vwADjSNc00jeFXm6Yx/Ag4ZvaVf+TYmZ07toTDFs7HBcg0yEkAkLkUU5et34rl8rDBkjRwKq0kScODUpDrdTf3HTjqOO447PMlQYK2bV23onrR4FREA1vnhj9DjtDtxMwNN27dbLo9o6QIS28AmQY5CQAyl+3T2XbL8bUnr/8w8+07bZ/uP5JIJFkNbR56ZESSqKxsxpKF855wqxqzcBz37Pmrq1dW64aOahJARkFOAoDMlfK1k63FigOqLCwEs7i3kDbc8FdXZQ0AABUvSURBVOzieX4ymUomkoGb0YJeQRCl35rT7zX4UU1K1/WGvzsHTetmFszp5b6At2bmYyfOfevd1y3LHHmCOABMAtR4AaazTP9Idn3ZnoyOEmqYWSmlVPrv942Qn/pzCj8EIQSR3LBuxZ/+8bcLC/LT8wUGPxp4V+k4pZTyB//xB+5KcODTmPnW7Tt32u5i8C9ApkE9CWBaIiFIk7mlWmGV6mlmP30uRwZ9SKfLRQ295ChtxGuYf/qL3+3d/6V48Bw3IiouKvjON94oKhpjKBENpJ/hXzdN4/t/+I2XX9xqha0dz2/8Dz/4u+PHzwh68AyDYT+wvlh8995DZ85d9oct7dkpxxk4JmU431e1tTcWL5zLzGjlBsgcyEkA0xOR1EKLd2lF85In3rPrvlCJduG7Yz9vAimmE235iinwoJL0Stjlq7UDqeL+NVJSxazSt77yYlFR/iivbxhGNBqJxxOOE/CNm6Y5Z3Z5bm6OpmmGXjB3dsWJk2d51FPbhBCO495sajl99pLneg/c7cA9j1AxYma+dLXutVeelxI5CSCDICcBTFckSNP1GQuju/5laNELybO/cFsuqESnUH4mFJaYhWLR0Js32qKbSAeM+/82QN5beAtMHEQ0o6Ro5fLFLz6/5YvDJ85fvNZ2t33IZEilVCKZ9H1FUjqOE4snHnJNjJlZcVAL1Iiraul1vGs1dZ7nadqI9TMAmHjISQDTFgki0iRZeaHFL+rlK1OXf+fUfObevsBeMgOiErGgXjs8+qm3gZ1C/U3X6YXEoGcT0euv7Hjz9R0F+Xnr1y7b/dnh//TXPx6Skxzbabx5u7i40AqF6hpunr9w5V4n9phYjFQ3GuUb4bsd3bF4wjTNR3oiADxVyEkA0x4JIUiLlkQ2fDc0b3vywq/cphPunctCeUI88f75J2D7wh25OelJEFHpzKJIOCylNAxj3rxKKeneQ5KIJOXn5/q+//c/+ZXr+XV1jSnb5v5Y9rTYtt3T01dUONpaIQBMMOQkACBBJEiS1PUZC6PP/VOn6bR95WOn8ZjffXOy+rtZiG6Hhh98O8T90Y2DLpR0z4hPbL7dlkgmLctk5lhffGCwNhXk5y5ftigSDhcVFdxqbr1aU59MptL750TQrIGR7upe8Lr/HfUvE474LGbR2dUzd04lM4YDAGQK5CQAGIQkGZY5Z5M+Y6HZuNmu3es0fqmS3U+3kDKCLpt45MkF6RT07PZnKspLxYPLa0SUn5eblxcd6bnM6vODx2LxxPJli27dupObl7N6VfXFyzWLF81/duv6NauqI2HL8/wPP95v6kZS2EJwesr2rJkllZWz6upvdnX3BkaZSNjasnFNZcXM4efgxuKJ93+9x/UCRi7d093TO9p6IQBMOOQkABiESAiNdKnllsqlL+mlS43ZG1KXf+fduci++/ANOk+OWXTZ2ujNSSRp+9YNz6xbMewcXKFJLRy2Rir/MPPtlrbdnx48deZiT09fRXnp0iULNq5ftXTJ/LlVFeFwiEgq5X/ltR0V5aU/+rt/7OntMwx944bVu17YMqt0Rm3djU8/O3K1pm54mLGs0OpVSzesXzE8DLW1dfzmw33esHNwB99XXywx2g8FACYcchIADEeCBOkhvWS+zJtlVKxxrn+evPArv/e2YDVhUakjpY/1ThQJW3l50YDj3UZdIUsvgaVsu/l2qxCi5voNz/N3PLtx8cK5uq4RkRCkaVpFWWlxYX7r3Y76G7cSieTLO7c9s36laRiVFaWtrR119Y0BNyTJMDQrFBr+UwqFzNGXAoUQ7sgDlgBgUiAnAUCg/qYlGYpSabWWX2HM2ZQ881O7dl//brinuxJHgshR+ijLT49xDu5g/GC7UG9fzPM8KeWgk2hJShGyQnfvdvq+P7tiVtmsGYauSSmtUMiyTAo6s5aEIJFuThp6PyOdgzvonkTKth/puwCApw05CQBGlc4hkUKjYq0+Y7G1/M3Y/n/ndTYI4T+1qETp5T9jRrWon7gNdyMMgBTX6xpv3b5jhUzD1L/37a/m5UZvNDbX1jV6nhf0hCei6zrKSQAZBTkJAMZCJASRZpCVZ87bVli5wb70Qezgf1ROXLA/nk1LREJI0jS9bG3upn9edaGTjv94pNkEj3EO7ijSh7IxKxYaPfhF1/Vc13Vd73cf7b9wsWb+vKoLF6+1d3SqEWZzj3YObv/jIyCh6xoauAEyCnISADwcIkEakSTNsNZ805i3NXH8/7Vrdiu7b5wOPCHSLS2vIrzuvwgtfFlp4aLbl0lqo89wsm0nkUgS0eB4QUKQlFbIlEFLY4HiicSRY2fmz6ssLiqQUhKRUiqVsvd/cbwvFmPFLNh21PW6xrr6m+kYJImGZx7F7DiO7/sPfJWFECKRSI45fDISDhOCEkAmQU4CgEcxUFvSC6qiL/z3oQXPJ8/9zG25oFLdA7Wlx3hNSXpIRktDC3dZy9/R8ipJM5TiwsL8wB6ge5j5o90HTp6+KGjoXIDCgvx333q5sDDvIatKjuOePX+ltLRk4fyq2RWzdF1rudN+u6Xt/Q/2xBNJQST6TyJhZkofVctBrxyPJ/cdOHbxUo0adg5uMmW77mhDAYQQ+Xm5D3O3ADBhkJMA4NGRFJqUMi+0cIcxa3nq6sepqx97HbVsxx95DU5qMjLDrNxgLX/HKFtLZqQ/irFfXFSgj3zYWXrF7fSZiySDz8F9Zde2wsK8h/puiPJyoyuXL2loaPrFLz9evmyRZYUuXLy2rHrhqpVLe/r6BIvunl7HcQOPSRnMtp3rdY0Hj5x8xHNw+2+ksCAd7FBSAsgUyEkA8LhICCFldEZ47beNynWpKx85jUf8rgb2nYf4pCdBRFaeUbY6NP8Fc/4LMqeESOvfMSaEIIrmRAx9jN9RLAT39wkNPwd3jHGNRGRZoYqy0q7uns2b1koSh788ZdvO0WNnBAlmPvzlqXe/9uqbr71YXFxw8VLtpSu1t5rvDF1TG35LLJgDz8EddRq3EJomCwpyiTCMGyCDICcBwGMbOPCENKNspVY415y9wa7dazccVMmu0Z8nSDNKVxhzt1uLX9EK55OmiwfrKCSElDKSY3X39o0SLwIfGjgHd7SgRETz5lSuW7t83ZrlNxpvRcLhv33vlynbHjxHm5lt2/7m26/k5uZs27zu84PH/++/+YdkcoycJMauGwXLjebk5eWimASQUZCTAOCJEQmWMpRrLtihly43KtY7jYfclgtEQd1FUtMK54XmPWcueMEoXUFGWJAUQYtNUsqKstKWlruC6DFix6j3S0T08q7tr+7anhONrF1V/en+I8lUatib0Jyq8pAVkpoWzYksW7pA157W70wiqppdFrZCjzoICgCeKuQkABgP6d1wQtPyyqwVbxsVa93bZ2Ru6bCD1yi06GUZKTYq1spwUbocNcLrkZS0bu2KU2cv8Qg78MVA4hnyRSmJpBx9+DURVZaXRqM5uq5pUispLgxMYq2tHa7rWaGQUuru3U7msec5EQlJMmCrXfrktqC3Sc/JXFa9UGoSMQkgoyAnAcC4IiJN14vnawWzhUifYzvwyU9CCBla+jrpFkldkBx1iYmk1FatWGLohuO6w+NFOgbtfGHr7IryIdki3Zednz/63jGub2xevbI6kmO5tne9vpFZDXkXZrXvwNGenr6Xdm47c+7y8RPnbMcZ/buPRMLbtqyfO6fygf1uLFhwXyz+819+NMKWNyKi6iULxgh3ADDhkJMAYHwNNC3J4b9eSBBJK/+hXoUEERUV5kejka7unhGuoU0bVj+zfqV4cKokCSE1GbZGOweXWXz40b6bTbe3b1l/+MvT5y9eHT43klm0trXv++LoxSs1PT19fbGEUmM0J1khc/nSBatXLBnWx81tbZ3v/3q35wWfgxvNCc+tqkRIAsg0yEkAkLksK7SseuGRo6dHeJzCYSs3N2f48W5jBg6luL2j69CRk6fOXEwmU67rDm++Tv9rMpm62dQiBtrDR39ZkmSahmVZw8cHxCIJouBlNSJavmxxfl40cBkRACYRchIAZK5I2Nq5Y8ux4+c8MbSQ8xjn4BJJTUpNG2gCIuF5fl9fXKRXC+VYrzD4LYikJKkNnZ5NA51Vj3QOLhFtfma1YYx27i8ATArkJADIXIahz66clZ8fvdve9cRb3mje3IrvfOvNwG6nx3g1SbS8epFpGE9eAcqNRpYtWaDrOmpJAJkGOQkAMhcRFebnb9qw+qM9Xyj1QJ91ejJ2/x4yQcNWxIavxImqyvLK8lmPN9xo2J0JEiQlSTl0YvhY5+AOJaXcuGFVcXHhw59GBwATBjkJADIXEeXn527ZtObAoROxeHxI1GAhkslUb29MDO3qIU3KSMQakjw0Lb1df9xGMQ2vJCmlYvFEPJYY9h7c2dWTTnVDXsGyQhs3rI5ELCnRnASQcZCTACBzEZGmybKy0hXLFh0/dX7IdjNm/uLwybqGm/TgQbhElJ+X++qu7fn5uUMD1AgdQuMlkUh9efTM5at1Q87BZRbJVMoJGgqwvHrhwvlVhmGgOQkgAyEnAUBmIyqfNWP71vUXL9f29sXufTkdOA4dOTm8PZpIVpSVbt20ZqwRSuMvZTvXam/sO/Cl53lDHho4TOWBnBQOW1s3rSspKZQStSSATITlcADIaCSEaZpLF89fsWyRpmmD00Q6drBSitVgnP7zEI1I6bah9EFw43LZoJsa+mf47UhJy5cuWLFsUSQ84qgnAJhcqCcBQKaTkmZXlm3euKam7kZnR/fgrNEfPYbkF8me73d190YiYZJkaHpeXnRIEInFErbj3A8uJAzdyI3mSDnksrjtuIMvMw0jmhMZ0vkUjydTts3MnV29qZTN6qFaxQvy87ZsXldePnNI/gOAzIGcBACZjogMQ9+wbsWly7X7vzjmuO7o1zNzV3fP3773y0g4LDU5u6Lsj//gXdM07l2glPr40y8uXKrxvP6GISnl3KqK3/+9tywrNPiyj3Z/cfFKred66VqSJFm9dMHbb76UkxMefNlnnx85fuqC8lXKtpua7/hq7GPgNCnXrl62bvWysBVCZxJAxkJOAoAsQESlM0uef25j3Y2m+oYmNWoQYeZkyj534Zok0jSttzem/CFd1Vxff/PEqQuO7aQDkKZpiUTS8zwhQoMvu15/88Sp847t9uckKTVNc11vyKs1NDafOHUhfXbbw8wdIKLZs8ue27ahvGymlDj7FiBzoT8JALIAEWm6tmZV9cb1q6I5kTFXqdJhxe/vVwrILYpZKeUr5fvKH+G6dOe1UvzgZWpIn9LAZer+q4yVk6I5kS0b16xeVW2a4zCmEgCeHuQkAMgOkihsWV97c9fyZYt0feyGnv5+6v7YMjTZiIHdZw8Y4UXuS2epYZeO9TL3EQlNk8urF72869ncaA4R9rkBZDTkJADIGlJSSUnh97791cryUjnmcWwZiUjOrix7562XqirL7h00BwAZCzkJALIGEWlSLl08/xvvvF5cVJh1nT1ENHNG0btvvbJ6ZbWmoZIEkAWQkwAgm6QndL+8c9sbr7+QkxPOop1iRJSXF33tpedfenGbaeoSkyUBsgH2uwFAliEiXde+9c5r8Xj84z0H+/riAQfPDqIUu65nO/enCfi+7ys1uGcp3XTkup7tOPeyl+/7ww/fVcyO6zmOIwamgPue7/sqaI7TA/cczYm8uuvZt7+6KxQycOQtQLZATgKALENERGSGzD/63rtC0CefHuztjYkRkhIz9/b2fX7wmGma976olN/SeveB4QLMXd29Bw6eCIfTcwFICOH7fmtrO6sHXvlue+fBIydzIuHBlzW3tI7SwE1EebnRXS9s+c4334hGczRNe/xvHgAmFj3M0FgAgEyT3rHfF4u9/8GeTz491Ha3PV0TGnIZEUkpTdPUtPslHFbsuI7v+2ogAw1cZgwOMQOXqXuJKt0gZZqGlNq9FT9W7Hqu5/mBU52IaEZJ0WsvPff2V1/Ky8uRUqKYBJBFkJMAIIv5vorF4ns+O/zhJ5833mweff7kxCOiOVXlX3llx0s7t+XlRtG7DZB1kJMAIIul5xX19cVPnr744cf7L1yqcQeOIplcJISu68uXL3rj1ReeWb8yNxqRUsvSWQYA0xlyEgBkPaVUKmXXXL/x0e4DR46e6YvFhRi9t/vpIqJoNLJt8/pXX9q+eOG8cNiSklBJAshGyEkAkPXSPdSu57a3dx05dubDj/c33brj+/7E/34jIklUVVX+lVd2bNm0dkZJoWEYCEkA2Qs5CQCmiHRndyKZbGpq+c1H+w4eOZmIJ9VDnLY2LtK78HIi4W2b177x+otzqyoiEUvTxj5fBQAyGXISAEwd/cff+spxnEtXrv/4p7+5dOW653niKS/DpUc6rVi26JvvvrZy+RIrFNJ0TRLKSABZDzkJAKaagbTk26537uyV93+7+8q1esdxPS+9Ejc+v/bSBSRNk4ZhLF449923Xl67elkoZOq6Rll3ogoAjAA5CQCmIBb9cUkp5Tju1Zr6/V8cO3/hald3bzJpO677JL/6iMgw9LBlFRTkrlqxZMezm5ZVLzQNXUotXUJCGQlgykBOAoCpLN20pJRyXbe9o+vSlevnL167cbO5tzeWSCQTyZTrukqNVmRKH08iSRqGEQ6HciLhvLzcOVXlq1cuWV69qLi40NB1qaV7tVFFAphqkJMAYOpL/6JLr8e5rtfV3dt0q6XxZnNjU0tHR1csnrBtx3Fdz/V8XylWQggpSZOabmimYYRCoZxIuKS4cHZl2by5lbMrZxXk5xmGfm99DQUkgKkKOQkApot7aUn1/8W+Uqlkqi+W6IvF4vFkMmW7ruv5vmDWdd009JAVyskJ50Wj0WiOZYU0KaVM140IS2wA0wFyEgBMawPZSQxaerv3W7E/BRGKRgDTFXISAMCYW+CQkQCmKeQkAAAAgGBysm8AAAAAIEMhJwEAAAAEQ04CAAAACIacBAAAABAMOQkAAAAgGHISAAAAQDDkJAAAAIBgyEkAAAAAwZCTAAAAAIIhJwEAAAAEQ04CAAAACIacBAAAABAMOQkAAAAgGHISAAAAQDDkJAAAAIBgyEkAAAAAwZCTAAAAAIIhJwEAAAAEQ04CAAAACIacBAAAABAMOQkAAAAgGHISAAAAQDDkJAAAAIBgyEkAAAAAwZCTAAAAAIIhJwEAAAAEQ04CAAAACIacBAAAABAMOQkAAAAgGHISAAAAQDDkJAAAAIBg/z8eMm2m9sX7YgAAAABJRU5ErkJggg==;clipPath=inset(6.52% 33.33% 6.52% 33.33%);" vertex="1" parent="1">
          <mxGeometry x="324.5" y="532" width="73" height="73" as="geometry" />
        </mxCell>
        <mxCell id="o294ewDcCMPDDSSyki-N-17" value="TF Lite ST Model" style="text;html=1;align=center;verticalAlign=middle;resizable=0;points=[];autosize=1;strokeColor=none;fillColor=none;fontStyle=0;fontSize=14;" vertex="1" parent="1">
          <mxGeometry x="299.5" y="597" width="125" height="29" as="geometry" />
        </mxCell>
        <mxCell id="o294ewDcCMPDDSSyki-N-18" style="edgeStyle=orthogonalEdgeStyle;rounded=0;orthogonalLoop=1;jettySize=auto;html=1;entryX=0;entryY=0.5;entryDx=0;entryDy=0;strokeWidth=2;exitX=1;exitY=0.5;exitDx=0;exitDy=0;" edge="1" parent="1" source="o294ewDcCMPDDSSyki-N-1" target="o294ewDcCMPDDSSyki-N-15">
          <mxGeometry relative="1" as="geometry">
            <mxPoint x="266" y="510" as="sourcePoint" />
            <Array as="points">
              <mxPoint x="281" y="510" />
              <mxPoint x="281" y="579" />
            </Array>
          </mxGeometry>
        </mxCell>
        <mxCell id="o294ewDcCMPDDSSyki-N-20" value="" style="shape=image;verticalLabelPosition=bottom;labelBackgroundColor=default;verticalAlign=top;aspect=fixed;imageAspect=0;image=data:image/png,iVBORw0KGgoAAAANSUhEUgAAAgAAAAHACAMAAADjpiDhAAABOFBMVEUAAAAy3IMAAAAAAAAAbUsAAAAAAAAAAAAAAAAAAAAAAAAAAAAAAAAy3oQAAAAAAAAAAAAAAAAAAAAAAAAAAAAAAAAAAAAAAAAAAAAn0X0y3oQAAAAAAAAhzHUy3oQy3oQAAAAAAAAAAAAAAAAAAAAy3oQAAAAu238u2n4x3oMAAAAo2XsRzHYAAAAAAAAs2X0AAAAv3IEAAAAx3oQx3YMAAAAAAAAAAAAx3oQAAAAAAAAx3oMAAAAy3oQx3oMy3oMAAAAx3oMx3oMv24EAAAAAAAAAAAAy3oQy3oQu24My3oQx3oQx3oMAAAAx3oMw3YEw3YIx3oQx3oQx3YMAAAAAAAAAAAAx3YMw3YMAAAAx3YMx3oMx3YMAAAAx3oMw24Ax3oQx3YMx3oQy3oQy3oQx3oQy3oQAAACvHgKMAAAAZnRSTlMAdPTQAgtwJur7xDBi/KKWxzNLB/cDE+7mCvVcRQfw69eErOEZ+LAeGNs6DgSceBO1Mh/ObVXLu6+nkYncxXm7fWGTKMCMbMqiIueommdRPC3AtUYqQE9nQQ+Ef1UtXDbTTOTh147y6cL5AAAbEElEQVR42uzdy26qUBQG4EXClAeARBkRIZoYIwMSo0QcaJV4HdSo0dbW9f6PcC7tOVV3i6DQutde3xtouOzL/2+gUObS17YPwK7kjn1/XAdZ1aMy/tEcA7tCY27gb0bQAyktbfxnVAKWlWbgO+cRJLR08EOgA8tGwyMSXgH1IR7rAMtkZ+ARYwqyaeEJqwIsA72PJ+YgGd3GUyNgGXTxjGw3UAPPTYClVh3imS7IZYzn+jwOTK+F51Yglw2i7NfwD3pw8FwL5DJBwbAKLJ0ABRrIxXRQ+ov4xywQ5R9CjVDg8K5AKrUnFHjSjaCmBgoCYCn4SGIAFaFoAeyiuo0kplD1MgqeasAuiSiMAL56kvnA0rw7SSyj1l5RYMubbvguIf5GYyNlgaIIWKIxitYgqTn+Jfm+5rcqeSh4MUFSPQcFIbAEGoo2IK0DijggmMAto6At4RTwn6qNAo/zgV+LUWA0QGKP+Benw9JpGCiIQWZ6EwVlF9in9Da9f2uC1K7pAm1R/m1gwYjaW6045gvFEVPFojWuLdAaRc8gvRWKtsAEFYvmqom5p7S2JSj2ZSlpK/DUltLqdnEmZHdO9Dad/a3i6E26e6c7MjvcBepSTk8MqGRcilMdUs5PuWUUNHkqeKyFoiWQ0aGRcy1Oz6GdoS55KLC5KPQhoN6iGKPoAOzdAsn3qEIUOCRWOfKpAtFvUr6FnSU/9ULEVSAuCuVRoaFRBcr+K1/JTHS5CsRFoVzfjgOg57ORTpnIYjdXgbgoxFWgywIuClGvAmU++ghnoLgOrSpQshYXhcR9MpVuiuqQYuz1JgO1QtNdLgqd2pGrAmXPPVmSV1+4CpTFBNVY9FC5CpRshKIdKMrcqzcm4qLQkRXNKlCyNReFPm4GFbfIP2tA7k34IXqppENWXAXKfeCzgsLV3Oly3NVW0SAI201vb5ctx8C/DMcql/desx0Go7jVedwsGhUTCrdUNCb3rUUh3d1ttMMgfLINzKbstUdRZzup1KAYelPVoGzjO4pCpd6zFoeehTczXtqD9aZRhZw94hvJvw53jbjQEoS56x7mnoF5289if1mHvFRtdcsyRRWF9IfNOvAMLNIwPHSnNbjdgXYVKJmW/9OvMl6FNn4Tqx3dehX0lP6cQr5FodpOC4b47axwvajCtebUq0DJnvOaAZmL1czCH2M0o417ZTxO+g/D3STMYQ2kNFnPHPx5T9FzNfNJ+ve0GpbB/RSFev7cwrth9FcTHdLzeT08umEfxHyOPLw79mjrchUotbp9ZVHIfbynW/+U0e/0IIWY98QB/GuyEBV/ZuB9e101dK4CFVIUqnSaKIWXw06HBDPOxf2xyHSMtOu3USLeagpfGXMy9k2QOhFtdsN7f/KLnjqVL1bB1MuB3VQU0peDux31JTPCral4FShZK8Vf8bC+wxlfeuV4B6dcS6UqUKaikNiLrI3n8j36zz35VTgy4IZs2qKQu94jCVbcgH92/AWVI3r/6wnRciT/zf+h3S29/2I+JSNNUajUlWTKn96wU1ezCnRFUajeGSJBVjw193xS1uVuxF7SWV8KHp+Vd26NiqNfBbpYFFKaClWgZBtUmgpVoGT6DBWmRhUoWYPSfD+RulWgZDEqS5Uq0MWikKqUqQIlqUfqvgMC5ecAUNLUvf9/MyKFNwJ+0zdS7/bnoawpmQZ6s5Mq51cUT9E8ENRjdV/+p0IVhwL6o43sndNSqhj4R6OP7MiLWqemqzz1+8pcoeMBxiQDH7dyOopEQ9wA2aeahL8U8J/eVXrlJ5nRIr8o8BAiS+AR/GLkydyPbt4vLwfCM0J3juyiV7IjgTEv/aRi0JwOVAfIUuoTXBueKB7/zcailhXT17z0l82IVFzUVTr6ex2P0LlhCx79XcHQiERGay1kV5mTyIu5HPu52p7Aa2DCO383cKSfDfg8+r9NLPX2kMmLPzfrV0BaD+QOevkJtrT9oQnP/nJh+CCl7j18zoOGSMLdIZ1n/zmaS7cwbHLwL1evkmWGKzz8y5ktVVZsynu/uXN+sXd3q4kDURzA/8Lc+gARoleikoCIXgjFivVCo0vVeqFo2frRnvd/hP1gu7vdqpl2PZnJzPk9QWmCmTmfOWohnEnh70++XgYe5fjP4yYf6UGJ/rIZ5yAuLNc/Tn3rr4PK45lfWRhZXiIQT0mw2lm9YC6U8A+7hsXZwUAa/zJwtDYoGEnxVyYmli6ZimTqS0YqVr4B8vzP8uINkN//Czx4A+T5Z2tiWftoIM//MsffgEB6/9I4/QaEMvnDgKM1ESEl8V8jni3JC0j+x5SRHblByf8as7BhotgtCWMezDcMDEgYNFYwayn1X2ZtYFRL6n8/z4Hdk7UDCcOKSxgT7UgYV27BkFgKgKxwqOGDZOmvW9oBTOiQsERXQY9cAB21QeYSuQDa5BEZi55JWKTUQqaUVABY5lBHljYkLLOIkZ29HADt84KL5ADovHtkJJQJUFYqD3GeRAA9sAtwlpSA+GCMDAxl+ae9BmAXSgrYYqUhuN2RsFg7BK97Ela7A6uarACw3R6MlDSBWq9Sx7+kCcQrfQUucxkCnAcrMIklBJwLpQQ8tiRyYaHAoSU54Lwo4JWEAL1UHeKVjAHw0kgBkA+AxwoA5AbgsVIN11UgXtXnXn/R9iLQXNr1+r12mXg94KqSEvEpjweJwk/N/U2DHDb58lhT+Kl+f3ckRl9xTQ/EZvQY4o2nsavHjf4+xt/UuktsKk1cz1fi0tjjvcTJxSOjGd6bL+gtK+vDmhXiUdyEOGnv3GmgWlA4RQ1KxGRtfRVQZYlz6o5Nnz62cM5wRzx2Ma5jXiQWx6E368cv7vpq9ohHx+4qkEmCS2KH+k8bTVwSjIhFuW7zCTC1oTlwZgdNJcFlzQax+IIriA7EYoA0NUdaEDUGubWqxOLJ3iRQV+u3xwl3Hy62sykplFSJQ6nmTQ3qJEK68Jn+sCoeOCUWN9DxRA7omGy4OAZIYeYRlOrQ4sAoykkAHeqZWNzi//SIxRR6Hin3bj4xdtGeq+A98dhDT5j/i8AceupFesuGXrG4QSyqATTlPh54hK4RsSgOLZwGuzD+F2RmDNNFl118WjAhHi/QNaOcKwCfPe+YjwYViMkKupqUc3vomtM/jFeHBRVisoe2vLcjtqCrTlxm1vUCr6Et75UhCXQFxGWBT4nKxGUGbRPKtxp0xcRmbds84D205X0m2dyG404Pn9AsE5uv0BVSzq2hKyE+S8uawTfQNaScW0HXkvj0bLoCfNc1fznOyov5S/cPM3tiAD9UFHwZS9iGFVHvB3xQeCBOLWjK/WaaYh164jJxauFjVsTqBnpalHsd6NkTqyk+RDWI1ST05AtA1LbhC/CaFLTn7DWAjmbeowD6V7BhkfTxl4iPiFkj9GYsTU9Bw5SYVeuATUnYLdIN854J0v+1WxO7rflS4L9V50gTO9IgWqkhTdQgdpMQumpF4vccIcULOaIX4zI1pQwM8MqO/3w/TLuJOmOsbNjD2YamoEyZ6Ia4YODSoJg7ZcMQ9rVthZiLJs5Rjk2mnwY4R91RRrrQs6OsHJ9wWpT7cvB/7YY4rb6grBRrttwBfyu+RHhPfc17HdAJpW2I91SnTNnZQseYslS5beItde/MZIi3Dp0Ab4WDBmXpECNds0rZKk33EV7FTzcHclb5yzLAq3D2UqGM3cP8UNhTiu3pprDqbL8s8t8LmKI6Gm8Kq8J23CtR9h6QSuU+Ay/OKyY2BKWFORvLjoAiYweFywIXMvDivKUfg7nEOWP3h/KIS0qB+USwMGkgy4H91ne7DF+kZ4TcLsMXaW5dr8IVl41wntMbu8QviXwB/HYrXwC/teUL4LlEvgB+u5UvgN/aEgXyXA2nJCQ8sXJzMLfQ9SCZYL9VA7wXSSbYH9/Yu7udJoIwDuMvsGkpRAxtaWilxiCmSIRQitXSKAE/IEaaYI1ISA88cN77vwOjoZbubqJAD2D/z+8KevAcdGfemell8UY+/L/PTINq+xRZXHTf72XHdTRZBtT2lmEwbft8BGpLfAhWs3EjG256QKQfIKXLTqC2lo1rBWhZZx1YWy92WT3E/IxdVQkxR3bVaYCYB1UbqbMKoKefpUfacX0XbARo27eRzN3Mi3+rvcjOE9243bvWjQBBBzbUCxB0yDKQtiMb+hIg6FndLjEPqqnJf0BtZ/wH1DY8HnIRIOnN34diIelxxMUQ2hr2W51xMFV9DoVpm+KNCG3HHAnQ1mIYQFst4iNAW8PMIgZCdX1nJ0DbAU+Fauua2VmArNd8BWpr8RWorRZxM4C2debBtDWtGiCsZ+8ChO2yDKCty2awtmNOhms7tcMAYc/txxSE7RoAAAAAAAAAAAAAAAAAAAAAAAAAAAAAAAAAAAAAAAAAAACANOc7a5FhMuaL41bsbotWFpbdvTyXq9jkDIoxJmPBx03bnbbYHv3SrSWblIceYzLuVwAnZb/ifYUAtAI48XEz5wSgFMBGwWNWCUAogKUnnlAkAJ0AXnpSmwB0Atj2FF8JQCWA0rSnyBGASgB5T7NJACoBbHiaVQJQCWCRAP6QDWDN0+wRgEoA0bKneEQAKgHYpicVKgQgE8C8J3VYCNIJwDoeV84TgFAAlace85HNIKUAbDDrYz4wD6AVgOVnfKSQYyJILQArbc36pe2BEYBcAGalb3uv2nOd3I4ZASgG8Ku9e9lRHIcCMHwECSGAuOWGRBaBRCyQQAgJEIgFC2DHDpBY1Pq8/xvMtGamm7Id28dJUTUS/3KmAbf7CyEOJL97A3gDeAN4A3gDeAN4A3gDeAN4A3gDeAN4A3gDeAN4A3gDeAN4A3gDeAN4A3gDeAN4A3gD+AIAYb/WWXSTpNrdzA5Dx4Ky86aX3aSbpOm+u+jUYhuKFMa/R9seMaMtD0CgPQuP23k3biT7dJ80JrtaP4NX9Ihru0nj31lofVjGALx4l+DnovHwAU8tm5/7AC6n+TkH/pSdFz5+ym3Ml2BUIBptK5QCoI0Wgul8u667iJW0ux2CPLu/q7rINNi2Ml3MTSZPaxZuJ/ZVo0krNAHQ3NVRlL+dwu/G+Lk6cFXxc134r+nYRVGbvgXUPnJHeyMBaODnqk8T0onwqQlICu7bCubU1bvmVw2ZHFDmnAYoyh3HFhFAfMT8jrcSADQ3mNs6BlK3DebXjcsAcF0goiaA8DBAWX679xUApgvMb92nAJg2UN54WRCAvXNR1jYE7XpHlLdYFgXgjVzUBRCeKqhs0iwbQHOD8jaOLoBwhsqiViEAHwkqGsSg16PjoqrKpRiAjPnPEgBeLUKd3FlWJgB+g+Lza5YWgP4AdWrb5gD6FRRH/yJ0nKJOY7sAgOUedQFMq6hb1CoPwG2POi1CNYDghJqtM1MAKxd1OlmgKhi5qFc1MwaQpagGwO8p1E3CcgBYc92XTZYqAI8NapdkZgBi3eGeQJE9Qe32S0MA9ho1AWQNpJX2ygBgj1G7gSMHkFWRUBKaALhWULcaSAvXSGgfmgHooCaA3gCp+aviAB4kdmkmA5DtkdRmQgdQTVA7NwZJYYKkGlsTADFqAuhXkJ57LgogXCOpdRuZmBkl5ZIA0KtnkFtYpY+WDsBLNAHcfTSqVgyAvTadBR6A3UVypQPQXm7xjkiPDuCiObK+j4ZdigAIFli4p5XSnwcA+5DTDF8BINnrAehV0DT3XgDACcsDcMGfCKBqgbAhvgSAi1oAskGRYXwYA1hheQAkH86jxe48XK1ah3bVLRmAf/z11K15O8GchiBqqRjt/ddzVl06AKOdUyB5mF+dbGfbRbWCue0fhgCyKH8WNv/8m81na1cLgNVFcemo97QRhsONWx6AxtPJZecUoagqCLKOKG4w6gXPo124rwAwwpyOtd/Dsa7n3KlrGwKYoLj6afo0C4/VRGpAugNIVgEwOTO3HADrKXwq7KCoqf4OIBlyo1123PIAJLPaqn8f/tqqngH0xC8RjZbsFnuoo7C7EYAVCtu3PG4Wdr4CwEM4ssrZAkHNbgkA3EMAbP1Ib/OwB8LR1gIQdD2WA6A+cp5GcG/BfwVVFOTuHsBnH3wUlNoGALw9CvLnHghyNnIAIxS0XuYuwRcGUIlBUE8gIAqAbY6Cqg6Isw5ucQD+yIacLigoaYI4p4uCRgYAzsLXvYI4q+ZKAIQV5Nt6kNvQLwYgmoKwm49cN2CyI/H5vtxWflEA+yYwyd+Otvmj8ToiX0syAE/0uosHMKmXKvM2qVkAkvo+AQBhjXeusXXURDMuHe3NLwbgKJnXGvlE5gH5OmQALeSbeCBpWskDEAgwjS2QNiwC4Ax5BWtk28DnrL1AfgDS7m4RAEcbcvMG4tOYRAF+RgVQFYzTA2mxmwOgj1xVGxSNzAEsJLhuyBYp/wQmD1A0LwBgH9Ju77S1DK4FPSIC6KnHyVfLATDmQV5BVdAwBeAvQdIa2ULV7Lk9UGVtjAH4TZC04TXaoMpbI9vAowHo8LMwVc/CRAjAriDbHNQ5PgEAj13/Q3UPnvMiwhPya4d0AAeQlLkCjequ/NzdSQCsAWHHI187FO0BUg80GpkBqIQgK+SmtK/YAwxs0OigB4A4F2dk64DZ3G1JAHr83BN+bsAA2CFbC3QKIyMAM5DXRaaVYurOoJNdNwMwBFkbOW/CwWPkUQAcpG/apM+sAFXJ/kjJmA5gCvJ2HEe5j8gGrQ5kAOq58HzTG/sckO1GAGAMD2o8ANvl96l6LV0DAKkF8i4cAPmUn0CvzDUBMKLd381dgl6hz70SAYAVmd5U8FFBJsFO9QM0W9ABqEfalwLoEd5RmMYmABza9nQE09HghgDAQbbY9EfyyG9xe9DtYgBgCIqmUgBDZBpYoNnQAEBCnM2z+f2hI0sOQP7gADS7cwB25rcozQwAXEFRTwpgZH4vpdClA9gBkBYtHMpomJb6AObItADdbJ8FMEGmC2iXkgG4XjEA7QK3VE7oAIYgLWK3AAu0qyJTrA+gIzsGIB5l8YqnoN2WDCCFYgCO/LRpN6MDuIIsW7YfJ68Ht/QBLGTLSMSjLNgjUwbajcgAqgUBVPk3Tu3mdAA2yFpKVoHoB4IHfQBdxed2ytoV9zbmW6BdiwygWxDAAJk80G5FBlAnDnUO+g2RaacPIJGcL6EeZYHPnX3T7/5yAHWWK+gXkwHsiQcsF9LcMc30AaTSzYA2aHAJe2m2+OUAKgW4Tg1+GyjtRj3GlT64rQ9gUGAz+FABGPxoANGPBrCizF2JAFwKgPcugACAumb1f9wF1FlNwU/+EJgikw3aDcsGcJUuSlDPeZwKfAjMzOHBvsCB1ehlAOgri3yHsgFkhIVD9Q875/oAGpIvzVDPB0KjwNLK+OUANgWWQNplAwhcwoqs8oddQ30A4wKfPjssgG2Bg9nBywHMCOdr2fZlA4CUtBSs+FJXTx/ADplO5kvQMEJjxg6+HMDB/ARshqUD2CBTkzB3bLYcgPT/rs1PQsFQ8uUkRbXXA1ghk2+DZufyAezM3z3nyJSAPoAYmdzQeAESmsjWB826rwfgoPGx99EAAHU2q+YnA9sEABkaH4AuOACeb3qKvYmvB2BFyDQhvOeWDcBB031AD9laBAAwMD0PuXQ5AHAU/05J3exFAOSCXQe06nwBAEhNN54xsi0pAMam3+M7IQ/ggGafKR33OwDUDL+Jv/S/AsCM43gFnZouv/OgALggWxt0yioCAD3Cj7dYha8HcEWzOW/jVwDoI9vG0vs8wnYgAVjys9DUexvkYo5I9ferffwWALBHk/1fjF8CwIuMPo5dkGtJAgBVZGtoyJu6IgBwQoO/RTj4JgAjNPht0CM1BEDfpCpXUHWtCBDTAMzR4LdBdoJCAE3lxev4giN+EwAHufweyLMW+BUAxHOXhCAv3CPXnQggc+k/D7bGKAYAXeQaLOXPNcPvAgAbwQs7hAWbUgHAEbm6Nsh6CKZ7HxABwAS5oqv61B1f3uU+9jIBVge/D8Ad+VKpgBN+HYAY+dYZ9Sr3LaACiJFvIBVwwFwAwV70bE3Iy9viNwKwEtFoe/mjbWOZAPjH8O3zR9MUzXUSkAHAWnbxLb6gg+Lyr/jjn0Gcs8bvBAAryT2R+JwGfimAKeFyfRDUfBR0BzqAPgpy5xYIWx4xJ8nFDvF4BT5v7uN3AZBe17bRFI22VsGvBQBtFJX0LeC6rVHUAgwAwBFFrXvA550jlAKAGwpz2+zRgH1JEb8HgPLirO6WJWC39ohfDSCso7Dq0IbnvNUxZyBLIwAfObMwZgl4wwTzU11/v3t2flO2750I8fsBQAdzWtc+/oy2Lxpt+QBglfsK28uHB7/yrq1tHXO6AAmA+iLV1fnTLMS7OsriVkr4BpvO6HA4bdcuIv4IAPZeMohjZzQ/nNprH2WZA5B55HPTareaymZuDIYAvEQ+C4fDqd31URGzSijvpwCAno/qXgbA66J5yYMOgF9RNO/PS/6fAMDlJwGALDWfMweMAcCwTAAw+z8BgN1PAgDXuukgplAAAIzKBBBMkNjgGwFYW/PRlg8APswEVG5QCIA1KzoLCH/yFkhqNP5GABCMkdSu/ZUAwEmRXnSDYgAgaCOpWQeZmCVeQm3rWwFAQNI/Dr4WAGRrpJZeoSgAsHZIaOFJAYA1IlgK4FUAqPcCEd/+4osBgD1DWpsQ6AD4avqzMPFADgDgHqFeIwteDYCvX0e9ThaYASA1jFA/dx5AKQAgHqBenQCUAGC5QY2iFbcKLgbQJQNwCAAgW6BGlSF3lCMGcCwGALIt6rZugqwLAQBkE9TIbwlPjQOb1VKD2ix1fxnUJgMI6hwAWUP1aI9Lfk7FAGYcAGpxFXUaXALF8/AAZK1SVNV1cn4ZxPcYVVBWurKY64XnA4jJAOBAAgD2IZKPdmgxV+jOB3ArDACslZrAoGaDIi8lAQB7Xpe/ZOtfcXbKA+AL55wo4Y0JY18FADpkAN5CDoAHKxvt2WPumiQDACcOAD3rNvZRUmPogbqbzwJQZNf2mFdas3PvzQfign47Ep7fii146mPhKwBAq+rSAEBQS1wGgKIgnuWMNoCnrhNfAQCGa5cDQC+8LMQG3O7cAb0+xhUGgFrerC6ahfE9gKecz08MuXm3w2Lw/ETHUczbteynQFgg+yPqh3h6j5iyoz31yxstPTs+LFLmpOrpHtKe4ylLcxbmk+dX9Runvk2YBb6w12+da+fWappZ8OP7aaO1r/Hq8veALqv4w4ZX9Wj2h/qz8BcAGOJUrroLpgAAAABJRU5ErkJggg==;" vertex="1" parent="1">
          <mxGeometry x="144.28" y="487.5" width="51.43" height="45" as="geometry" />
        </mxCell>
        <mxCell id="o294ewDcCMPDDSSyki-N-22" value="Client" style="text;html=1;align=center;verticalAlign=middle;resizable=0;points=[];autosize=1;strokeColor=none;fillColor=none;fontStyle=1;fontSize=13;" vertex="1" parent="1">
          <mxGeometry x="226" y="670" width="54" height="28" as="geometry" />
        </mxCell>
        <mxCell id="o294ewDcCMPDDSSyki-N-24" style="rounded=0;orthogonalLoop=1;jettySize=auto;html=1;entryX=0.96;entryY=0.7;entryDx=0;entryDy=0;entryPerimeter=0;exitX=0.5;exitY=0;exitDx=0;exitDy=0;strokeWidth=2;startArrow=classic;startFill=1;" edge="1" parent="1" source="o294ewDcCMPDDSSyki-N-23" target="o294ewDcCMPDDSSyki-N-4">
          <mxGeometry relative="1" as="geometry" />
        </mxCell>
        <mxCell id="o294ewDcCMPDDSSyki-N-23" value="" style="rounded=1;whiteSpace=wrap;html=1;dashed=1;dashPattern=12 12;" vertex="1" parent="1">
          <mxGeometry x="511" y="358" width="395" height="312" as="geometry" />
        </mxCell>
        <mxCell id="o294ewDcCMPDDSSyki-N-25" value="" style="rounded=1;whiteSpace=wrap;html=1;" vertex="1" parent="1">
          <mxGeometry x="582" y="528" width="120" height="102" as="geometry" />
        </mxCell>
        <mxCell id="o294ewDcCMPDDSSyki-N-27" value="TF T2I Model" style="text;html=1;align=center;verticalAlign=middle;resizable=0;points=[];autosize=1;strokeColor=none;fillColor=none;fontStyle=0;fontSize=14;" vertex="1" parent="1">
          <mxGeometry x="592.5" y="597" width="101" height="29" as="geometry" />
        </mxCell>
        <mxCell id="o294ewDcCMPDDSSyki-N-28" value="" style="rounded=1;whiteSpace=wrap;html=1;" vertex="1" parent="1">
          <mxGeometry x="719" y="528" width="120" height="102" as="geometry" />
        </mxCell>
        <mxCell id="o294ewDcCMPDDSSyki-N-30" value="Firebase Auth" style="text;html=1;align=center;verticalAlign=middle;resizable=0;points=[];autosize=1;strokeColor=none;fillColor=none;fontStyle=0;fontSize=14;" vertex="1" parent="1">
          <mxGeometry x="727.5" y="597" width="104" height="29" as="geometry" />
        </mxCell>
        <mxCell id="o294ewDcCMPDDSSyki-N-37" style="edgeStyle=orthogonalEdgeStyle;rounded=0;orthogonalLoop=1;jettySize=auto;html=1;entryX=0.5;entryY=0;entryDx=0;entryDy=0;strokeWidth=2;" edge="1" parent="1" source="o294ewDcCMPDDSSyki-N-31" target="o294ewDcCMPDDSSyki-N-25">
          <mxGeometry relative="1" as="geometry">
            <Array as="points">
              <mxPoint x="709" y="506" />
              <mxPoint x="642" y="506" />
            </Array>
          </mxGeometry>
        </mxCell>
        <mxCell id="o294ewDcCMPDDSSyki-N-38" style="edgeStyle=orthogonalEdgeStyle;rounded=0;orthogonalLoop=1;jettySize=auto;html=1;entryX=0.5;entryY=0;entryDx=0;entryDy=0;strokeWidth=2;" edge="1" parent="1" source="o294ewDcCMPDDSSyki-N-31" target="o294ewDcCMPDDSSyki-N-28">
          <mxGeometry relative="1" as="geometry">
            <Array as="points">
              <mxPoint x="709" y="506" />
              <mxPoint x="779" y="506" />
            </Array>
          </mxGeometry>
        </mxCell>
        <mxCell id="o294ewDcCMPDDSSyki-N-31" value="" style="rounded=1;whiteSpace=wrap;html=1;" vertex="1" parent="1">
          <mxGeometry x="582" y="390" width="253" height="102" as="geometry" />
        </mxCell>
        <mxCell id="o294ewDcCMPDDSSyki-N-33" value="Flask API" style="text;html=1;align=center;verticalAlign=middle;resizable=0;points=[];autosize=1;strokeColor=none;fillColor=none;fontStyle=0;fontSize=14;" vertex="1" parent="1">
          <mxGeometry x="672" y="458.5" width="77" height="29" as="geometry" />
        </mxCell>
        <mxCell id="o294ewDcCMPDDSSyki-N-6" value="" style="shape=image;verticalLabelPosition=bottom;labelBackgroundColor=default;verticalAlign=top;aspect=fixed;imageAspect=0;image=data:image/png,iVBORw0KGgoAAAANSUhEUgAAAfQAAAH0CAYAAADL1t+KAAAABHNCSVQICAgIfAhkiAAAIABJREFUeJzsvXm8JFdZ//95qrrvMnu2yTLZ98nGlgwhkpnMnTszCYk/BEWRAVQQEEV/LgR4qSiKfNkUVFwwEr+KvkTlh0EMzNxJSBCTL4h+ZYlkErJvs2Qmc7deq+qc5/dHVXdXr7e7uqq6qvp5v9KZvtXd53Oqb9/z6efUc84DCIIgCIIgCIIgCIIgCIIgCIIgCIIgCIIgCIIgCIIgCIIgCIIgCIIgCIIgCIIgCIIgCIIgCIIgCIIgCIIgCIIgCIIgCIIgCIIgCIIgCIIgCIIgCIIgCIIgCIIgCIIgCIIgCIIgCIIgCIIgCIIgCIIgCIIgCILQC3PUHRAyySnezQBQGXFfBEEQxgIadQeEbMB37f5FMN4OosuVZgIAA2Ai1gC+BuY/o913/fOIuykIgpBZxNCFoeD9u95iObh9YsIAQAC7/4DZe4L3Mxhg/TyAWdp11wMj6q4gCEJmEUMXAsN33fg5EL3e/QEAK8ApAcpqPMmcBHLTABkAAKU0TMJP0u79/zCCLguCIGQWMXQhEHzXjZ+HQT8GDcAuApWjgH3Mi8z9Hyt2zXxiIzB9imvwzACsW2jXvV8eTe8FQRCyhxi6MDA8t+vNyJl/A6WA4kHAOgKQCXCPjxNrgDQwfQ4wfTKYdZnAZ9Ouu47F13NBEITsYoy6A0L60GTcDqWApUcA6yhA+d5mDnhT7jmg9CRQeA5kGNOA8Udx9FcQBGEcEEMXBoLvvvEdhkE5LD8KqLIXmXP/DVAeqB4CSkfhaLyB9267LLreCoIgjA9i6MKA0E+h/DzgFNyoexAzrzeRB8rPIAcLyE39fvh9FARBGD/E0IXB0OpFKD8HUC6YmdchoHQQSvFNvH/26tD6JwiCMKaIoQuDcAZX5ifdNeXDmDkAGID1AkwuA2T+SSi9EwRBGGPE0IW+4XtfcwXbS+aKCXD9QiZQPAQAL+e53bvDaVQQBGE8EUMX+kdXzzR0NcQGDcBZAKwCYNCnQ2xYEARh7BBDF/qnurAZUAh1+wLKAaVnAfC5vH/nT4TXsCAIwnghhi4MgLEdbIfcJgGqCFQXADL+KuTGBUEQxgYxdKF/tHMaWIffLuWA0tMAeBXPzf5q+AKCIAjZRwxd6JcT4BTXhr9bsJctr22gfAyWJlmXLgiCEAAxdKEv+Guvvdhx7HXhGrpv6RvlgNJTmMiBeP/Oj4UoIgiCMBaIoQv9oaqn5aAiFjGA4hFoGLcCOCFiMUEQhEwhhi70R3XhKsBa+Xl902FjGjKBykEYbIPv2v0HIYoJgiBkHjF0oT/YuA7aRjhT7r12mSOg9DwcxT/DX7nughDEBEEQxgIxdKE/WJ0FdoZtBL3NHG6Ubh1xC7fk1358SEFBEISxQQxd6IdVUMUTh4vOB9n7nYDSISjNr+G7dr1kCFFBEISxQQxdWBH++uvOtiz79CFaGPD5XuEWXQGATwbXFQRBGB/E0IWVcSonTZjDVlcbEDKA0kEAtI3373xlvOKCIAjpQwxdWBlr/kXgKoJNuQf9ImAA9jxgFwAybgvYiCAIwtgghi70Qe6V0EEMfcionnJA8TkAvJnnZl4zXGOCIAjZRgxdWBlln+UuWeuXPrLZ+4IAtQxUlwAjL1G6IAhCD8TQhZXIQZVO6z86D/lae6O86sk8N/uOcBsXBEHIDmLoQk/4mz99UqWqLuzz2RH0gABdBirH4bDxqQgEBEEQMoEYutCb0vzJU7l+jDrCLHjKA6VnkDOR5/2z749OSBAEIb2IoQu9cRY2Q5fRe8o9hiVtrIDSUSg2fxfAVPSCgiAI6UIMXeiNNrdDV9Dd0GNan045oPw0THLA+3dK4RZBEIQWxNCF3rA6EyrMKmvDQEDpCBTTz/OXrz1r1L0RBEFIEmLoQm/s5QtAI47Oa1pkApVDMNkC8mskShcEQfAhhi50hRf/bKpYVpd3eTTOnjTukuFG6Zpex3M7r4yxE4IgCIlGDF3ozoH7Tlg92Rqdh7VpTL+0ahmAfRQmVwHij8XYEUEQhEQjhi50pzzfkuEec4GWrnpueVUG3cj7d1wXa5cEQRASihi60B1LbYcqwTX0pJg54Ebpx0FOCSDzD2PrkiAIQoIRQxe6w86ZblGWJJm5BxlA6RAAvob33XBj5F0SBEFIOGLoQnec5cuClUwdhn6/PBiAswBYy4CZ/4tIuyQIgpACxNCFrhRLegugY1QccCaAckDpIACczftm3hxFjwRBENKCGLrQBc6vntQxzrYHESJAFYDKAphyfx56lwRBEFKEGLrQkfv4Hy6HLrvXqiNniG8NlAPKz4IMvYrvmr01vD4JgiCkCzF0oSM/dM/fb4NTjEFp2CkAArQFlF6A1saHIZ9pQRDGFBn8hM6o8vm9i7KEQUjz+ZQDyk/BIG3y3KxsNiMIwlgihi50xl6+NBVmXscAykehYPwq/+M1p4TcuCAIQuIRQxc6UrX09ugy4iJol0yg/AxM2IQN66VwiyAIY4cYutCRSZPz0fh5lGnzbuEWh4038b6dl0QoJAiCkDjE0IUO/O2FUMUIMtwjXgNHJmA9jxyqgCGFWwRBGC/E0IU2+N4vXAunFHarIbfXDQKKh6CZ/h+e23FNTKKCIAgjRwxdaMcpX+Du4R5WUlyMe8EzAdYxGKoMGKZcSxcEYWwQQxfasZcvBYVlwnGauadFBlA6CNZ8Pe+7YXt8HRAEQRgdYuhCO1rP1M1xKEZg5gDc8qrzIKcAmPk/ja8TgiAIo0MMXWhHq5OGN/RRmblHo3DLZt4/+7r4OiMIgjAaxNCFFvaeq+yiCRrm+vmIzRwAQICzCFQWABhSuEUQhMwjhi40wffedpUxVEJcEszcg/JA6VmA+CTev/MX4umUIAjCaBBDF5pRpbOIrYAvTpCZA3ALt1SA8gtwNP4w8j4JgiCMEDF0oRlreTOgMXiEnjQz96A8UHoaOYNzvH/2Q9F1ShAEYbSIoQvNMGbBzsAvio0gyXqsgfJROEzvA7Au9D4JgiAkADF0oRmtTnYj9H5JuJkDXsb708iRMnj/7MfD7ZQgCEIyEEMXfKw5GU5xVf/T7Skw8zoGUDgMWxtv570z54TSJ0EQhAQhhi7U4XtnL1eONd2foafJzOEWbqkeRh4WYBqfGL5BQRCEZCGGLjTQ1mkm9XP9PGVmXoMMoHgQShuv5bkdLwqvYUEQhNEjhi40sI5fBbbRO0JPqZkDcLeEfQEmlwAyfj/kxgVBEEZKbtQdEBKENl7pGno30mzmNQgoHoZac94sz81spd33fD0ioZHCe7efCoNeCeZXg+hcMEwQqmD+Ogh30+577xt1HwVBCJew6mMKGYDvvPZRFB+7ADA7PRpjRyLWYgdYfymQX/3ftPOul0UrFi98x9b1WD3xB6z5jWTwpHsQcP/U2d1rRwMG4QlA/zbt/trfjrK/giCEh0y5Cx43rYNTXN/5O16GzBzwrqUfAmt+Kc/tuCV6wXjgue03YnXuGYDfSgYm3T9vcr/A6Kq7Hh8GDIMAovNAxmd5buZeABMj7rogCCEghi4AAPjr0+fbtn1yu6FnzMwBAAbgzIPsJYAoE4VbeG77ay0HewFjLUBAdQlYehw4/gAw/31g4UFg/n/cW/Ew4FQAGADRDTw38wA6T8sIgpAixNAFF7t6ct5o3VAmi2buQTm3cAtwJs/t+Jl4xcOF57afZTn0hYmJHGAVgOPfA5YfBux5NHb9IwAa0BZQfg5Y+B6w9ASgHcCgi3lu5kujPAdBEIZHDF1wqc5fhaaiLBk2czAAAlQJqMyjbPFnYu5AuJD5TxMThht5L/2Pa+KUR33KvfFE90YmQBOA9QIw/wBgVQCDXsV7r/+x0ZyAIAhhIIYueOS2ol42Netm7kE5oPQUpifJ4Lkdvx5zR0KB52ZnAVyL4vNA6UmAJtF3rit5s+xLDwGOBRgTfxJRNwVBiAExdMFF25vc6dkxMXMAbsKYAsrHYCl8EGlMDiP8MeyCZ+ZBuu9NxS89DhCfyvtueFvIPRQEISbE0AUAmIQqbYxVceRm7kE5oPQEJkw2eN9Mqgq38P6drwZ4M4rPNaLtQBiAWgbKx8EwpG68IKQUMXQBfN+PnVat2mfHJ5gQM6+TA0pH4LDxi3z3q06LpUthwOovUV0EnAUM/adMOaD8DMjgVTw386uh9E8QhFgRQxcAq3TKZC4mk02cmcONbisHkSOHoKofjb5Pw8P7d+yBQaeg+IyXADcs5Ga8l45BMadqpkIQBBcxdAGoLG0G1xLiIiSJZl7DK9ziaOPNPDdzUXR9CgfWuA2VBUCXENrvzbv8YBoweG7mg+E0KghCXIihC4BhbIeqIFJDT7KZA3ALtxxDDhUAxqei6FFY8L6ZW8nAKhQeDZgI14scUDgCzfSbANaE3LggCBEihi4Amje5S9YiIvFmXoO8KB27eW77llC7FB4mDON3UH4hmgUJZAKVZ2HABs+lK0lQEMYdMXSBYC+dA4roo5AaMwfcKP04croEUDKzvXlu+2+CnWl3mVpUxRINoPQ8mPE2/sqWMyISEQQhZMTQxxz+zjvWlSrqkmgaT5OZe5ABlA6BNV7BczO7h28wTHgDyLzVjc4jfG/JAKqHQLpqwlz9seiEBEEIEzH0cWfxyEmrJiNoN41mDqBeuMUpADD/OKRGQ4Hndrwf2l6N8sEh1533VGn8U34etoM9vHdb4pMEBUEQQxcqy5uhQ06IS62Ze1AOKB0EwBfz/tmfDLfxYPD+nadpGL+E8lF3d7tIEhj92+KagPU88lQFiD4SgZggCCEjhj728AxUiEuf0m7mANzCLcuAtQiAPh2BwOCw+h2DrRwqhxFNvkOn95GA0mEoTa/lfdsujUBUEIQQEUMfd1idAW2t/Ly+2sqCmXtQzt0fHbyO52Z/KTqhleF928+oOvx2lI4ArBF+dN7tfTQA6yhMLgNkJjJJUBCEBmLo4461eEkoBpElMwdQ3zmt8gKKVfVHEYv1xjD+cNJwgOqRCK6dr/A+kgkUDwHAbt63/WUhiwuCECJi6GNOqYKXDG2OmTNzDzKBwuNYPUXguZkPxyPaDO+bvcBx+HUoHY7gtPtp0ACcY4BdBIj+MuweCIIQHmLoY0yF/3zdqgkx895SBlA8AlvRewGsj0/cg/jPc2RFEJ0Psi1uHig9CwAv4X03zITYCUEQQkQMfYyZvO+uy6HLCPwxyLSZe1pkAuXnkDcU8dyOWHdO473br9DMO1EMe5lagG1xnQXALgBk/EWIHREEIUTE0MeZ0uK2wBnu42DmdQgoHoJiehvvveG82PphmLcbugJYzyO8P9WA7yNNAIWnAMKFvPf6V4fUGUEQQkQMfazh89016IO+bJzMHPU12SZXAcP8ZCzd2L/9h0DYguJzIZVHBYZ7HwnQRaC6CBh5idIFIYGIoY8z1tLgGe7jZub1x9wo3dZ4Ne/bdnn0nTFug10A7BcQzp9pGNvi5oHCEwD4VN677S3DNygIQpiIoY8xxYreOtBAP65mDribuVhHkecyYORvi7Qr+2dezaDL3CnuMMqjhvU+EsA2UDkOGOYnQmpUEISQEEMfY1ZPov+xfpzNvIa3Jltrvo7ntkeX7c34BFUXAFXA8HsERLAtbvlZgPV63rftV8JtXBCEYYiq/qKQeD67GepDAPVhGGLmHm55VcPZCOTX/AGAl4Tenbkdb2Lw+VQK49p5RNviahuovABMn/LbAG4DUIxASADAD7z+NJjmxdD6EgDnw8AjIOOBH9/82GOfxzePj7p/QrKIosKDkAL4q7f8LI5/5y+h7RWeKGbe8iLAXA2svxAAvYZ2f/WLIfaIeP+Op1BdOAvLjw5Z7zzK95Hd2YoNlwNk/ibtvudDEYqNJfz9n7wGhvHBqqVnJydNs3moZihHl0yD7oLS76crP/fAyDoqJAqZch9XtHXBihnuYuYdIHdNtlUAiP4k1C7tn/0FsD4LpeeGXHcex7a4FlA+CoDez3u3nhix4FjBD+253db0LZCxe3IyZ4IJrqGTm5zJBDNnroJhvNoh43v84J4/G3WfhWQghj6uWEube07QiJl3h/JA6WkAvInnZsPK9p4E8ftRXQBUGcEnz2LcFrd8CNDWJMh8bzyimSfHB/Z8FzDeks/n3EI89jJgHQYqT7q36lPuvgSqBDAjlzMAonfygTf++6g7L4weMfRxRfNM18FfzHwFyDXdyjwqlgplTTbPzfwCtNo4XHQe87a47ADlY6jY/B7+wmkb4hPPJAY/uOc7IOMqMIDq80DpIcB6GnBeAFTRuxUA5yhQeQIoPwLYi24eDNEr+cE994z6JITRIoY+rrBa23H8FzPvD8oDxScwNWnkeG7HbwzZ2iST8XuozMO9DBIkOh/Ftrg5oPIMpnIOsHqzLGMLjskP7vk+TPNyaBso/wBwnof7OTC8m2/avXaMHaD6DFB+0o3mDWM7f/8Nbx7ZWQgjRwx9LHnHuewU2zPcxcwHb7N4BLaD3wMQOCWd98/8FrE9jdKzARPhRvg+slu8xnL4Z/jOV54SX0cyQ54f3PM/MM1L4VSB8qOuUfc1NJM7m6OLQPkJgDVKlv7riPsrJBgx9DGE7z20pe06rZj54FAOKD+NvKnBczNBa6avqlr86yi94A3kg0bnCdgWt/ocJgwLyOVvj68zmSDPD+75rmvmFaDyONzf56CfAQPgClB5GqtW5Ym/8/obI+irkALE0McRp3I2cRX1gUPMfPBm6zcTKB6G0sY7ed8rTh+4nf0zH5/MKaDyXIDoPCnvYx4oHoZm+mH+lws3xdandGPwg3segGluds38SQAawZMhDff6ur0ITOWleM6YIoY+jthLm+tmIGY+HGSCq4e8wi2rBr2OvNZ28PMoHQ3Q1wS9j2QA1mEYugxMnvm5eDqVakxvmv2ShpkrDL0tCJmAfQRQuD6EPgopRAx9HGG9HazFzMOUKx2G7fDree8PXdb3a+Z23JY3HC86HySzPYHvI+WB4rMAmdfz3LYXRdupVJPzptk3w6m62ephmHkNbUGrYgzFg4QkIoY+jijeCFYxiybQhAZt1ner39EMZhNcPYqcrgLGVF9ROn/+ujO1xutRPITB/gyT+j4agH0McIoAjM9E1aWUY/KDe74D07gcygIqj2G4afZOEIgrALAuxEaFlCCGPnb8v6eyU5iMd9ffpJpQmFoELh2C7fBu/srWl6/42nXTf27ABqqDROcJfx9pEig8Bc10Ne/dtj38TqUa4gf3fA+meTmU7a4hD5QAt6IMWJXB3/65LSE3LKQAMfQxg+99/MWsrFx8hp5wE+qnWfjOoh6mM5jh3QjMBrh6DDlVAsx8zy1hed/2FyvGLVh+GsBkn29RGt5HApwlGE4BMIxPhtqndJPjB/ccgGle5i5Ne8Q7HM3foEFlYFW170s/QnYQQx83lHW6wSsUZAmNNJjQIBoNrZoc1w2eAOSgC4egFV/Ne7ff1LUdI/cJU5XB9nHU/wR7dj9F7yPlgcJTYI0X8d5tPxZOp1JN3ovML3GvmT/uHY7CzGsfSgfQlQsjEBASjhj6uFGdvwoIst55UFJkQkNoNe/NYwDOPGAVATL+tOPL926/Xim9nYuH+pxqT9v7SIAqguwlwDDHvQqb2UiAq3gJcGFfM6/Bzfft8tYIRISEI4Y+dhivdDcwiZK0mVCHZn03v1bzNHvthvpNIw9deAascB7v3fGGtoYN86OGUwS86LyjTlMvYiLUbXFzQOlZsFYX894bfjq8hlOF4S1N2xzq0rSOtO7epwEDF0QgJCQcMfRxQ+vTo81wT6kJ9aG1kpr7OIFVEbqyCK3RVLiF52ZuVEq/AsVD7trtPlqLhdDfRy9Kt5YAMn4n5MbTQM6bZr80kqVpTXT53enKJICTIhAUEowY+lixcAJUcW100+1pNqE+tDpI+qPzRqidgy4+BQBr+Cvb311/MhkfNewC2J5H7z+9DLyPlANKzwGszuZ9N/xCNCKJJNdYmlaNaGlajW6/O4KyK3l+6G2yHn3MEEMfI/hrP3WxY1vrI2o9mmY7SsUcmddMG52n2dtvBFY2VPEYShZ9HAB47sZXa4ev0sXDYOQaXwKatFATiu3cooMAXQKq8wAZH4lQKEkYDTO33UIrkSxNA1b6kJiGDZBzbgTCQoIRQx8nVHVjjqKY+suumQeGcuDiE5jMAfyVmd8Hq4/CWgKcxR7T7Sk5t36hHFB+FmBnDc9te0/0giOlUQJVWREvTVvpd0cAFGCXr4xAXEgwYujjRHnhKoS+ZC1bJtTYCY59mXFeHWpfVN1xqr323HojJnThMJyS+WtOVV3CxYNg5LzHqOW53CM5LuyTjOt3RoC2gPIxlKr4aEyio6ClBOpj3uFRmHntaQ7AFdnTfcwQQx8njNxWaAvhDTTZM/O6VqfpcP/DfjOvQy3/muDSc1ALFtSxRbBabjzWulONv/3hTqM3se5xz16U/gxWTTB437YPxygeFyGVQO2HAX53rADCmRF0QkgwYujjhLZPD2/JWrbMPLBWr3GbAF42oBcOQh89CLbz8e6420rcZu7XLR6B5eB9AFbH2ImooXBLoPZi0N8dAbq8HsApEXRGSChi6OPDKjjFk8MZbBJssCFp1WfQuyS++afZmxLltC8xThN0wQCqxwBVhVpsbYf9zbT0pdPBcM4telq0KAdUnsJEToP33fAHMXYkSqIpgdqRYL8727LW8IM/e264fRGSjBj6mMBf/5EzLcs5PYSWhm+ib6mUabHvXwJ40TtABkAELgNcbX1yDIzSzOvkgcIh2JrewV+67uwYOxQFtRKol41snXkf5HMKyKlzw+uLkHTE0McFu3rqhDnswJ5RE+qhxb5ButPTuCmxzXfcAbjMbWO8XmSwP+EuahJh5nC3ua0+hzxZwOREmpexmfzgnm/DqJVAfRTJmWZvfbkNVJelNv0YIYY+LlQXN4MrCD7wJMNgIxBrr3Fez1ZvZLa3Zrd3eryxXh3gZd3+lpFr8lxpTOc32qEm/VD8PilmXoNyQOEQtKaf5H1bL46+T6FjeDvAXQFtj3hp2kqQa+hgyXQfI8TQxwUyZ6CqCDb4ZNfMI8EB0Om7E7sRu17skEUfNol8H03AOgxDlwEy/jjSLkUAf3/Pt+MpgRrS744VQFqS4sYIMfRxQanT3SVrg5JhM+80Ve471HXNee153aLzQofovNYYudfRdbmDTnt3mmcN+j61JJq5B+WA0iEoRbt537aXRdOn8OEH33AfcuZVjaVpQKLNHIC3p/7pAE4MsVEhwYihjwc5OMtnrlwQpJWMm3n70cZ9bv637YndumuhPTpvbcQA1ALXp+tbnzLUO5FkMwcAGIB1DKYuAqBPht2jKOAH33A/zNwPJW9p2soopTbwQ2/bFHrDQiIRQx8D+BtvPLFcVecP+KpoOtNRKukm1OdLCUBJt7ymy4tsd6vzUH0hLe8jmUDpMJTG9bxv6yvC61P48IE33AMzd11Sl6athGkogFTaVxUIfSKGPg5UFk6ezg/yguybedNMdlsiXJfiKx2Ks9QhAFXvVhvve52bAegFdtete7dOCXJ9z7inxcwBAAZgv+BG6Qm+ls4H9szByG1P8tK0lbEBa/GqCAWEBCGGPg5Uly6D7jfDPftmHhkl3Z+Z11CA9u0GG5g0vo9kAsWDAONq3rd1ZziNhgc/+IY5GMYud2naKEqghgEBugqYpmS6jwli6GOBMQNdxsoDkph5z5d3SqKr/Vxl9/p508EVMAC1yK5XBO5bit7HJgzAOQ7YBQDGp0NseGj4wT1zMM1dbgnUR4Ak7M0eWEIB2t4YvZCQBMTQxwGtzoBaKcN9TMy8R2Z7p8z1JjPv8Jw6y72y6HqgAbXE7iy7P1O+vZvtB1Nr5h40ARSfBgjn81e2vS58gcHhA3vucs181CVQQ4IIbBfOB7AmHkFhlIihjwPW0gWgXoPSmJh5VFQZcAZdW+ZBgC7AXbs+CJl4HwlQBaC6CBj0pxGJ9A0feOMcDHM2MSVQw0AzGHQCP/IOWbo2BoihZxw++L8myzZf0X0QGS8zb0+EA3rt+qYZTYlwrVEyE9zofJhxvxals5cc15Qg19Bs9H3072NoUB4oPgkQTuG5G34uWrHuuGZu7EpUCdShpVwtg2xAW+fFJyyMCjH0rPPM/2yYzomZB6XnkE4AlRlQQ+oRwEX0V9k2pe9jd7zErfI8APpYDIJt8IE33tUw8yeRzgS4Vin/t84qUF2+Lj5xYVSIoWed5ecvdxPiWn/VYuYDt9baNANY1uGM/extCUs9ziDF72NPaAIoPQ6wXst7t74vPuHa0jTDnWavPIl0Lk1rlWpZT6mrQN58SXwdEEaFGHrWUeoGqNYdTMbMzDtNlftvHabam6a6/clq/mS4kh4uQ90PuRvNaKuDJuBWaIuNOLVqkgyUjwFk/gaAXCySB/bMwTB3uWb+OLJn5rVjClDWqfF1QhgVYuhZh/kc6Kr/QJza8WnFbULMQHHIa+dtbQJ6qUObWX4fa5ABlJ8G2FnDe7d+MGo5LzLflfgSqANJddEiQqVUeCnAsXxREkaHGHrWsZcu8u12Ep9ugkyoKUBvS4TrsiuclwjXmpgGACDPzMOKzmt419J1FY0EOfYeQKMfHZfNhcKIzLyWgMYaKB8FDONXEGFBkXpkrpJeAnUQqR5azJiaMtfw07eui69DwigQQ884pQq/om2+OWoSZOaR6CkA5ZCj8xrkbglb14qNUZq5B+WAynOAtid53w2/HYnagTfeVZ9mLz9aE45CKYI2u0mtpOXVRi8VL4ylP8LIEEPPNJxbNRFJKNdDMlsmxK0/EaKJzmsQwBWAq9l6H/vWZQaKR2Ar/kXee/1Zoaq5S9Nms7g0bUV0BbCOS6Z7xhFDzzIH/u4qqCJ6byoTIkkz8w4TE70S4fzJcP6f3fteQw6ii85rGAx1nNv72X46IZAgMwfcPd6tI8jDJhjGas87AAAgAElEQVTGb4WmduCN+zO9NK0nBKgyMGFIkZaMI4aeYfjZv3slnLBrdHYTS5iZR6VX5Ijl3cbZArif7fdD0IqflXQZXHoejsLP8t6tA5b97dDagT37YRg701oCtbPUgFqkAad8UTSdEZKCGHqW0fb5/RVlGZKsmHnHpn0HFYBKlNG5T8sA1HxkYXlUjQ6t685GmED1IHK6ChjGR4ZScxPgdqa7BGqrVAAtBsqlysvC74yQJMTQs4y9tHmczbw9sx29M9t99c7r8901CEAhyui8Q8PK3eqc4SaAN/cNzZcGhtWKhUF0DXDpCLTm1/FXtl0WSC0TJVBbpYJrTU+b0yH2REggYugZxrL0tmgj2uSa+UqsnFbQoucgwui82/VkQC1wyLlbaTBzeNfSD8JQFYDoUwOrPbhnDmYuGyVQ61LDaJGbGIfflR3jMowYeoaZMDEZ2XiTIjNvCtC9iFbr9kQ4sBcJa25f670c2RvZ++FalO7vo6/LoWpFRj/T7M0fKff3MAG9fBCaaYa/Mtv3dHGjBGp1PNaZ94sqgx965PrhGxKSihh6ZvmVC6EK0WS4p8jMB5PqYpM2IorO+zg38vZ4H3qZXDLNvCsEd/c4+whgFQFSn+1LLYslUEP5e/PWQ4KHTjIUkosYekbhex65LpIM96yaeTe1WnnU0P9SBjg3DejCMF8okmnmna7/16N1XctnmIJaegZK0WV859YdPdvLcAnUkBoDVOmKEBsUEoYYelZR9tnuHu4hDmgpMPPOBVb62Oa1vs2qDwJQZcAO+7wHvZ4M6GVAO6312TufT/N8fDLNvOfLmhIVDbA9D11ZAozcZ7q+7MAb7x7fdeb9t1cqVW4It1EhSYihZxVr/jJQiANCCsw8sFavcxsqMu6iFwQN6OVB+5IyM/fRdKWIJsGFp2DZfC7fue21bWpuoZUd2S2BGh6rpsiMpGEhEYihZxXN20MbFFJq5q2JcM3JV+QlwZHvWMs0cJnd6+eh9iggXpTOVucksqbEPgCcUDPvngDn3rQm96bQuGkD2i6Dy4sA5z/R1N64lEANBQJUBcCrAy0DFJKPGHpW0frkUAaGlJr5ylLc8fptE6GWRw3jd9FvlJ5MMx8KyoGXn0bVVufwl2Z+GsB4lUANC10GHzjh2mhFhFEhhp5J3rxJ2cXc0BnuWTVztJt5EwQ3q90JTy8UvPKqbKOHb6XHzBt75ftyAjTaZ1M0AE1gpwJdnAeYPswP7fnqWJVADQUv093QsgVsRpGC9xmE75m/mo9VMNQAlyIzb5t69v5lprbHWbc8r1t3Qrt2Hv77qOYZ5sneJYPalzZqZMLVu+2XHuGe8F0/SrXLA9zyXHan3uvHdO0xA7z8DPTlF59mkHmaO80uS9MGxlqWLWAzikToWURVzyC2gr8+RWbelaARLMG9dq7C6EQE50YAlzpF6emJzPuhbXLJc/Xpq18JY/U0ZGlaUC0NkL46PkEhTiRCzyLV+ctBGuAAA13KzbxTtF4/xlyP2js+DrhGHkp0HuX1ZEDPM8yN5E1JM8j0d9jV9p9qNAH64JE51y5ze1E4kW/WBL5jypeoqBlgB1NbZmGs2wA4ZVmaFlwQ0PY6uMHc0NsVCclCIvRMQtugA1wATrmZ95ZrzYDr8rwyJ39XNu9SqK7C53rRSrYzhGDLFHtr5nvTenqtwdrqYOaSzR5AEABB2SXz4dc8cWXM4kIMiKFnEa1PG9iVxsnMu6EBlIaNzmM6NwL0vI6l1H07A56jf0ld/UZNO+123ldfA7AxvWWnZ+aV8S6BOpxg/Z5JFi7+yAfE0DOIGHrmOHQKnOKqgQa8NJl5R3NoNQr3phnQ3FJoRbs3v3fUu1QaNjqP+X20AF1qJJY1dlfr0JOmEx5St9ejLdF267GmbHbtFsnR2pflrtzpdq0YrB1MvmwnjPUbAFWVEqjBBX33yU3AYH12zJ0QYkAMPWPwPW+/VDlW/4aeJjOPUm/o6Hw0hqAXUvr76/U+swa4guktsw0zlxKoQQXbD5EGrKWXxtwRIQYkKS5raOt0k/q8fp5CM+fWH6j5AWY3Q5q9yJy8x7jTS2rPJYCWeQi/GJEheMGWLgG02l25xkDzjr9eAtrwCXIrR+atmem199+fiOhPgKufivb9frQGoDD98t2+afZHh+p5b8bMzAF3+z3T2BpvX4Q4EEPPGtXjV4H7MPQUmnnXplvz3Xzzzu50NLW/xPcFABpuMlyazLwGuVG6OU0+0/Z9ywmle/010tY9bn6vW59T3yegvjeAAjMwfc0On5nLOvOAgr0fU5UJAFMAKjF1SIgBmXLPHLmtYAs9B8CsmHlHrQH1CKCloH1MiCEoN0qPJkEu4Dmu8DJu/VWxm9wwfc12GBtq2eyyzjyg4AqPE6xqeR1/733nxdIdITbE0LMG69PAPXZFSauZd4rEa7d6GdEuW4f6bk3HALf4SjVIdJ4gQyBALXJ97XbfCXIrC6/Yra6FVrhboRX3GGsvAc5xE+C0Y2Hy6h3uNXNb1pkPIdjXsyZyijB5WLaAzRhi6Jni79bBWT6h6yCYVjMfVGsQ6UKQfibQEBSgk1ZMpi8Zb2nay3fJ0rThBQd4qg1oSww9Y4ihZwj+2ufPtav2yZ0fHBMz7xdCwOg8oYZAgF5CSHt/BTjHlhmQxqyJ93DtvvY9T2sw25i+xstmr2/nKpF5AMEBnksAHMAqStW1jCFJcVnCqWzMm9xeJSwDZs5tdwC0JlWh5VRrj3dpjwaOzhNuCBpQywza4BZugUE+W2y0V0ue62yZK0+zd3pJw7ipccz7vXQutKLB2ts0pr7OXLLZAwoO/hLtABN0efh9EUaJROhZwlq6oi0hLgNmHroeAbDYvfXtHSkwBAJ4CT1TKFYQXlmi3/drhXXmhBYzlxKoQQWDv05b6wDkw+yNMFrE0DOFsR3aVzY17WbuT2hrO9Rc07zTrnGddpSrHaOBCrCkyxD0EjfWn6M5Oa6p9aaDARLg2qbYGzvAuYlxteIxqCWxe9PsGpNX72xMs5clMg8oOMRrCeVScRN//x0XhtYdYeSIoWcJrU6rr0FPu5n3qddqMn1RZff6+YBakRPG78y7lq6dvny6JhxMq8MXpo5b8dbMXGkwM6aunvEVWpGlaQEFh25hegpA3jpj+L4ISUEMPTtMwimc6s67joeZB6bvbPCUGoK32Uyk59j0Mmr87EuCa19nbmN6i3+d+ZOQBLhAgiE1YwN2WSL0DCGGnhH4vh8/tVpV52TJzNtmhJndjC7v1nnNue/x1h4SgEq/0XmKDYEALgFsee+LRtP7Uo+swT2XpHedZm9dZ14rsqIAzV3WmSu7UWjFlhKoQwiG1I63b7CqyhawGUIMPStUl0+ZzIWyZqlPEjKQDdINRp/ReTYMQfkLt7TJBNPt237ru8/6SqCu3wDYss58CMFwm9M2YEDWomcIMfSsYC9d1pQQFymjH8i6Xjv3T/m2UmbXRwbUiowoDYEALgNc9aSahQdvr+16uW+duT+Sr60zryfA+daZSwnUYQSjaVaXNwKYiKZxIW7E0LOCpm3xGHrEA1lbOjY3H/aZCIC2Kffac9DhuVheKTrPniGoRa5fsnDfjy7T7L73ve3LUpuRU2Pq3Ztub8pyVwCUBisLU1e3Lk2TBLgAgpG1XKlY5/Aj79wYmYAQK2LoWYH1mVDVqEUibn8AvUE8geDWOu/Z/QwaAgFccW/1OrJx4Do6pq/d5VuaJuvMAwpG2vrUBAC2xNAzghh6NiDYS+eAovx1xjeQuYFiLdyu3QhAY5q3nhAHwHUu79apPYa7Z3tXL8myIXhROnOHxEHUb9q7dUqAc5PeVii04vgS4DQw+TJ/CdTHvRbFzAcUjEGiClSXroleSIgDMfQMwP/1lrUVC5dGqBBd0x2VeiTAtc4Xd5w/9kEAFXtF51k2BNR3xdOlWh96P73jw9TlftuLNQDVoQSqXDMPIBiDBsHdWVJviUFMiAEx9CxQOn7iVC6qAWD0A1nH3Ld+u6XgTrd39JMsG0Jd2F2Xvtj+paaea9Djpe6/1LTLXu2aetM1d60BrmJ6y4yUQB1eMD4pbQEGzolPUIgSKc6SBcovXOGGYGEPnHEOmu16/rw4f6Jb/XCPY3Vq0XnbW5NlQ6gLN+5ZgCoCxmpfd3x7ENX3aG96r1sucaCRGAegvmc8aw3WDqa27G4pgSpmHkAwXi1iQJXOgxvcxbnuVYgAidCzgDa2QYVt6BkYyBTcpWpjbuYAAKNzlN5Gh49Q74UBGkQ2prf4S6DK0rSAgvFrMWBZzvn86C+uj1FciAiJ0DOBOhPaAmCG1F4CBrKmQ42tRZndaLI+5dvNMwhdovMsG0JduPNhBagCQOu8pxgEInan1LX3xcfbYQ9oJB4CvhKotUIrcBPgwFICNSTBkWlN5DVgOKcCmI+xE0IESISeBezlS8IbQEczkNVz2/xJbrUtXGvTvm1T7N0z2+HA3eZVzLyBt8d73agZqGe7+1/akmjYeQMfDbCD6ZdLCdQQBEeo5a1tLBx7aYydECJCDD0DlCv8knAGhYwMZAR3mVpT81k2hLpwX09RS+jquSt13f3SpQHSmH75DimBOrzgiLXI/TJmGq+MsSNCRIihp5y/579fO53v49roioxgIPNnTvt6Ub/x4DcwAAst0XmWDaEu3PvR2vvjZbyzcn25sa7cV2il5Zh/nTk7GlozJl/qz2aXEqgBBZOhxRZA6pz4+iJEhRh6yvnJ//ri5dAlX5pyEBI0kIXhCUV/sm6WDaEuPPArtD9Kp8b9pre/9XfRWgJVlqYNI5gcLSLAKUa4j4UQF2LoaWf+hRk4w2S4J2wg63Idt+9mbAaqiHerUyCxZt6piA0DUMsMbcPbf93bAa51VzgHbiSvajvA2Zi6Zqe7NE1KoA4jmCwtZjiKz8fPs/hBypFfYNrRztnBi7KMdiBrmnFvStLybfPqZVW3bVvabX1VfYvXLBtCXbj3oyt8IVKL8L3HVL81bSDjVU0DO5iumbkjJVCHEEykVs5w8Niffu/MCDsjxIAYetqxC5el0cy7EdgeCECVAbt/rVBIqJmvCAG6CLCNpin37tPsO6QE6vCCCdVyM93P//bHZU/3lCOGnnKWS+r6wQeK5A5k9Rn3lqni1iVrHeuhL7O781VcJNTMO06z1xMHCf5Sp84Cu9PtDrlJcE6jAItSDK2lBGpIggnWIkCVgWn9iki6I8SGGHrKWTuJAf9+RzyQdchsbz3cVvGrg5n7Hwfg7gjnZNkQ6sLhvZ4AXQJ0tfkh93fglkBd9XIpgRqCYPK12AbYOi/cvghxI4aean77UqjiABnuCRjIoupqQUfjM51IrZmjvg+7H73caNfNZ9AAGKu2zLjXzFVVSqAGF0yHFhHYKr08vL4Io0C2fk0xfM9/bcWxAvobZJMxkHG3H2pG49tutD72su/xVgjuMrWo8rNaSaiZd+pW80wG1Y+1FV8pAXoKoEm4ae7MWP0Kv5k/BblmHkgwPVqsQTljUzh9EUaFROhpRlXPheonwz05A1nolqC5R3nUkEmomQ8LUS1Kd0ugrr5uO8z1PjNnC2LmAwumTIvcUqrASSE0JowIMfQ0Yy32keGe/IGs0yuaostuL2LPzNXAkoOTUDPvlQDnLv2jeiTuBd+Ndea1XeE0oEoMZ6mCVdfMemZuuevMxcyDCKZQy02o4Ad+5vqQGhRGgBh6mtF8Q+8/6GQPZPXcOG6YUGsSXG071/ZtXtmdBY4jOk+oma/46h6rBPzNs2awKmPNK2aRO/lEwLHda+b1NW1hI2aePC0CVAnIq6tCbFSIGTH0NKPU+u5/0ykdyPpKB/BMvOyZepSk1MyB5lzJrnmTrAGngPW37MTEphMBZbslUNmBmPnAginXcgBdOT+ChoWYEENPLZ86TzvdMtyTN5DVI2uNRmheL49KjR3hVtoVrl6gG66hRxmdJ9TMW2cyWo/VptkbW7kCql58xbfO3GEoq4p1N9+EiTNPApTjVk1j2QEugGA2tOzS9ugaF6JGDD2l8Ff3bqGOW74mfCAbqoYMN9ooRRydJ9TMA9NhBzhiCxtumUX+zBMB2wLKj4mZBxPMhhYDMHF2dAJC1IihpxVtbyJdr0LikdGBrJYAV0Mh2mvnCTXzQRLg2naG882AaMXQjo11N80gf+ZJrplXnpBp9mCCmdJiuwwAp0cuJESCGHpasRYubw5R0zGQceutLdmtkzFxs5kVObrTTbCZ9/t483vZ8v5qBjslrH/VDs/Mq142uyTABRDMmBYBugx+4KeujkFMiAAx9LSiscOdHgXSYuZAP5bR2nbLzw6ASkTReULNPIx23QJ0GnCK2HDLrsY0u6wzDyqYQS0CwQLyfGFMgkLIyE5xaUWrE91s7+QOZB2XSHmRY/3x1uVUvmNtgzShEZ2H7T8JNfMgO8Bp7TvmbfCmFQN2Betv2Y38Jv80u0TmAQQzqgUAClDLl8csKoSEROiphE+DKk7Ftnd5QzeaVv0GVT+pDloO3BKpY2LmoTWvNWCXsO6WncjXl6bJOvOAghnV8mkqZ9sIhIUQEENPIfzVm69UTjUfXzUSIK7BhTqVYnMfAJYjSGtPpZlT/daeg9DhmrldwvpbdmFik39pmiTABRDMqJZfVgPgU0cjLgyLTLmnEbY3mWzHKTj0y5t2KuPm4/5pePcH33Nr2AyEfak3oWa+8jR7+/3aNDvgjckAWDFYWVh/842+a+ayNC2gYEa1WiFoVV4F4CwAz4ywI0IAJEJPI+XjV7rzz7FUJBm+Cep4t38tAlAIeao9oWYelLb9hVgDbGHdq2Z8Zv6EmHkwwYxqdUFXTT7w03IdPYVIhJ5GKLc1uuuffgYYXLjjXV9k3jkRrv6z9gzbF83Xk9+qDIR5ugk1896ROXXcj11rcqul1XbgA6A1A04V62+e9S1Ne0qumQcTzKhWdwyyAVKywUwKkQg9jbA61R3BIxUZvgW/Mbe03HylnOv/tI3XDDezPeNmvuKrW6bZOxWxca+Za7BVxPqbd7aYuSxNCyCYUa1eEAAF2EtSpCWFiKGnjqdOgF1Y173aRhiEPLj07GqzVttpWV50HgYpNfN6K91M3bu5m8aUseGHd/um2Z8UMw8mmFGtPnD3t5AyqilEptxTBt/z8xc5R631uej2PR3+VS2ROaMlmtSN+/BPxQNN9xkAhRWdJ9TM+11nrn3vWWsCHMNdZ85OGetv2eWtM68tTZNs9gCCGdXqE1YA1Mmj7oYwOBKhpw1d3Zgzoppuj2hw6dhs54vu9bG7du3cCUM/mWY+CD0nZJgBp4QNt+z0lqZJCdQhBDOqNQgEqNIJwG9sGnVPhMEQQ08blaUXIZIlaxEOLm2e0kPLt69MKNF5Qs185QS4FdaZ14utMNhexrpXeQlwypYSqMEFM6o1OErZ03zg4Dmj7ocwGGLoaYOMbWirsjYsAQeX9uy2lsO1Sl/UbECt137914Nrkw8ldquqDUNCzbz+rC6m3inZTWtf0ZpazXjN0E4Za2/ahYmzT5ESqMMJZlQrGKahAMM5d9T9EAZDDD1taHUqdJgRevSDi++Kb39PZgxfHjXhZj4o7evMGVAFrL9xBhNnb5QSqMMJZlQrKASwDVQXrx11T4TBkKS4dLEKduFkUFjfw4YfXLjtDuqJbvASttwo3J8h174mvYkyu5F6UF9KqJkPUmilRud15gCsRXcHuLM3yjrz4QQzqjUkbANkSBnVlCEReorge3/4LNtRZ4TUWjwt+M28j9cwY7h15wk184Fa8l+CQOOLT31vdmsB6+pmLiVQhxDMqFYIsAZgnzDqbgiDIYaeJlTllHwoGe7xDmT+6eKelkMAlTh491Js5u718c7Xz5sLrbiRefM0u5h5AMGMaoUFQdmVswDeOOqeCP0jhp4mrKXLwcMmxIUwuPRKhGsyIe5oTP5kuubtXxE8Ok+ombdG2+3HaxntPRLgtDvNrq1FrL3pRkyctRFwpATqEIIZ1QoXk/RqfvgtsnQtRYihpwpjK3QFQ8xHh9mZvrX6UiW4Zh5IKplmDqywfrxvGQashUZkXl+aJglwAQQzqhUFNsDVc0fdC6F/xNDThNZnQFkBXxziNV5/a03N1iJLbo++vXXV4M5FRqAQLLM9oWbeKTJvnqkYYJ25U8Q6/zS7LE0LKphRraiwgWrxZaPuhdA/kuWeHnJwls8OluEe0eDCvn9rme3g2n+dn1e7639C0Og8oWbedytthu9NvevGE7RTxvqbZmVp2vCCGdWKCgJUFZjIvWLUPRH6RyL0lMD/5/UnVi2cP/hgkYCBbCXvseFu8zqIR6XYzJnbT7RtCR8z2FnG+ptq68yrXqEVuWYeQDCjWlGjAVU5ZdS9EPpHDD0tVJdPmjQHXZwd4uDiT2brdLhLAlyvW52iHqyrCTXzfqbZa9nsupbopslNgtPk/qzcm6osYu2Nu3yRuSxNCyiYUa0YIMCqli747L28ftRdEfpDDD0tVOY3Q5fR/4Ae/eDSuI6+ghZ3vOtiMzCITyXUzLvRd1Jc/YoFA/Yi1t8iS9NCEMyoVhy430In8rTqTZveJuvRU4IYemowZvo39BEN0m3TxrU7jT639X6QdecpM3Og0eX+15kvYN3Nu2Vp2vCCGdWKg9r5EAAbsMsXj7I3Qv+IoacFrTdB95PhHs3g0jTj3vSDl62tOxiUl9XedbreZqDfZfUJNvPB15n7pt9r68wVQ1cXsfamm1wzl6VpwwhmVCsOWs5HVwFV3j6avgiDIoaeFpzChSsP7CMcpHt1rctjVOgzES7BZr4SfU25MwPOcmOa3ZESqEMIZlQrDlrPhwBdAUy6aCTdEQZGDD0F8PEPT1Sq6oreA0hEg0unyJq5sRKNG89rnU72r0VvSxiz2M1uX1E/mWbebwJcI/mtkQCnNdWT37QCtF1uSYCTdeYBBTOqFQfdzocBVTkz1q4IgRFDTwOPPbB+KoceY8hoBuk2A0eLwbXd8f3cT3SeUDMPT4bBqoh1TUvTnpBp9mCCGdWKg17nQ1haLm0BWPYsSQFi6Glg6fAV0CV03lQmwYN0t6dXGXBC1gqN4XW7rTP3rzVndqumrb9ph8/MpQRqQMGMasXBSufDWLc2R/zku0+KpTvCUMi3rjRg6xmoUocHoh9c6grar0X1B9sicwbgN7TW6XoAtFIBloSaebdu+TPZaz83z140doBjAKwZ2lrC+ptvknXmwwtmVCsO+jkf7zr64vOXAjgSdY+E4ZAIPQ2wOgu6NR08hYM0AVRhd9/2qLUGJjzdnolwzICziPU375Z15sMLZlQrDgY4H10FjMoro+uLEBYSoacBe/mSkZg5o+cgzbX/dQvIO0Xvva6dJ9TMO3WrcaxRbEb7StVr7YvWveNaoVHPvL7OXBLgAgpmVCsOBjmfWqa7IWvRU4BE6CmgWNbXNv4IYxhcatd6/QlwLYfrWey+n9sy29EyzpfYrXneUTOZZh6oRX+T3DhYN/OmEqhi5gEEM6oVBwHOhwA4hStD74oQOmLoiYeN1ZNozqiKRTZkLUb38qgZMvPOMm42e9M0u5RADSqYUa04CHg+zCiWrZeE2xchCmTKPfF84kVQhQE2BR8e7rj2jHyPN/71Tz237QjHvpcWvei89TQSaua9p9k7J8B1mmZn7ZVAvVFKoIYgmFGtOBjufFZPEwBMwK28ICQUidATDt+9fyucIqIZ/DsJ9vGH32myoNfLFIByh+g8oWYengy7O8DdNIOJc6QE6pCCGdWKg2HPhwBdxRfe+slrQumOEBli6EnHqZ4LXUEshh7CIN3WAsE189Zr5yk281qhlcbPzTkE7jF3nfm6m6QEagiCGdWKg5DORxfx2nf/p2S6JxyZck869uKlsZi57vyH78vpahzrMOXeaQtYAO4GMq3XzhNq5oOuM/dv8wqg4zrzfNM0u0TmAQQzqhUHYZ2PG6GD9dkhNShEhEToCadS1TsiH2iiHKRby6Mm1MwHYeV15gtuApyUQB1WMKNacRDy+RABTkES4xKOROgJZyqHPKKapQX6GKQJAHceH2pTzN361nrtPKFm3u8685US4LSCu53rLa0lUCWbPYBgRrXiIILzYYbl6FeE37AQJhKhJ5qPXQRVjC7Dvcs687ZsdVDbenN3nblbC72p5nnjJUDRd+E8oWYengyDnYJr5lICdVjBjGrFQXTnM2EqAJiKTEAYGjH0BMN33/NyOCVEYghRD9I2gFouX4rNfKXla7VvOqxKWP+qWSmBOrxgRrXiIMrzIUCXwHf/qWwwk2DE0JOMss6JJMO9dZ15yzjgD9DbE8BWuNWC8lp0nlAzb8pM73CsVs+ceaV65gxllbB29w4pgTq8YEa14iCG8+EKsOmbsnQtwYihJxlr4bLQPSHqQZrgRudVYHSDZrS69V8JM9hewPpXSQnUEAQzqhUHcZwPAWwB7Jwfg5gQEEmKSzQ0607bmuE0F2SQriW9dUuKa4UAFHSXB+MgogQ4cmcfamvNtQJgL2KdlEANQzCjWnEQ83tnL0piXIIRQ08ySp3QM4t8ELoM0tx2B02C/oIrjYPd653DYvcW3061PgY3826Pd1pfj/p7wWB7qVE1TdaZDyOYUa04iPlzwRow6EXxiQqDIlPuieV7Zyq7mA8lwz2uQZoALOlEmnk/+N/qrqfADNi+deaqVgJVzDyAYEa14mBEnwttT0Ey3ROLGHpC4a++5yUURkJcn4P0UIlwNYkKuzvDxU5/CXCdjvkT4BrJb4DqkACnFENVl7D2ppukBOrwghnVioNRfS4IjlUy+Vu/9OL4OiAMghh6UlH2GQbs4dqIc5Bmdq+dxx6dx3SOzIAqSQnUcAQzqhUH3c6HAarddICb91p/+x0+FznDAtYtXBrJqQlDI9fQk0r1+IvcrdYCmkWcgzSxuyNcVCu1uhJeAlztX/9+7bXcAa1dM3ghelIAACAASURBVF934w4pgTq8YEa1osZnuDUDhgaYwCoHxSa0zoHZhGYTjjawUJzsecWOGdiwqoqcqUGkQNAwTQsGaRiGAxgagOHmzLC3iRRswCldEMspCwMjhp5YcluhbQSaRFlhkG7bGAVAUyJcpw3eOiXCsfc/RnsBlsgZxsy7JcD5TN5Xz5ytZay/eZcsTRteMKNaIdNk3O7SCsuahOWsRtmaxpHFVTheWIXF0hoslPJYKJtYqphYrORQdQwUrBwMAsw+Pp7K+9I6nVeYyCmcvMrG6kmNE6YUNqyysX51ASesLuHUdSVMT5QxNVlGPre0JfL3QAjESNKXhJXhf3np8yg+egpowO9cfQzSnQydfR8FrRoP67qxtRs+s2fiJQaW4jT0Ac/R/yqfedeon6MvQtcagHZLoK59lX9p2pOQpWmBBDOqFQJN0+QKlfIqFMon4MjiGjx5bD2eX1qDQ0s5HCvmUazmkTMYBgEG1f51EzoJ7t9g0E9mbTtnZrf4ovsn4OaW2JqwasLBqWssnHGi4RSmXvpXv/D2N30DwHeJ6EkA86G9H0JgxNATyYGT+AuvfgrW86sHitD7TYDrEp3WaDb05ilooGbo3g8awHHdXu88MsKbZu9aaIW898BawLqbb2yZZpfIPIBgRrWGgDRgKIAUCsW1OLa0EY8cXo8nj27AwaVJPF/Ig5mQNwDDYJgEEPFIB2w3Ydb9G8p5W2M4joPJycmFDRs2PH3BBRfc/aM/+qP3EtG3ADw/wq6OLWLoCYS/etNWdezAv5l6AX0b+gCDdCBD90/D+2unFxkoxBWdB4zMe0Tl7n1fPXN31IKuLrpmXq+a9phcMw8mmFGtAHgGDtY4+MIZeOzIqfjuMyfi2flpLFsmTIIXfbuRd9ogImitQUT2mjVrHp6dnb3zuuuu+yIR/ceo+zYupPBjk314/47XYeEH/wRVQF+/ogEH6eEMnRv3GcAxHdM4OvjsQ+OYLwLvFaFr75q5vYB1r5ISqCEIZlRrAAwFGA6gCE8cORvffup0/OeTJ6JQNQEQ8ibDJI6soOKoYfcz51x66aVfeOtb3/p3RHTnqPuUZTL6MUo3/OWrP4TCs78OXcWKv6IgkbnvJZrbI3DdFI37H+dGOwRgmd0IPfJP0bAJcO2GrnX7FxjWDG0XfVXTbKAiZh5QMKNafVCbTmfCk0dOx389fja++oOTACZM5rh+DXycIO8bi+M4OO+88+5817ve9UdEdPeIu5U5xuxjlQ74X7d8DcVHt604TgWNzAMZeuNF9evpR+O4cD7cNLt7v1OE3rierpX7IDslrG1bmibXzAMIZlSrB8TedDqwUFyP//v4edh/4BQslCYxndfIm6O9/p0kfOZeuf766//3j/zIj3yCiB4dcbcygXzGEgh/6WUPo/DIxT0z3AMM0sENnZuvoQNuVnvkS9XCS4Cr/duUxe4dVwqAU8C6m2ZblqZJNnsAwYxqdYEYMBzY1iQeO7IJ9/9gE/7z6fWYMIEJU49dJD4otevuJ5988v9917ve9Udr1qz5J3i1GoXBkY9b8ljLd1zyGCpHTumaEBdwkG4rOIJGBN4pScz9gdseh4J77XyEZg4MngDX0dCZoSoLWH/LTWLmwwtmVKsDpAHTRqGwAd9+8hz828On4dnFSUznGXkjAV80Ukoul3t+165df3XDDTd8iogOjro/aUMMPWHwPTdf5Rx9+Ls5fQwdDX2IQbqXoXe+vsz15Wh1QycACxoIYZv5Hj3t71lDGLo/Aa6+N7usMx9GMKNaLZAGTAvHFzbiPx49F/c8fArKdg5TOTc7XRgeL2q3N2/e/E9vectbPkxE3x91n9KCGHrC4P07dmLx8f1w5tFm6IMM0tz0T9PLu5ld/TWqUQC9dec0KAAvRBmdR5cAV19nDvdfXZnH2t27MXXhaV4C3ONyzTyYYEa1fBADZhXziyfjnu9fjPsfOwmONjBp6sxmqI8aIoJSChdeeOG//NzP/dytRPTIqPuUdOSjmDD4K1t+GYXnPglVQtOvZ9BBelBD918jVx1e4224ggXtXuGK5JMTTQJc2zpzMFRpAWt3eWYuS9OGEcyolgcxYFooldbgy9++Cvc/diKYCRNmdpeaJY2asV9wwQVfeuc73/kOIjo86j4lFflIJgy+89p/RuGR13RcLD5QQ03/NDXTM0Jnbt7m1T9Nb8PdFW4EZs7sbm/Z+ra4x8h9ObVOr7v329aZWwtYM7sbUxedBjhi5kMIZlTLw7ShbAN3PfBifOl7pyNvABM5yVYfFTVjf/GLX/xXb3rTm94JwBp1n5KGfDYTBv/rNd/A8sPX1jPch0yAa6qG6P3beQ22b5q9Q3EWBkDz2v0TCv1TE34CXNd15lYBa2d3uGZuW940u+wAF0Awo1rw1pAzvv3Exbj9/gtAbGAqr2WwTAhEBNu28fa3v/3dmzdv/oNR9ydJyGc0WUzyP1/6A1QPn+2WLRw+Aa5/Q/c9r9XQCe40+3wU0XlUCXDt68y1VcCamR2Yuvg0WWc+nGA2tYgBsvHssU34h29egseOrcGaCSVT6wmFiJDL5Q596EMf+gki+vdR9ycJyEc1QfC/v/Ys69CDT0+oQwAHKZvafrfT9eWmJWrKe3Zt2rrl8dpUNo5rt955qISXAFdDKQJR8zpzrQCuzmPNTm+aXZamDSOYTS3TRrm8Gvu/dznmDmzElLejm5B8mBmXXnrpP771rW/9RSI6Our+jBKph54krOIpE4aKwDhb4A4/9Bq7quxePw/V+8IbLFs9rZYPUEuA0xUvAa4+zS5mHlAwe1peVP79py7CP37rAsyX8lgzEVvpQCEEiAg/+MEPfuJ973vfqyqVyq9OTU19ZtR9GhUSoScI/so1e1A49Hdw+izK0tZA+92OEbpqPFjf0bVXhH5cu8vVQiOcafYVC60wwBV/ZC7T7EMIZk/LcGBZE/jcN67GN588AavzspY8C2zatOmeX/7lX349gLGL1gPM6wqRwbkd0GUENRv23Rp3yL0xeVnentFp9iJZ7zFuNkZ4L+UqhzxjsPI0e1s/mo5T29I0ral+vHaOWgO67Jn5hV42u6wzDyqYPa1cBY8cPBsf+OJ2/PfTJ2DthBYzzwgHDx6cefe73/00M79+1H2JGzH0JKH5NOgYVmL0awgMUKi1zuMaMBlcmW9Ms9fXmUs2ewDBbGmRBqiKf/3WtfjEXVfCckxM5mSKPUswM4ho6j3vec/nbr/99n8cdX/iRKbckwPxHZcdQPm5Swb+ntVlzTnBLb5SW7+tFUBgaH8Jc01uJO5F7uTdBwEos1uEJZRPycqRead15vBW0zH7kt1qXfcvUfMnwNmLWDO707cDnKwzDyiYLS3TxmJhAz5119U4vDSFVXkx8qxDRCCiFz7ykY9cR0Q/GHV/okYi9ITA33rzmqrFlww8sPV4etN1dHbvMHd4iW+Ku2m5W2jRefBr5mgx+Oabb5rdu4ygrWWs2T6DqQtP960zFzMPIJghLQYMCweePh/vv+M6HC9OipmPCcwMZj7p3e9+98Pz8/M/Per+RI0YelIoLZwwmYtyYFuhbWq5X+Z6YZZIdftpgdvN2L/3fO0AWwtYO3MDpi7ZBNgVr9CKXDMPIJgdLa9O+f7vvBR/+NXLMGlAlqONGcwMwzDwoQ996H9//vOf//So+xMlYuhJoXL0CugSgvxK2hLhfMlw9e1OdSOyrSXC+ZPhWiPhcKLzwRPgOkbg7CW5aXd6XWsCa3J/Vu4xVVrA6plZz8xladoQgtnRMhRsx8Bf/9t1uOM7Z2L9pBRSGWeICN/61rfe8fGPf/x+AOtG3Z8oEENPCpzb4RZkGfBlKz6h0xx7Dwig4oCv6Sw8bAO9qQ/MDK4cx9qds5i6eJOUQB1OMDtahoPFwlp8ct9W/PczJ2DtZKjrLoUUc/To0eve+973PsLM54+6L2EjG8skBe2c4Wa4m0M3VR8qvWvmrclmvfsBoDRsdB7ONHun+jRt0XxlAWt37sTUxWd4S9OekGn2YILZ0TItPHv0DPzFvVehUM1hSrLYBR/s/m1t/LVf+7VHmfk6IvrmqPsUFhKhJwW7cNFAJtR6Ddl/yEsQazVBX25c263e1rIecrxd4cUdptlrfey+zrwlAa421V6ax5rZWUxddIavapqYeQDB7GiZFh597lz8/tyLUbJyyJtyvVxoh5lhmibdeuut3ygUCj8+6v6EhRh6QihV9cvCG+wCtqMAVDCEH/ahG4bXMgPVeazd5U2zSz3zYQSzo2VW8eBTF+Jj+69EjgimJL8JK0BE+MAHPvCPDzzwwDtG3ZcwEENPAvzQqlV5DDTeNQXo/kQ4ZjCoSxTu7RrX1oB3uDhMdB5OAlwj+a2RAKc1uRG5d1PVZTcBrnbNvPyYmHkwwexomVV886Er8Ym7L8P6SQ1Dkt+EPiEi/M3f/M2nv/a1r/3uqPsyLGLoCYD/8zdfDF0EaLgKa/WdWJqy3Ts8v8NxdjBEdB6XMTDYXsLame1uNrtjA9VnZJo9mGB2tMwKvvHQlfjM/efjxGklu2UJA0NEuPPOO99///33f2DUfRkGMfQkML+wFU5xyEaGGDQJoFLQ6DycBLj2Y81N1xPg/GZeeQZBl/r10asI2uwmJWYeGLOCbz58FW73zFwQgkJEuOOOO377vvvu+51R9yUoYuhJQFvnQPcRHneJvBncNdnN/5KO0/AAYAEIVBMmnGn2FdeZewlw9XXmdTMvQsx8YMHsaJlVfOOhF+Gv/895YuZCKBARvvjFL/7Wvffe+8FR9yUIYuhJwF7YHPRXwWEMmsUgy3qC6fa9sUfTOnMvAe6STYDjAJWnxcyDCWZHK1fFdx+/DJ/95rlYOynL0oTwICJ8+ctf/s3vfve7vzbqvgyKGHoCKJR42yADIHe41xyKo725DtPaANzovIoBo/Pgg3VrPfPWmuatN11ewNr60jTlbhoj0+xBBLOjlaviwScvxmfuuwBr8lqumQuhQ0T427/9298/cODA20bdl0EQQ08Aayb72/mlObPdP5/ubfPaOtVee4xXyGwP2czDWGfOit115jtmMXnRJkBpd9MYXYaY+cCC2dEybTx9+Cx8+usXY9Jk2cpViAwiwu23334bM8+Oui/9IoY+cj66efAM98agGXg8IwAWu9F5AN3Asv10mBlsLTam2ZXjVk0TMw8imB0tQ+HYwon447uvwoRBsjRNiBwiwq233noXM1816r70gxj6iOG77vkhOAX0tObm0LzpUKdkN/R4rCl7fIkH+ASEkwDX3zrzAlZv3+GuM3dst9CKrkDMfGDB7GiRRqU6hT+5+2poNmBQ3O+lMK4QEd7znvf8OzNvHHVfVkIMfdRo61w4JXQ1dO76Q5cjfQytBKDCgNNPB/tqMSS8yHzmBlmaNrxghrQYgMJf3LMFC+W8lD8VYoeI1v3e7/3eXQDyo+5LL8TQR409f3nP6XZftjc63K09ockv+nH5Ze5zvn74wbO10Ip7rHm2gBng8gLWzs7I0rThBbOlZVbx//3HFjxydA0mZG92YQQwM5aXl6+67bbbPjfqvvRCDH3UaGOHW+KsM67neYvT/NPltWQ3L4msrehJveY5msdcArjM7r7tKzL4NHvz8cY689a15rUEOO0rtLJ6h7edqyxNG0YwW1q5Kv7rkStw90MbsSovy9OE0cHMeOSRR370/vvvf++o+9INMfRRo9Ta3uNiyIMme/XOV4zOw9PtnQjHQGUea3fVSqA63jVzmWYPIJgtLUPh4NEz8NlvnIe1E2LmQjK44447PsLM/397Zx4nV1Wm/+e9t/altyTdWUkChOwJCUYIIewkJCAKKqLOiDPqoM7oEEUGFUWWAGKIu6PIKPPDyciMgCMICWoUDLIZkpCQTpAle3c66a7urq793vv+/rhVneot3V3Lrapb7/fzqaS7qvo853ZXnafOOe973rNL3Y/BEEMvKdumGdrJItx50HFzwOp6VqoaMDAwrc99I5qdj2xmPth9J2blg58A1zcAjqBHOuG/9FJ4ZkzISk0TM89B0F5axEilnPjpswvgVEjS04SygYjwxS9+8TmUoX+WXYeqCf79LUvIGOLM1bRDZz/Su3reL2J9sO3z/oe2ADBX9nuGm50XfrAe1NuYwYmOrBKoRjo1TaLZcxC0nxal8Mu/vAvtEZeUQRXKDofD4Vq3bt1fSt2P/oihlxI9OYmMwRLBeZCv8oRgzs5PunJZALXhmmCYZp7qNk+A690zf0fMPDdB+2mpSfz1zTl4/p16eByy1C6UH8yMo0ePnv3cc899udR9yUYMvZQkOxeYg2T/eXjf2XifE+H6n6jWZ7ZOGDIYTgcQPdnsfPQBcIPmmQ+7zA7o8TD8F2ZHs++XQ2NyE7SfFhno6BqLX748TfbNhbLn17/+9d3MPL/U/cgghl5SlEvMQuQZijRoEkwzH3J8LO5gfeIzBIMTIQQvlRKoBRC0oZb56XDDC/OgG4rsmwtlj8PhwNq1a39Z6n5kEEMvJbpRZ+acAYUcNAe0dNLZee4BcOb58X0D4Mz/BzsVDtCjnQj0LrNLnnkegvbUUjW88MZsvN4ahFPyzYUKgJnR1dU1Z8uWLXeUui+AGHoJ2dkEI+wxI9yHHrz6rLjzELd+jw/ISY8MHi0/EjMf6eP9A/A4q+PmoTEhBC+TPPMCCNpTiwx0dtfjFy9PQ0CW2oUK4/HHH/9aOSy9i6GXCP79TQv1VNI13POGXXYc7vEhZ+cWLqNm8sylBGq+gjbVAuCI4eHnF8Kl5FFwSBBKhKqquOeee35R6n6IoZcKI9WkcqrPXQMKqDDMfe9MMFwmEC47GM44SSAcwUxTG0Duy+z9T4AbNgAu0pk+AW6ilEDNT9CmWgBUDa+/Mxu7WmSpXahMmBmhUGjB4cOH/6WU/RBDLxWJzkVmdZQizkc0mKlqfSQsGjD7l0DtTU0TM89B0KZaAIiRTDrw4J/PQI17ROcRC0LZsm7duu8D8JdKXwy9ZNAycHLYZ+U8vBKAsDEqMx9NAFzf2XpmteDEzUiGEbj44n4lUMXMcxC0qVYaJYnfvbYQuqFKVLtQ8TidTvz4xz/+j1Lpi6GXCjaaYAw9IzlpMBwABqVvgwfKIQkgjsGrtQ2mN8jDQwW9DTRz6rMNYCQ6EbhIUtMKIGhTrTRkoL2zEc80N8EtB8gINoCZ8eabb36ImeeUQl8MvSRMrUOqp/akZVPT5DRpIQA9RtZf14LBmkwdjocQvPQSKYGav6BNtbKgFH67fRYIEggn2AdFUXD33Xc/XBLtUohWO/z72WdomlY39BNO3Dgd7DbieucEIMHmDH3IJ2f92CiW2bPzzM1bOvjNAFjvn2cuqWl5CNpUKwtFx76jU/HKgVoJhBNsBTOjs7NzMTNfYbW2GHopMJJNDtKRmZf0j2wfrJb4gNxy7nfLprcAS34D5UmrtmU3zwwjHkLwskxqmiapabkL2lSrvzRj42unwkEyOxfsye23377eak0x9FKQ6Jx70oA4GvTL4Z5qfhNnIAUUYrDODlIaOmCJwfFO89CYPiVQJQAuB0GbavVD0bGvbTJ2HJY0NcG+RCKRM5j5I1ZqiqGXBPVCGAn0t+tMgJuZe44+s3IzGC4dCJeVc94nEK63POrIltmHLbSSfWyrPkSeeawrnWcuJVDzFLSp1mDyjKd3nAqvU8xcsDdf//rXv2mlnhh6KWCjCUZq+OeNhszsXCvSIDnISXOc6kbwkkukBGr+gjbVGoT07Hzb4Ro4pM65YHPi8fhkZr7WKj0xdOvxIxVuykS4F8w7DACR/nnnfck9z7zvKXWGARjx7n6paZJnnqOgTbWGwsCT20+T89qFqmHt2rVfs0pLDN1iePPlE1MpfcLghVYyNcXTdcXTtz5L6unl+AHHxMYM89z2XPs16PJ7f3NP3+IhBC65WPLM8xe0qdYQkIGWjvHYcTgos3Ohaujs7JzHzJdboSWGbjW61ujMGswGDTYbbVCcwWZFtYKHC2f1M/29mWcuJVALIGhTrZOgprDpNZmdC9UFEeG73/3ul63QEkO3mnhoNjiOPsVU+qWsoU8RlqGWwjM3NvfOhxgjRxoAd9JCK+l8894885mSZ56noE21TgIxusM1eP7teolsF6qOgwcPns/Mc4utI4ZuNYrjEugxnGw63SfV+2RjH7P5eFFm51kd6c0zv1RKoOYvaFOtYVBSeOFvZ8DrLHVHBMF6VFXFI488cnOxdcTQrcYwmphHHuE+ZP43myZOUR7xuN13Ad28DT7rz7oZgBFL55n3pqa9IwFwuQnaVGt4WCc8tWs83KostwvVBzPjxRdf/HsArmLqiKFbiwOpnmkE5US588EiyTlrFb7fcrxpsuknGBh0dj7YMrv5wNDGbRg0sB8GYCS6+h3nKmaeo6BNtUaAomHn/jOg6YpUVBOqFpfLRW+//faniqnhKGbjQl94y/vrE4d3TXf1myuPavjNGBEBCBdu4Cbq73EMToURvCS7BOoBMfPcBG2qNUIUDc/unQi3owz7Viboug5d12EYBgzDgKZpUBQFiqLA4XBAVVUoigIq4SciZu7tW6avzNzbT1VVe2/CQJgZP//5z/8VwA+LpSGGbiWJSINbMdKz7n7nuPf7OvN4n8IsWUbEOkDxvrPzwXyqbzAcDbjPMAhEZuBbxgvYADjRicAll0pqWv6CNtUaIWSgPTQObx73wyXBcH1gZiSTSei6jilTpmDq1KkYP348AoEAmpqa0N3djUgkgsOHD+PQoUPYt28fEokE3G63paap6zoSiQScTiemT5+OqVOnoqmpCcFgEIFAAO3t7QiHwzhy5AgOHDiAgwcPQlVVuFyukn4AKUcSicSMBx988PRPfvKTbxajfTF0K4l1zIM+yElqJxnneh/KNiICKJJeds/h/TLk4TJsKhqxTgRXSGpaAQRtqjUKFB07D04xPziKofcSj8fh9XpxySWXYMmSJWhsbBzWpLu6urBnzx48++yzePvttxEIBKAoxds1NQwD0WgUU6dOxfnnn4/Zs2ejrm5gkcipU6f2+Zljx47hpZdewgsvvIBIJAKPx1O0PlYazIwJEyZ8DsC/FqN9+fhkIfzUsh+hc89n2ND7zJY5HSfUd7aeNUM3uPdxAOYBMh0Dg4tONkPPpKZlZuOZ+w2DQMi6Lx6Cv8+e+X6ZmecmaFOtUUIp3PfkpTja7YYqh8nAMAx0d3dj5cqVWLlyJQKBQE5t7NixA//93/+NZDIJl6vwcVbJZBJutxvXXnstzjzzzJxWBMLhMDZv3oyNGzfC7/cX9cNHJaHremL9+vVF+ZQjM3Qr0bWJhpEA4Bh0mT0TDJddEpUNzlpyh/kRrOfE7Hyky+zZWoaRdZ+Rjq8zAI6FEFxxmVk1rTc1TfbMcxC0qdYoIQMtHRNxsNMNr+yfQ9M0EBFuvvlmnH766Tm3oygKFi1ahJkzZ+Lhhx/Gzp074fP5CtbPaDSKOXPm4Prrr4ff78+5nWAwiPe+971YuHAh1q9fD6fTKfvrAFRVdTPz+UT0XKHblo9MVqL1TKdR/MqZeeBwnQKQGBjZnh/pE+BWZJdAfVvMPDdBm2rlgKJh56FGkCwEQtM0+P1+3HbbbXmZeTY+nw833HADli5dip6enoK0GYlEcMEFF+Czn/1sXmaezbRp03DPPffA5XJB07SCtFnJEBE2bNjw8WK0LYZuEZz6oTMa5wXInm1npaNl7urNDzcGDtYMmGlqGG5mni6xerI88+zUtHh2nrkuJVBzF7SpVm4YmoqdB8fCWeVL7bquIxgM4uabb0ZNTU3B2//oRz+KZcuWIRaL5dVOLBbD2WefjQ9+8IMF6tkJ/H4/br31Vng8Huh6HkUnbAAzY8eOHR8qRtti6FaxbUut18G9Ee79c8V7I9+z9syzl94BACkGkidm50OZev/l/AHHvGZy3Q2GkQwjcHH2nvk+MfPcBG2qlSNkINQzDm93VPfeeSbV65/+6Z8QDAaLpvORj3wE06ZNy3kGrGkaJk2ahI997GMF7tkJ/H4/Pve5zyGVSplHVlcxhmH4mHlpodsVQ7eKriMLSY8iUzZ1KPq/0LOzPiiS+5tg4CEzDE52IXjxhVICNX9Bm2rlgaJjz5GxVb/cHovFcM0112DSpElF1SEiXH/99dB1fdRmycyIx+O44YYbitS7E0yYMAEf+MAHEI1Gi65VziiKgueee+6qgrdb6AaFIUjp5xt6dNAguN5bb1QcBszgkWRwMvO8E80ONgM/UWTlRKEVzhRa0c379Ggn/BdfInnm+QvaVCtPDKD5yNiqzj3XdR0TJkzAeeedZ4ne2LFjsWLFCiQSiVH9XDwex9VXX436+voi9awvy5Ytw9SpU6t66Z2Z8eyzz76v0O2KoVvHVDMHfeDhLgPuGGwMzLcAS+/PMjjecWLPXPLM8xG0qVaeECOeDGBvmxcqVVC/C0wikcDq1astPVzl4osvHpWhMzOcTqdlHzoAs1DJpZdeing8bplmOdLd3X0agMmFbFMM3SqSXWf0eWNnvuw/5R6MOAPJkz8lu7wqMEQgHGcVWpESqPkK2lSrAJCBIx31CCecVXt2e8YoFyxYYKmu1+vFhRdeiGRymAEjTSqVwvLly+H1eovcs77MmTMHDQ0NMIzqLdZDRM5C76OLoVtEOMpLjew655nANObepfIBQXDpb7mHwf0Gxv7L7Nn3DVZoxdABIxqCb9lFUgI1f0GbahUI0vF2W2NVL7enUiksXbq0JHnXS5YsGfEsPR6P48wzzyxyjwbi8Xgwe/bsql52JyI88MADVxSyTTF0a6CAC4OMzcMMeJQ+rz3v1zybJ8CddxF8C6aYm+tSNS1XQZtqFRBdxZ7WABxVHN2eSqUwe/bskmhPnz4dqdTwJZqZGTU1NRg/frwFvRrIwoULR73fbyeYGR0dHcsK2aYYuhV88Z7F0KPgL5BezQAAIABJREFUdF64Sb8T4NL/D1gmD/dNU8uemY88z7wbvmUXwXfmKWaeeUzMPEdBm2oVEGKkdA+aj/qrOl1N07SSGaWqqpg+ffqwy9mGYWDy5Mlwu90W9awvDQ0NcDiq+7DSY8eOTWXmqYVqTwzdAviyzedyqgcnAuKGMHP0uy/CZs3zododLs+cGUYiDN/SC+BdeIqkpuUnaFOtQsNo6ayBbqhVnbCmaRoaGhpKpj9hwoQRGfrYsWNLdsa61+uF2+2u6px0VVWdAAq2lCOGbgVGarppoqOofm5gyMh27r+hjrS/ZTfNAMc74Vt6jjkzl9S0fARtqlUEFB2HO8ZW9XI7YJplKc8t93q9wxolM5e8j8UoLFNJEBEee+yxiwrVXnWvd1hFsnMuWOk3M6fBZ+kM08Rj3HfWjhNGnh3N3ltohdM1zdP3cawDvmXnwb/oVElNy0/QplpFgoH9x2uq3tCFkVHt9dKZGa2trecUqj2ZoVtANMaXMPeNbDupL+kwDZ0w8rSfrOf1mvmZp6aj2SU1LUdBm2oVESbsbfPCUeUji6IoJU3JGkmwGRGVNMo8FotVdVBchtbW1mkAChLIUOVvO2twK4ba59S3bPrtg4MARE/snZ/IKx9hnnk0dMLMdUNS03IXtKlWMWHouhMHQz4oVXygDGAGpnV0dJRM/8iRI8MupyuKgvb29pJ98IjH40gmk1U/Sw+Hw6cw85hCtCWGXnQ+e7qhRcDpX3V/Y+fs+xiABiDGWfcPlmfeLwDOADidZ+49N23mhpRAzUPQplpFhhht3UGoMqrA4XDg+PHjJdFmZhw4cGDYYDdFUXDkyJERH0JTaDo7O0eUXmd3nE4nAJxaiLbkrVdkeNOb50KPYkTntmZm51lj/Mg+vDI40dl3Zh6TEqg5CtpUywJIR1tXAxxVPjsHzEF67969JdHet2/fiJ5HROjo6EBbW1txOzQEO3bsqPqgOMD8O7z44osFOd1HDL3YcGoy9HjWknlW7riBPmM66wD3zs6HLrRiZBda0Ql6rAees5eZAXC6LiVQcxe0qZYVMEAGOsI1MkMH4HK58Oyzz5ZE+7XXXhtxbrnH48HOnTuL3KOBJJNJ7Nmzp+rz0AFzReXw4cMFOSNY3nrFJhbK+uRFJ/7vP54TgB4e9TjPyS74zjknHc2upfPMZc88B0GballB+nqIsa/DXdUFWTIQEZLJJHbt2mWpLjNj48aNI575ulwuPPfcc5YHp7311ls4evRoyXLgy41QKCRL7hUBY3lvhPsg41yvb2kwi7DQ0Hnm2bnmZqGVEHxLl8K/+FRA1yTPPHdBm2pZQfb1GDjS5ZYZehq3240nn3zSUs0///nPcDgcIw40IyJEIhG8+OKLRe7ZCZgZmzZtgsfjsUyz3Dl06NAU5FdPE4AYevFhNLDBJwzZwIDT3xgAh4300bDUG/iWvdSeCYAzsgqteM85D/5Fp6VT0yTPPEdBm2pZQb/rIQOHu7wgmaEDMCPdDx06hK1bt1qiFw6H8dhjj43aKL1eLx599FFEIpEi9awvr776Kt544w1Zbs+ip6dnAoC8P+GIoReVP06OR8Mu0DC/5hQDWStew3245ngo69CYzDK7mHkOgjbVsoKB16Mn3Ehp1X3ka388Hg8eeeQRtLe3F11rw4YNIKJRp4EREVRVxUMPPVScjmXR0dGBDRs2wO/3F12rwggyc9656GLoRYQ3fXMxGXGwQQO8qjcwjgjcjd7CLScNgDMIeiQE79Ls1LR3ZJk9N0GbalnBINdDjM5oELIl2hdFUaBpGh544IGipoc99dRT2LlzZyYFatQ4nU7s3r0bTz/9dIF7doJEIoEf//jHYOaqzz3vTzqWYGLe7eTfFWFIjOREYg3mxvgQgXAJBvq9z4c8gCb7BDjDSFdNk2j2HARtqmUFQ10PI5bwQrHd9eaPw+FAa2srfvSjHxUl+OyPf/wjnnjiCfh8vrza8fv9+M1vfoNnnnmmQD07QSqVwr333otjx47JUvsgpD/g5F2eTwy9mMQ7F/ca+lBklUcdFDb/4WTXiWV2KYGaj6BNtazgJNdDjGjSN/KjiqsMt9uNffv2Ye3atQXL+9Y0DRs2bMAvf/lLBIPBgrQZDAbx+OOP4xe/+EXBDn1pb2/Hrbfeiq6urpxXEKqBvXv35m3o8lGpmLCylPUUAPMIRs78wwCYwHGGkTxx/4AcdaSj2eM98J1zbtbZ7FICNUdBm2pZwXDXw4gnfbJ/fhJcLhcikQi+/vWv47rrrsOyZctyNri3334bDz30EDo7O1FbW1vQfgaDQbz88st466238JGPfAQzZszIqZ1UKoUXXngBGzZsQCAQkJn5MLS2tk7Ntw35DRcTQ29kGMgYei+ZAmk9PGhF1ey7OB6CL7NnLqlp+QjaVMsKRnI9DF1XZYY+DKqqIhgM4le/+hWeeeYZrFq1CgsXLkRNTc2wP5tIJPDOO+/gz3/+M1555RXU1NQULfXL4/EgHA7j/vvvx6JFi7B8+XKceuqpI9Lr7u7Grl278PTTT6OjowPBYFD2zEeAqqp5H5snhl40bmvUkv8VACvmbJsAZILjCDAiDCO9omUYBKLMGe2AWQq1fwlUTVLTche0qZYVjPB6iHGsxwlFxu1hISL4fD4kk0k88sgj+NWvfoXZs2dj6tSpmDBhAhobG3sLq3R1daG1tRUHDhzAm2++iaNHj8Lr9aKurq7o/VQUBTU1Ndi7dy+2bduGcePGYebMmZg8eTLGjx+Purq63optx44dQ0tLCw4ePIhdu3ZB13V4PB6JZh8hzIxUKjUl33bE0IsEb3p5drRF8ykZ880+BM4AjB7zu+zqaZnleO4fANdbAlVm5jkI2lTLCkZ3PcYw4SBCXxRFgc/nAzPjjTfeQHNzMzRNg67r4PT7RFVVqKoKh8PRO7u3GofDgZqaGsRiMWzduhUvv/xybz+BE2lvmT66XC6ZkedAIX5nYujFQk9NVKEPHBLJPK8dOoYc/XrzzPuUQJU98xwEbaplBaO/Hsv/vDaBiOBwOOBwOEZ8BnspUBQFiqJIYFuRaGlpyXvZRQy9WMRD86Cn0svsZO6Lp2ffRjfDSKex9QmAMwhGrAO+ASVQJTUtB0GballBLtfDaAu7q74OuiDkSnt7e97RjWLoxYLV5TDMnNPekiwEcJSROdq93w+AE1mpaZqePjRGzDwHQZtqWUGO1yMrrIKQF6qq5j2YSB56sWCjkQ2t313m7LzP4JfZN090w7f03Cwz3y9mnpugTbWswG7XIwjVhRh6Ufh2HSe7xxGU9DI7g8HQwwxD73+cK6DHuuB597nwnZmJZpcAuBwFbaplBXa7HkGoPsTQiwD/btMpkZjW0GeI1AGOAKB+E/RYCL5zz+1XAlVS03IQtKmWFdjtegShOpE99GKgGxOcxGZeeeausDkjz3xvcDrP/NxMCVQx8zwEbaplBQW6HgZUCYgThJzRdV3qoZclsY454IQZBUfpvfP07BwYLM9cSqDmIWhTLSso5PUQxgSSZvaGIAijZtq0aUfzbUNm6EXBeSHrcWTW143uvo/25pkvzC6BKgFwOQjaVMsKinA94uUjwjAMGIbRezhL5vvMjfu9j1RVBRFBURSoqtr7f+Zrqw5xSaVSiEQiYObeQ2UyZPqXfcv0MdNP4eQEAoF4vm2IoRcFvQmcApEDrJnL7VDSM/V4CN5zssw8JnnmOQraVMsKinM9bpVt95vKB2YGM0PTNKRSqd7vx44di2nTpmHatGkYO3Ys/H4/AoEAfD4f/H5/77GvGXp6epBIJNDT04Oenh6Ew2Hs378f77zzDg4dOgTDMHpPa3M6nUUx+VQqhbPPPhtXXXUVDMNAIBDo87iu64hEIojFYgiHw4hEIjh+/DgOHz6MN954A+3t7SAiEBGcTiccDkfv94IJEQ2a0DwaxNALjxdaeDKRWRla60R65sLgZDe8S7OPc90nZp6boE21rKBI18OEMQENut1+XaPEMAzouo5kMgmXy4W6ujrMnDkTs2fPxrhx4zB+/PhRz1YDgQACgQDGjBnTe98555zT+3UoFEJ7ezvefPNN7N69Gy0tLYhGo72nuhXC4J1OJ7Zs2QKfz4errrpqwOOqqqKmpgY1NTVoamoa8Dgz48iRI+jo6MCePXvQ3NyMUCiEZDLZa/DVPItPr3Dsy7cdMfQCw7+/emzPodcnOQBwEuA4g4mARDe8Z/dPTZPjXHMQtKmWFRTzegiqkrLfr2wEGIaBVCoFTdMwbtw4zJgxA4sWLcL48ePR0NBQdP36+nrU19fj9NNPx+WXX45EIoHW1lbs2bMHr732GlpaWno/YORTwtTn82HTpk1oa2vD3/3d342q0hsRYdKkSZg0aRLmz58PAOjo6EBbWxu2b9+OPXv24NixY3A4HL0fQqoNp9OZyLcNMfRCo0fHuVUDhgJo3ekCLPEQvGefB+/C7Kppkmeeg6BNtayg2NdDcLuitvutDUVmKT0Wi2HSpEmYN28eFi9ejIkTJ5b8rHO3242pU6di6tSpWLlyJTo6OtDc3Izt27ejubkZiqLA5XLlZJp+vx87duxALBbDpz71qbzKtzY0NKChoQGzZs2CpmlobW3F9u3bsW3bNrS0tMDlcsHpdFbNsvy4ceMO5dtGdfymLIQff/f1WvjIQ6nuHqTaACPWCfe7z4P3zFMlNS0/QZtqWYEF10MGDnc04K4nliLoznsrsGxhZiQSCTAzzjrrLCxfvhxTpkyBy5V3KWtLaG9vx8svv4wXXngBx48fh9frHbBnPxLi8ThmzJiBT3/60wX/AJNKpbB//3689NJLePHFF0FEcLvdtjf2++67bzkRbcmnDXv/hkoA/+bch7SOPdfHjxjQQ51wn30ePAtOBfTMca4yM89B0KZaVmDR9RCjK+LCzf97KWo99jT0eNwMQl6xYgWWLl3aZ0+70kgkEnj99dfxu9/9Du+88w4CgcCoZ+zRaBRLly7FRz/60SL1Euju7saWLVuwceNGALC1sd93332nEtE7+bQhS+6FxtAn6NEk9FAP3OecB898KYGap6BNtazAytcFUOPtsWVQXCqVQiwWw5VXXokLLrigJDXJC43b7cbixYuxaNEi7N69Gxs2bEBXVxd8Pt+I2/D5fNiyZQumTJmC888/vyj9rKmpwerVq3HRRRdh8+bN+O1vfwu3213ybY1Co2kaALTn2071RR4UG617qt7WA8/ZaTPvLYEqZp6DoE21rMDi1wUD5Ewh4E7Zpi46M6OrqwszZszAPffcgyuvvNIWZp4NEWHu3LlYu3YtrrnmGrS1tQ3IMT8ZwWAQDz/8MNra2orYS8Dr9eKKK67A3XffjVmzZqGrq2tAvn4lo6pqBxEl826nEJ0RTPjZDwVbd+y73zdzLtyLTjdn5pJnnqugTbWsoESvC0XHzgOnIBx3Q6nwVdFMXvWnPvUpvPe974XX6y11l4rO9OnTceGFF2L37t3o7OwccUS8y+VCc3Nz0Wbp2Xg8HrzrXe/CKaecgldeeaX3QJtKp66u7q3Nmzd/P992Kv83UU7s3tfoGDcF0ZomRI/GwNGDAIuZ5yBoUy0rKOHrghVMrk1U/LJ7MplEIBDA2rVrcdZZZ5W6O5ZSV1eHW265BcuXL0ckEhnRz6iqioMHD2Lnzp1F7t0JFi5ciDvvvBPBYBDJZN4T25JzyimnHChEO2LohWTa2Ik0YYxOrCPRdhCd+0NIZI59LeiMRcy88rSsoNSvC8IpDXHoRuVOz5PJJKZOnYpbbrnFkhzycoSI8MEPfhBXXnnliE3d7/fj//7v/4rcs77U1tbia1/7GiZMmFDRpk5ECAaDbxSiLTH0AkKrfvvnse9+vKnO1fNjTYuAoCBy3EDXYR2pKJumnvdYV+pBu6iCNtWygjJ4XbCK+kBXxc7QNU3D+PHjccMNN1TFEvtwrFq1CqtWrUI0Gh32uaqqoqWlBYcO5Z1KPSpUVcWaNWswbty4TGBZRXLmmWfuKEQ7YuiFZhy10yV/+My4OucZdQH1SVIAQ2OEW3WEW3ToCc7D1Mtg0C6eoE21rKBMXhdMGFfTAa0CZ+jMDCLCxz/+8VFFetudK6+8EgsWLEAqlRr2uaqqYseOgvjSqHC5XPj0pz89aGGbSoCZMW3atILsV4ihFwm6bOvf6LKt76kPqMvrg+puRQW0BKP7iI7IMR2GjlEae5kM2sURtKmWFZTR64IJ44LdUBXDmv4UkFgshquuugrjx48vdVfKjg984APQdX1Ys3S5XNi2bZtFverLmDFj8KEPfWjEWwTlhK7rSQAHC9GWGHqRoRVbt9BlW+fW+dWPEhAlBUj2MLoOaYiF0gPfsMZeRoN24QVtqmUF5fa6IIAMTK2PQK+guuiGYaC2trZPwRPhBA0NDbjggguGnaUTEbq6uhAKhSzqWV/OOussNDY2wjAq6wNlbW3tQSLKOwcdEEO3DFqxdUP9Ndv9dX719qTOIALinQZC+zUke062v15ug3ZBBW2qZQVl+rogA3PGx6FV0JiaSqWwZMkSuN3uUnelbFm6dOmIDD0ajZZsluxyubBkyZIRbQ+UE5MmTXoDQEGOVxRDtxhasfUb46/dUVMXUB4xYHp4T5uOrkMatFh/Yy/TQbswgjbVsoJyfl0omNQQqqhId03TMHfu3FJ3o6yZOHEiFEUZdtmdmdHZ2WlRrwYyb948JBJ5Fy2zDCLCrFmzNheqPTH00hCmy169bkxQmVMXcLzAAFgDult09BzVoScZoHIetPMWtKmWFZT564IVTBlzDEm9cgxdVVXbnQBXDJqamoY1dEVRRhQVXyyCwWDFFMoBzO2eZcuWvVio9sTQSwiteLWZVvz13DG1jivqAurbpACpGKP7sIbIcQOcmcIXEzHzCqLMzRwAmDAm0IMaT7JijoAlorzqhFcLI92bLmXxFCKCqqoVE+1ORD1EVJAcdEAMvSygy/76FK3Yelp9QP0Xl4owEZDsNtB5UEO8c6SBczkgZl5BVICZAwAIqhrH3PFRaBUUGFcpBiDYi8bGxjcBFOwgfDH0MoJWbP1h4L2LJ9UFlPtTOoMARNsNdB0cLnAuB8TMK4hKMfM0CnBaYye0Clp2FwSrISJMmjTpz4VsUwy97PhZmFZsu6mx3tdU53f8WlEB1s3Aue4j6YNp8v2riZlXEBVm5gBgKJjRdAwJMXRBGBLDMPDhD3/4iUK2KYZeptCKF9to5dar62q98+sC6puqAugJRtchHT2turm/nstfT8y8gqhAMwcAKGgIhtAUjMOooGV3QbASVVVjRPRKIdsUQy9z6JIXd9HKV2fUBuj9PrcSIgVIRRihfRqi7aPcXxczryAq1cwBMMHtjpj76BWUjy4IVlJfX78DQEFz/MTQKwRasf0xz5XbGuqDjluJkFBUIJE+mCbRPQJjFzOvICrYzHvbVTFrYltFpa8JgpVcf/31vyp0m2LoFQat2Lq2/v0Pja8LqA9qhhk4Fzk2TEU3MfMKwgZmDgCs4NTGY3A7dNv9hQQhX5gZra2tvyl0u2LoFcmiTlrx6qfG1apn1AXUzQwGp4ao6CZmXkHYxMwBgBXU+NoxszFWUafGCYIVuFyulkWLFv2t0O2KoVcwtHLb32jFq5eMqVMvrQsoe4gALc7oPpyp6JZPqdZcEDPPHRuZeQaFMH9yZZ0aJwhWsGrVqv8sRrti6DaALtv2B1q5bXa9X/24qiBMCpAMm/nrRT2Ypg9i5rljQzMHAEPFrIlH4JJld0HohYhw4403iqELJ4cuf/U/a6/eUVsXUNZqhlnRLRoyT5xL9qTz14ti7GLmuWNTMwfMY2Brj2J6Q1yW3QUhDREd2bp1655itC2Gbj+YVmy7tfHand66gPprhQAY6YNpDunQEoVehhczzx0bm3nm2ljFstNbyv6QGTnLfXhGeka7opTOVlRVLZn2SCAifPzjH/9+sdqXV7F9idOKbVfz75fMha49FOrR36WnzP11p4/gH6tCcSBPTxEzz50qMHMAYAfOmPgOPI5TwQyUsG7HkDgcDjz//POoqamRM92HwOFwIB6PD2vqLpcLu3btQjQaHXExl0JBROjp6YGqqiUtEHMymBmzZ8/+UbHaL8+rFgoOP73oKij4XqhHn2reAbhrFXhrFZCKHPxFzDx3qsTMMzhiePhPF+HVg/VwquX5t0wmk9B1vdTdKGs8Hs+IjFLTNKRSKQt6NBBFUeB2u0uiPRxEhMbGxj/ddNNNFxVNo1gNC+UJP7PoCz1R43ZN5wAzAAXw1ivwBBXz1TCi8VbMPHeqzMwBQNHxdusUrHvmTARccnScUJ0QEb75zW++h4ieLJaG7KFXGbRi2/rAeM/kuqDynaSWVdHtsIZkZCQV3cTMc6cKzRwADBWnjn8LY/0JOdtdqFqI6HgxzRwQQ69K6JyXumjF9jVNder0Or/jCYMZrJmBc+GWdODcoK8MMfPcqVIzz0AOrJp3BHFNDF2oPogIq1at+mmxdcTQqxi6fPs+WvnqVWNr1HPqAmqzqgBagtF9REfP0XRFt97xV8w8d6rczAHAcOBdp+5GymDb/XUFYThSqRRfcMEFRYtuzyCGLoBWbn+JVm6bUxtQPqTpnFDSFd06D2iIhQwAVp44Z7fhXszcfCrB6UriirltSGoy7AjVAxFh/vz5vyKilmJryTtL6IVWbP+fxmt3euoCyq2awSAFiHXqZkW3sDGC/fV8ETPPXaqMzTyD4cTFc19HVCt8bwShXNF1Hf/wD/9wpxVaYujCAGjF9rWN1+701/mVXzBwoqLbIQ2p2EgC53JBzDx3qQowcwBgBQFvNy4947ic7y5UBUSE6dOnbySinVboiaELQxGlldv/fkyNOr8uqD4LAgwNCLfoCLfq0FOFXIYXM89dqkLMvPfHHbhk7htIGfb7qwtCfwzDwD//8z+vtUpPDF04KbRi+y5asf3ChqB6RX1A3UtKuqLbIR2R4zoMHXkau92GdTHzkzehYGxtG84/rR1JXYYfwb4QEcaNG/cyEW2xSlPeUcKIoJXbn6KV22fVB5QbXA7qNCu6MboPa4h1pqdbozZ2MfPcpSrQzHubcuCiOW+C2bDdK0AQMhiGgZtvvnmNlZpi6MKooJU7Hgi897XGOr+6LqGZw3EslD6Ypmc0++t2G8rFzEfenILGuhacOz0kEe+CLSEiTJw48Y9E9BcrdeXdJORCilZu/9L4Bse4uoD6BACwDvQc09F1SDvJwTQZxMxzl6pwM+9t1olL5++BohjWX5IgFBlmxpo1az5jta4YupAztGL7cVqx/aqGAM2tC6g7lXTgXPdhM3Bu8P11u43eYua5Na1gbN1RXDqzDXHZSxdsBBHhtNNO+18i2mu5ttWCgn3hjWe+L6HxA9GEMQ5s+o+nToG3TgEpKIEhFRsx87wgRjzpxO3/dzFSugJFRiPBBui6jvXr1wcARKzWlo/GQsGgy7f/2nPljsb6oHKzoiKlqECiy0DnQQ2J7nSVLdsM2mLm+csQPJ4Irl60D7GUDEVC5UNEuPrqq29FCcwcEEMXigCt2PGtuqt3Ntb51Ad0ZhBnDqbRR1jRrdwRMy+Ylu7Cu09/DafUx6AbFf2iEAQ4HI4jy5cvtyzvvD9i6EKx6KTLt98wtladVRdQngTBrOjWaiDcYpiBcxU5fouZF1yLHPjYsh3oTMhwJFQuzIy1a9f+Yyn7IO8goajQih17aeWO9zTUOM6vCyrNigpoMUb4sIFIm2EGzlXMq1DMvChahooJYw9h9eyjiEsam1CBEBFmzpz5OBFtKmk/SikuVB+8ceHfd0X0HzPIlynP6qkleOsV89VYtnFzYuZF1SJGSlPw5UcvA9gBhcr2hSAIA1AUJfrNb35zMoBQSftRSnGh+qDLdzxc9/5d/jq/sjahMYiAeCcjtF9HIpzOXy+7j5li5kXXYoLTmcJnLtiNLll6FyoIZsa99977CZTYzAExdKFE0OU7bp3w4V2BOr/yiMEwA+faDHQd0KHFyylwTszcMi3DgdMmvIWVs44iJkvvQgWQzjl/koh+Weq+AGLoQmmJ0OU7rhtTS3PrguqL6D2YxkBPqwE9iRKbupi55VrswlWLX0VTICFR70LZQ0Rdn/nMZ/6u1P3IIO8YoWzgZxZcAUP5986IPoXT9V48Neb+OqmweH9dzLxkWoqGfUdPwf2/OxMeB8sgJZQlzIxvfetbq4no6VL3JYPM0IWygVa89lu6fPspdQH1Xz1u6lIUINHN6DqoI96Va0W3XBAzL6mW4cC08e/gfQsPISoHzghlCBHhvPPO+1E5mTkgM3ShfAnwpoV3tHXqa1wqYBiA6gS8DQpcgfQgXxRvEjMvDy0GSMNP/nAJmo8G4FIl6l0oD4gIPp9vzze+8Y3Zpe5Lf8TQhbKGn5k/Baz8oKNbv0oh09gdXoKvQYHDS4BRULVCNjaMlJj5sJCBSNyLO5+4AJouqWxCeaBpGr797W+PA3C81H3pjxi6UBHw0wvPAuHhrog+20gXfnH5CL6xKhQnCmDsYuZlqaVoOHR8Im5/8t2o9+iFbVsQRolhGFi3bt0KIvpdqfsyGLJBJVQEtGrHVrp8x5xaP13tVNGtEJCKMjr3a4gez7fwi5h52WoZDkxuPIBPLtuLzrha+PYFYYQQEa677rpby9XMATF0ocKgy3f+Onj1rtq6oPpVnVlXFLOiW2hfuqLbqPPXxczLXkvz4OyZO7BqTgsiSRmyhNJwxhlnbFiyZEnJCq+MBFlyFyqYNQ286Q/3He/SP+FQCYYOqC7AN0aF05d+aZ/UZ8TMK0fLDJL7jz9dhB2Ha+FxFDR4QhBOSn19/atf+cpXzip1P4ZDDF2oeHjTgllgfO94t36ZQyEYBuD0mYFzqpuG8Bsx84rTIh2JlBM//P35OBDySeS7UHSICB6P5/Add9wxF0BXqfszHGLogm3gTQsuA/D9zh50UqGVAAANC0lEQVRjJqcncK4gwVuvQnEgy3vEzCtWS9HRHanB+k3nojvugkMRUxeKAxGBmWP33XffLCI6UOr+jAQxdMF28MaFn+iJGd/RDA70VnSrU+CtVQCFrfMhMfPiaCkajnU14f5N70JKd0CVdDahwBARkskkf/vb315MRNtL3Z+RIoYu2BUXb1z4jWNd2pedDnMZXlEZvjEqXIGR7K/niZh5cbWUFFo6JuGu3y6B18FQZCQTCoiu67j//vuXE9GWUvdlNMjbQLA7Ad604KFQWH8/IX3inAvwj1OLcDBNGjFza7TUJA62TcFdTy1BjcsAyWgmFIC0mV9GRL8vdV9Gi7wFhKqAN8+fjSR+GeoxFgAApwPn/JmDaQrlU2Lm1mqpSRw+Pgl3PXU2Ag4xdSE/KtnMATF0ocrgjQuuZuD7nT36JMA0dk+tGTiXd0U3MXPrtQiAlsDuv03BT7a9Cy6VQNaW5RNsABFB0zTcf//9ZVU9bbSIoQtVCW+a/8WeKN+m6RxkBqAA3noFnhrFfFeM1hPEzK3VIsBIAbGQgXi3AacjgQPd0/HgzjPhchRyyUWwO0QEXde1devWXU1ET5a6P/kghi5UMd+r4U0P3nU0pH3O7TxxMI23QYXLP4rAOTFz67QIYB2IdRmId5oldUkBvC467nG8eTMuPb7n5lvXbiKiIFv+dxEqjbSZJ9atW7eciF4pdX/yRQxdqHp44/wpAP1He1i/TB1tRTcxc2u00qsm8W4DsZAB1k0jT6QY4+uVtbRqz50AEgDAzKd+5Stf+Yuu601i6sJQEBFUVe28++6730VEb5W6P4VADF0Q0vDG+UsA+s/OiD6bMxXd/AT/GBU0WEU3MfPia6XP5k/1MCLtOvQUoBCQ0hmNdep/w+Ab6Yo9bYP8ZN1dd931XFdX1/xi9VqoXIgILpdr/1133TUXQKTU/SkUYuiC0A/etOCDoW7tIUUhn5E2cU+dAm991v66mHnxtRRATzB62gxocYaimM9uCCovAnQ9rdr9xnCtf//739948ODBlTJTFzIQEerr65/78pe/fEGp+1JoxNAFYQh44/yvt4eN21XFXIYnAnxjFbitOJimb0+sEioPrfQ+eeS4jkSYQekCaz4XHfW46MO0uvmPo1F59NFH17700ktfEVMXmBnnnXfet9/3vvd9odR9KQZi6IJwcvy8ccFPO8L6hxUCDJ2huAD/WBVOrxXGXgYGa5UWmWmEsZCBWKdhDk4EEHGk3q+uodXNP81ZjfkDX/ziFx9xOByKGHv1kU5LM771rW99TFXV/yp1f4qFGLogjADeuGA+iL/b3qVfpKQD55w+gn+MAtU1VEW3vFWL0Wj5aaW3MRJhA9EOA4YOKApgGGyMqVHX0armL6MAZ/ox8xl33nnnU+Fw+LR82xIqC4/Hc+iOO+5YTUQ7S92XYiKGLgijgJ+evxqE9R1hfSbSdV48NQq8dUq/im55KxWqofLVSo8+qSgj2m5AS5j75LoBjK1V/weMG2n17pYCd8Dxs5/97BfNzc0fKnC7Qply+umnP3bDDTd8BOksCDsjhi4IOcAb5/1zNMFrEymuZQPmwTR15sE0pCBPj6wOM9cTjEi7gVTU3CcnAPVB5U8Ar6FVe4pa4YqZP37TTTf9VFVVhyzB24/MyW/33nvvJ1wu189K3R+rEEMXhBzhJxZ64DRuO9Ku3eJ1mxXdVId5ME3ugXM2N3MCDA2IduhIhs37SAHqA8pBMP6JVjdvtKxHzFPuvffeR0Oh0BIxdftARKipqdn21a9+9QNE9Hap+2MlYuiCkCf89JnjQNoD7d3G+xQCDAYcbnN/fXQV3Wxs5ul98mio7wlvhsGxMbXqGrq8+ScWdqgPzz///FcfffTRuxwOB8TYK5f0qW+45pprblu2bNkdpe5PKRBDF4QCwU/Pmw/C/4R6jFnMZsS2K0AIjB1J4RebmjmZWomwgchxA2z0ORhmHa1q/pJ1nRkaZp581113/TYcDi8QU688iAiBQOD1r33ta++1y6lvuSCGLggFhjfOuyaRwk+jCaOBDfMMGk+dAl/9UPvrNjRzMrVSUUbkuA49aUau6wyMrVUeo8ub/xFAlzWdGTn79+//5A9+8IMfAHCXui/C8KRn5cYnPvGJf5kzZ86/l7o/pUYMXRCKBG+c/6VQj7YWICcb6SIiDQo8weyKbvY0cz1h9Aa8ZRn5K1CM62nF3mZrOpIzwZ///Of/vmvXro+qqirL8GUKM2PGjBmP33DDDX8PGx3fmg9i6IJQXIK8ad6320L6J5xqOnDORfCNIbh8Vp44Z4FIOuAt1qEjHjZA6ctrCCr7YODzdEXzE8XvROFg5sX33HPPAx0dHWcRyVBZLjAzGhsbt37pS1/6HBG9UOr+lBPyKhUEC+BN82aB8Z3jXcZK8yhZhtOXrujmLtbBNL3qxWy894S3eJeBWEjvDXjzONHh9dBX6fI9Py5uB4oLM3/gzjvvvDscDs8odV+qHb/f//Ztt932NSLaUOq+lCNi6IJgIbxx/kUAf68jrM8z7zAD53wNKpTBKrrlr1joBk+QOeGtx0A0ZMBImcvryRSjqU79Jq3uvANoiRavA9Zy/PjxG9avX//1VCo1sdR9qSbSZU6Prlmz5vbGxsafoAjvErsghi4IJYCfnveRzoj+EwYCbAAgwFNrBs6d2F/PW6UQjQwkU9I0c8JbkqGkU9PqA8ovwY41tHpna3HES47S2dn5j/fcc889zDwWgOyxFwkiAjN3feELX7hlwoQJFb3KYxVi6IJQQnjTvLWtHdpX3E5zf11RAN8YBe6adK3QnL2iSCajAEaS0XP8xAlvChh1fuU1MF1LV+zeWxzh8oOZr7nlllt+wMwTxNQLQyZWQVXVQ5///Oe/OmHChP9X4i5VFGLoglB6vLxx3s86wvp1BLPwi+IEgo0qHJ5c9teLYC7pffLskqYEwO9Bm8uh/AOt2v1U4UUrA2Y+b/369Xe1tLRcIMFzuUFEMAwDTU1Nz910001fJ6JnS92nSkRefYJQJvCmOXPAygPt3fqyTEU3l5/gH5PeXx+RTxfYzDMBb91mJTSCWRfe4UAk6FH+jVbt/mFhBSuaSc8888yNmzdv/oSmafWKoshy/EnImLiqqrHly5f/9Morr/wOgHdK3a9KRgxdEMoM3jT3PWD6XqhHn8ZGpqIbwVunDlPRrYDmQQAMIBFhRDt0GJq5HZDSGY216ndo1e5bUAXVq3KFma9ev379Z1tbW88H4Cp1f8qQ5MSJE/9y4403/jsR/U+pO2MXxNAFoUzhTfPW9ET1O1M6/JmDaVxBBZ4agursn8NeADNPB7uxBiSjjFjniRPeNIMxrlb9FQz9i7R674H8xaqGCV1dXVc9+OCD/3jkyJHFiqI4St2hUkBESKVS+uTJk7e+5z3v+S9d1/939uzZhS6NW/WIoQtCGcM75taihW4/2ql93qUSMQMgwOkluIMKnB4COfiEn4/G1ynrfwPQEoxEj4FkhHtn5AYDY2rV52EYN9Kq5r8W9OKqDGae2NHRsfLRRx/90BtvvHGuoijB9P2l7lpRSC+ph0877bSXr7322g0NDQ2biOhwqftlZ8TQBaEC4E3zpoBx3/Fu/TpVMc+HZwNQVIbqJji9BIeboDoBxZn1ts72iuy7NcDQGFoSSMUMaHGGrpmPKek4vIYa5S2A19DKyjrhrUIIMPPip59++n1bt269LBQKzctUe0una5W6fyMm099MDfL6+vpdixcv/sPq1at/TUR/BdBT6j5WC2LoglBB8MZ5k0H4tyPtqX/xukznZZgGD5gBa0SmqSuKuUx/4ofNQDs9xebz0/vzmUA3swGgPqj8HuB7aWXzH6y8tmqGmYOhUGjZ3/72twv/9Kc/nXfkyJFlbrc781hvOlcpjT67D5mv4/E4mpqaXlm5cuWfmpqaNk+ePPl5IgqXrJNVjhi6IFQovGnOtWBcdzSkX+10mG/ljDHzSc7SosxeedaHgPqA8iqYHqNVr38HUuiiXJjY2tq6/PDhw4s3b968uLW1daGiKOP6Pyk7VS4fwz9ZO+nZd2j8+PFbL7744u1jxoz56/Tp07cAkCX0MkIMXRDswL8tmcsXR1aAcRqIzgtH9bnM4D7vcPMwN/J71BZF4S0g7IFBL9Oq1zeWrN9CLpxy6NCh0yZNmnRqc3PztFdffXXykSNHxofD4Sm6rtfouj6eiFjX9WED8BRF0QFAVdVWIoo2NDT8rbGxsX3x4sUH58yZs/+tt9566/TTT38bwP6iX5WQN2LogiAI9iSAk597rkD2twVBEARBEARBEARBEARBEARBEARBEARBEARBEARBEARBEARBEARBEARBEARBEARBEARBEARBEARBEARBEARBEARBEARBEARBEARBEARBEARBEARBEARBEARBEARBEARBEARBEARBEARBEARBEARBEARBEARBqCL+P308HBiTq001AAAAAElFTkSuQmCC;" vertex="1" parent="1">
          <mxGeometry x="748.75" y="536.5" width="60.5" height="60.5" as="geometry" />
        </mxCell>
        <mxCell id="o294ewDcCMPDDSSyki-N-34" value="" style="shape=image;verticalLabelPosition=bottom;labelBackgroundColor=default;verticalAlign=top;aspect=fixed;imageAspect=0;image=data:image/png,iVBORw0KGgoAAAANSUhEUgAAAQ0AAAEsCAMAAADuPBapAAAC91BMVEVHcEz/fwD+hAD/kwD+lAD/ewD+jAD/kwD+iQD/qAD/lgD/mQD+kQD+jQD/lQD/kgD+iQD+jAD/mQD+kgD/lAD/jgD/igD/kAD/jQD+lgD/iAD+jQD/iQD/lwD/iQD/jAD/jwD/mAD+lgD/lAD/iQD+hwD/kQD/mgD+lAD+gAD+igD/iAD/mwD+lgD+kQD/gwD/lwD+iQD+jwD/hwD+jgD+lAD/hAD/nQD+lAD/lwD/kQD+iAD/hgD+lQD+ewD+iQD+lgD+mQD/egD+hwD+iAD+lwD+lwD/fAD+ggD/hQD/ngD+lAD+jQD/hwD/lwD+hwD/hAD+lgD+kAD/dQD/mQD/kAD+iAD+fwD/oAD+mAD+lgD/fQD/gwD/nwD/lAD+jAD+hQD/nAD+mQD+iAD+hQD+lwD/hAD+gQD/ggD/oQD+fAD+mQD+dAD+oAD+fwD/gQD/owD+nwD+mAD+gwD/gAD/ngD/ggD/ogD+lwD/cwD+ggD/fwD/pAD+mwD/oQD+ggD/pQD+oAD/eQD+nAD/eQD+ggD/fgD+oQD/nAD+nwD/XwD/pwD+nAD+nAD+egD/fQD+oAD+oAD+nwD+oQD+dQD+fQD+fgD/fAD+oAD+oQD/lgD+dwD/qAD+dAD/dgD/nwD+oQD+fgD/ewD+ngD/nAD+eAD+ogD+dQD+fAD/qgD+nwD+owD+fQD/egD+oAD+ngD+ogD+fgD+dwD+oQD+pQD/eQD/qwD/oAD+eQD+oQD+pgD+eQD/eAD+owD/nwD+eQD/dwD/rAD+owD+dgD+ogD/eAD+cwD+dgD/dgD/pgD+cwD+dwD/rwD+pwD+pgD/mwD+dgD+owD+oAD/dQD+pwD+owD+pwD+dAD+pgD/AAD+dwD+dwD/dAD/sQD+pwD+owD/qgD+cgD/cwD+qAD+dAD/tAD+qgD+qAD/cgD+cgD+pwD+cgD/cQD+qAD/nAD+pQD+dgD+qAD/cAD+qAD/vAD/bwD+bgD+nAD/tgD+mwD+kAD/jQD+jwBcEVHeAAAA/XRSTlMAMYQIgx6Z/+EC/x526f//0tL/Wf//////1Du7//8h////mw1/7f//7lzb///aQL++JKH/EfFg/+BgRMX/xSynpisSi/b4igVn//9nTMzMrP+sLhkZA2/i/+duT///TzS2/7WT+5QKd///VFY2Npv//+x51/8+nv+dDvP///N83f/aRcImpf+jJoYB/+Fmxf/FSKstFIr3//iLFGz/SsvLTLH/rzKQkHHs/+hw0//QUbSY+/2W//93V9RXuP+9nXv//+/cXUDApf//gfH/8oEQZN9i/8VEpvX3Amjj///jacyu/67n/+dt/7azlv/8G3PW1/+3//+z+P9w+cu1A1XNqQAAC8BJREFUeAHk1AOiYzEUgOFTXhSpblLbtm27Y+1/FWM/+yXfEv4DeGQyuQJ+UihlwDKVmuMF+EngRbUGWKXQ6vTI8EcNo96k0yqASWajRcLkrxqcFZlsZmCP3YGIE/9XwyrpXQ47sMWt9iDsPLOG5PUhvxvYEQiGuC8tzq7xRTgSDQaAEbE450kkLqjh9XLJlBlYkM4QbyJxcY0vRFM2DbTL5TEpJK5Qwxs2WfI5oFkxGELOwtVqEIKSJWURqFXmw7hQuGqNLyyVag3oVG8QT7NwrRok7Eq26kCfdgdLzea1a4TDEVe3B3TpD4beQvNGNcJcZTSm6X1MpjxJzJo3rBFG+nl1MQFKLFcSns1uUQMh33y9pONhbLBnO7tlDcQlI7s9PHeHwVCabe+gBmeZj8ZHeM5OL15Khe0Xt6/xhfjq9ZsTPFtvV9bEu+2d1eAspvfrD/A8ffyE8Wf27gO4iTML4PgjDlfSo8mkG4aqyVjpRdf7nbGuia6bSHMnLggtTXJOsIAWWDpIphc5ZGnuTXS5gI5YVC2I3sH03lvq1Hxpn03HsrT6Vnr/6Y3ym5n3Zh7mW7M5phrPPGO19vi3GgfGfz941miOsQbpCdOfe6ptfNh6tWtptJtjr0E4WnH/UtcpufdTLX9lt8dJ44kntNwLfUAt9f3PyxnEIm4aJL2lRz9QQ837f/Cs3RFnjUfSTZrWj6phYDxrdjjirvHIIxpn9oc2xg/A/3vW6HIoovFIus7J9Cn5xdczfuVyKaaRnm7g3hjA6gF4oDnD4VJUI70Vbx3E4il5cNshLzvcLmU1CIdWGDqsDXMH4OEvm93uBGi0amUVR7B1Sh75+ttGYpEQDZJJGMXOKXn0GPOvxo5NoIZG47SMG8/GAfihIRnusQnW0OjEoRMSf0r2dOj+totYJFiDZPDmTPQkeGBM+pV98mQmNLRakzhlakIPwA7z5MmsaJAEbtp0SEwzZs7KmuxjSkOn9+Z+NBuUL/Pj7r9y+3yMaeh0BilH+VPynLlGF7FgToPES/Pmg5I1W+Cw5+UxqmG1ikJ+gXIH4MJZRl8ewxpWMj6KlDklpxWXfGPBsgbJVFpWnqbAAbjCONbvZ15Dr+dLFy6K9wF4gcvl96tBgyR6F/eL5wF4yVIHoVCLht4iLVv+aNwOwCXmvEBARRoGA1eZXRWX8VFd4fAFAurSIAmVNStifwBe6RobDKpQw2LxSv8fEON/MfK7A0GValhMlcKq2I2PwZ+UuAK1QbVqEA4+tDpWp+RX1jj8tbWq1jCZhNCItdD01q0f6yMWKtcgSZVNHh+jN/jHhsNJocHxlXKTTsmDN25y14aTRYPjnJHNW7ZCdHm2rXEHiUXSaJDkyPYdnugOwJP9O3cmmQbPS6Fduxt/AN4Q8O3cmXwapJC05/eNPADvnUwoklODFyP7GnFK3n/g4Njaurqk1XA6vYcOH/npgx6AfcG6umTWIJVGjs5/kIFxLOg/fjzpNQQhEjox/b4H4L15dcdTQkMg4+Oep+TM4pM+YpEaGiTp1OkzmXCX3p+bFz57NoU0RLHy0F3GR99ztcGzZ1NLgxSJnO93+8C4sDRw9mIKasjeQ5eWX4aG2YpP+o9fvJiSGrJMxseVNKBVXw3sJBYpqkEKnbq2on5ghK9fTGkN2Rs5dKMfADS/cDF48XrKa3ilU5eWPwrHfMQCNUiVn56Aczs/Q41vNaRDN+BzqoEa51EDNVADNVADNVADNVADNVADNVADNVADNVADNe6iQSSU1tBqWNUwmmcp/v7Gn/UGJjXszw6v7p+hsIZpUJ8cUcechvvtITP/AEteVliDbw3v/GWooGVLI8u44DcA0D8BGgDT8zmOIQ17RsX7AAnTAFi0UDQwouF+u6RXGiRUA9I+zJatLGhkOfo3B0iwBsCjqwxCwjUcv3p9HQADGgADRolcQjXcv+reAYARDYCJOZIhYRqTs2aRrcqQBsz+KFe2JkbDbv52q7KkAdAp3ykkQMOdVdEbgDkNgEU1EqewxuSskl42YFID0qqyJYOSGnb3wOYA7GnQbct7FdNwmyetA2BYA2D3FMmpiIbP2L2DBxjXAM/E7aWmuGv47bNmzgBgWoNuW8kSXw23a0EzAFVoABQsluQ4auSZ6VZVgwZAn5pKIU4aAUfJJzZQlQbYhq2u5OKh4fJtaAGgMg2AFuNEKeYaPtekkQDq0qDbNiTHVCPg6H7AAyrVAM+RwyFnzDRq3UsLZwCoVgNgdtG+Sj42Gr7JK5sBqFWDbttSKQYaAdfVagDVawCsqImITdQIuzfRrapeDbptI0JTNHz+DaMBkkQDYPw4KRS1RmAs3arJoQGwe1dEikojPPbggf2QZBqw/8jhiNxojZ2+pYWdAZJOA6BL0aWI0DgNf97KvgBJqQHQ70aoshEa4cl0qyajBsCKa4ekB9So823aaAN1aDh7QlTZtmw+JD+Ihj9Ityr7Gvp/dILoGr+nMnJfjXDe3JEAqtF4xPJF1F9Z3r3rUOU9NeryTn68H1Skkd5KJ+T8HKJr/5nTp6S7apwNLL3QGUBdGq1aGZyjXoPourz80iHvnTXCwXN9AVSnQXIaVrWA6Op341DkDhp1/jXVAOrU0OjE7CobQJTb9lTpLRoX/Xs3DgbVamg0BrGmD0RXmy2bT0kNNcI76VZVpwaJd/YogKjyjN8TOUQ16gJz5wCoXUOrE7+I+ksyU4+eCn2rURs8WZwJSaCh1eqlnCNdIaq6lp/+8tR5WF9Lt6rqNbQ6zjtvatTb9tQu2LgOIHk0dDqBi/rx4d1bACC5NHR6afWWNqB8bGrorCap/u1y1LBanfIN+twdalj10jL63B1qWPXffHipK2rQn6zmJbptUYPkles/+4gaBktp7oStqEF/spoPbafbFjUMFrm0/kshqGExlcpF3/8mqEGSytJQg2rIIxpqoEYmalANcbsNaKhR9g7EJtRADdRADdRAja2oQTWE7NmoQTWcufG4kaIGaqAGaqAGaqDGo6hBNfhl0yGeoQZqoAZqoAZqoAZqcMIAuEOogRqogRqooWmogRqc7gcN1LB0fPgLpwY16P+j75Rv4u6n4Z2f9Br0jYX580TDvTWkRamjAZlflclW1KDvb3Qp+kLUaVGDPm+Wz/OoAbRFC2UTatDI+JAMqEHrUpQrW1GDVrBYuMPL/5VrU06Djo/bX/4P7UhVDUgj48OCGrQuPXMlA2rQ+i2WRdRoOD5KedSgZV7JruRQg/bo8mWSBTUajA+v91uNctT4pkU1lQLRqEKNb7NVZYecqNFwfHyJGvX12zUMNerzdEGNpoUaqIEaqIEaqIEaqIEaqIEaqIEaqIEaqIEaqIEaqIEaqIEaqIEaqIEaqIEaqIEaqIEaqIEaqIEaqIEaqIEaqIEaqIEaqIEaqIEaqIEaqIEaqIEaqIEaqIEaqIEaqDHmeYU1vL8Ddnul3bN2BTU0zuyfA8O1GGjMUEyDsw5qAWy37vWX31ZEQ8+/8Rqw33vDWxrjrqHlX/05qKKtDw151hxXjXR+6MNbvy6/nhUjDKIACt8qWHNmYtu2bdtWFdcxy1R5qdT7ElvHSbm2/jtzHuHrDmDp+qaChFCjf631HjB12UAqQqRRONtUD8gy9cawxhBoJJ0/D5gAXy8dnWw0yBqqpa7uV8DZ+EgiCarGWuHYOOBtYYglBk0jbWl4GVDXM61MbQyKhmxp7qMHsDexscn6AtYw1HRtTQIPraympASooVtbXwFe2tfQxAA0ZP1xB8BPj9s7WbTAT43o/tyjbeCr5DOSWuGHhjpHZfl2jopPSE3xWSMtpzQe+Kw6P5v4pGGosXw7f71ldmYXeK2hLqyyfDuXXbewVC81dDLLt3NbfUM280JDlYPv2/18/WjiQUNdWIvy2/18fXWiGw2a84n22/17fZrtUkMms3y7IA1+RRudakTrvgZBuKamlYYUBw2ao5yfAhEzb3wasm00DEmfW2YQtZVvXf6j5e3y175XQOQGRyx7uj0yCJHtH968aFKGpmtvAAAAAElFTkSuQmCC;" vertex="1" parent="1">
          <mxGeometry x="618.38" y="544.3299999999999" width="47.23" height="52.67" as="geometry" />
        </mxCell>
        <mxCell id="o294ewDcCMPDDSSyki-N-35" value="" style="shape=image;verticalLabelPosition=bottom;labelBackgroundColor=default;verticalAlign=top;aspect=fixed;imageAspect=0;image=data:image/png,iVBORw0KGgoAAAANSUhEUgAAAgAAAAIACAMAAADDpiTIAAADAFBMVEUAAAAAAAAAAAAAAAAAAAAAAAAAAAAAAAAAAAAAAAAAAAAAAAAAAAAAAAAAAAAAAAAAAAAAAAAAAAAAAAAAAAAAAAAAAAAAAAAAAAAAAAAAAAAAAAAAAAAAAAAAAAAAAAAAAAAAAAAAAAAAAAAAAAAAAAAAAAAAAAAAAAAAAAAAAAAAAAAAAAAAAAAAAAAAAAAAAAAAAAAAAAAAAAAAAAAAAAAAAAAAAAAAAAAAAAAAAAAAAAAAAAAAAAAAAAAAAAAAAAAAAAAAAAAAAAAAAAAAAAAAAAAAAAAAAAAAAAAAAAAAAAAAAAAAAAAAAAAAAAAAAAAAAAAAAAAAAAAAAAAAAAAAAAAAAAAAAAAAAAAAAAAAAAAAAAAAAAAAAAAAAAAAAAAAAAAAAAAAAAAAAAAAAAAAAAAAAAAAAAAAAAAAAAAAAAAAAAAAAAAAAAAAAAAAAAAAAAAAAAAAAAAAAAAAAAAAAAAAAAAAAAAAAAAAAAAAAAAAAAAAAAAAAAAAAAAAAAAAAAAAAAAAAAAAAAAAAAAAAAAAAAAAAAAAAAAAAAAAAAAAAAAAAAAAAAAAAAAAAAAAAAAAAAAAAAAAAAAAAAAAAAAAAAAAAAAAAAAAAAAAAAAAAAAAAAAAAAAAAAAAAAAAAAAAAAAAAAAAAAAAAAAAAAAAAAAAAAAAAAAAAAAAAAAAAAAAAAAAAAAAAAAAAAAAAAAAAAAAAAAAAAAAAAAAAAAAAAAAAAAAAAAAAAAAAAAAAAAAAAAAAAAAAAAAAAAAAAAAAAAAAAAAAAAAAAAAAAAAAAAAAAAAAAAAAAAAAAAAAAAAAAAAAAAAAAAAAAAAAAAAAAAAAAAAAAAAAAAAAAAAAAAAAAAAAAAAAAAAAAAAAAAAAAAAAAAAAAAAAAAAAAAAAAAAAAAAAAAAAAAAAAAAAAAAAAAAAAAAAAAAAAAAAAAAAAAAAAAAAAAAAAAAAAAAAAAAAAAAAAAAAAAAAAAAAAAAAAAAAAAAAAAAAAAAAAAAAAAAAAAAAACzMPSIAAAA/3RSTlMAGSIvDwpTl8/27MCANR+T89diBH73+qtPPtQyEb3JLg39WwnErQdJj7sD9Ssl++gWDN+5h2hSx+YC3IvuTYzv3iQOPDAcN+oBrBsI9OHQv66ism4nVRVeRsKn6ZUmO3BO5cULdak5b9KUnf58QdmkgXeoiAXGXUMh1rRR6/zamY2quMjYwYoxEgZHYxrb4Gr5paEq+LNCI7DTX+Pi8O1QMz95S21ZE7e6HiCFoEhzZC2xNB1chpJXlmkUmISfrxA95ChgGBc2YXpEZfHOQIPdnpFK8s1Ma8qckJp4LLUpZ1g6o+eJvNVyZptxWnR9gkV2wzh7VKbRVrZszL7Ljn/s+/SjAABDAElEQVR42u2dd2AM2R/AR04QnUhE5EiEYJFEF0L0rN57i15WF/VEBKeLIPiRgtOd3o6o0aPl9N7LcTp3xyk3v3lvys7OzuyUnc0w3ucPdt7Me/Pyvm9mXvkWDEMgEAgEAoFAIBAIBAKBQCAQCAQCgUAgEAgEAoFAIBAIBAKBQCAQCAQCgUAgEAjEd0Y6px+c0mtdCYQmOGfImMkFB2TOkjWb1rVBpDHZc+TE2eTK7ap1lRBph2seNyB197we2V3T5cuRGRx45te6Voi0wutH+NQXKEgde+fwAd2hkNb1QqQNvoWh/Iv4mZOKgh7gg3rA90ExKP/iBnZaDpBUoqTWVUOkAaX8gbADAi0SS5cBiWW1rhsiDSgHXwDlOakVYCqaDn4HVASSrsSd9QVVBslVtK4cwvEEA0kXs0qGo4ACWlcO4XhgB6hqlVwNJIdoXTmE46kOJF0Dw2rmr1W7ji+dWjcUDgKMWtcO4XDqAUHXb1DPHUq8YaPGTZo2a56LXBH217pyCMfTAki6ZSucj1CtK4dwPK3Bo9+mLW8HaKd15RBpQHtC0s39OvB1gI5a1w2RBnQCr4DOXfg6QJjWdUOkBWDK37VTN2v5u3XXumqItKA0WPXr2qOEVQfoqXXNEGlDL7gf5GbVAfJpXTFEGtGbdw7QR+tqIdKMHHwdoK/WtUKkGa79TNYdoL/WtUKkIQMGWnWAHlrXCZGWlB7E7QCDta4SIm0ZwukAQ7WuECKNGWbZASqFa10hRNpiGG7ZA0ZoXSFEGjPSsgNkHqV1hRBpiyHEsgd0RWuB3xmjOeNA05ifOObiBi8CNDjQK2Otl4Mixo3pGTl+fGS/qAkTJwWQO0YRjX6ejIxHdcgUXAZFpmpdXYTaDJLTAfCK07SuL0JdpptkdQB8htYVRqhKyxB58sfHaF1jhJrMnCVT/vgsrauMUJFOZeTKH4/Wus4I9egVKlv+yHZUR8yOkS9/fI7WtUaoRPe5CsSP47O1rjdCHWrnUiR/fJ7WFUeogbF3rDL559K65gg1aD1fmfhxPI/WVUeowIJKSuWPz0fuZL95jD0iFMsfx3v62V8DhJZMa2+H+Am6LdT6L0DYw7T/2Sd/HHcZEqT1H4FQjGGMvfInWLQYqQd9qwyRLuZcccLn4gcXtL8uiLSnQYL0DjA9qG2zROHTA8cvaa31n4OQy1Lp8vdpQFxvWFbF1orhpJ6/LB+FRgTfEHWk6/+MpfM4rSjub+tCt8Y9B6+cgmaH3waDJHcAF1auVTNW+4hc7j96aIspBsX1QqQRzmsk94C1FhnX/RogniVk/Qa0UviVY5gjtQNwo8dM2yhlBBm/CXWBr5vNUjvAFqusgf2k5Mu1Ves/EWGTTBI7QMw267zb3SVkdAvT+k9E2GKH1FfATp7Mv0mZRrgt1fpvRNhgudQOENPSMmP+XbuTsD1ScjZG04GvGCdR+c3KmxGGDypuGTtiL9En9uWTpEnqofUfiRDG2Zbk/Ltl3QAMQGvuB0ctLDIuAUkRknTJ2mv9RyJsILim02hPhQP0Rcb+xNfe7SA7X00pI0CSZK3/RoQwvvwym7SDM31rQ8g78RA75WfJHcDkK6dGiDQlO4/AqmflCRl7GJw4wkr4RXIHwI9q/VciBAnjCqtEswFBxIvh2PET4yMjI4edKB92rD7Q+DCCkeDAUuacy6R3gC4pLdGK4FfKZEtRJZ4gvvvpTzbh7Pidij4dT54/w+QsKb0DEDRscnap1n8rwhpjqoWYBrYmko53sCHImI30rN7DIt3fc8zv56Ia2ewE1fOgb8HXxnlLEZnKeDa6IPIsX7wEFwTSLWJSAqIuZ2sAi/O7Yjtv7NXsWv/FCDZBFWW9xyni1pe79j8qvEhM8Y1sA8HrYnljrh1QXFuE6sxWIn8zjfZ4lLYoz1BZPFOHNlr/1QiarS7Khe/T7cZNqwJzS8p6q77WfzgCcluxVWDOIof5lICdTknLHrJY6z8dQXAwszLpT8qxoQG3LKgFGj5Rchnz02n913/3+GVVYhU6duiMtXylOQN9ET+p2iUEiSu1boDvm2kj5LoEcxndLvLOFEG1/7sgxujtEjIKrBeodSN8txjuDQuQJ/3g+xWcbZdZ/yr4946sQrsgo8I0JyllU7XiwfIe/eI3snF1etK1tdrguwLVBZrKKjrXea3b4/uizpA+8h583H/4ryMbWBfk9QBPPshJexgRRvy7KlneDR61NYrXG6EK26LE7Hks8Tldbbk3f1EjiNOxKZZpbfCGQIVggLyb4PjjX1BYmjThj4ayxJKjgo1gACfAJQm3LdLu4fiDdcT/5WR2AIJJvz9JqYE0Rx2KIVK6PFKfrqQUP4Lqd271pMfZYcNu/Pls2Tpzac/hdactogWA3eHUOhgWfkX6ndjEv5ipdSPpmfsSxeAyoXcnmCF7q5f1Jlmq/SWueUEt/lYgE16y71ADpIwjhFhSic9ZgH+RV2hA4CBmS5JAco6iYHBv3PznlgcClwzsUZO4Yi15EMv2EJUfJo0+imGDJQq8RHByampyMEFOOmnWa7RN4AicJGhvB18FqmDYtuODAmxeF/KS6CSULsD/WPcoSiaNXof5CW0JxlZ/07Pj2S4jzr8tlc7LYnIR5OU05YzHn8QAMmLNiO5aN5f+EDfgGX3Xj3j06z6cJOHJHXcQe0f9PGm+xw0q6cFW7DdOhoSLPXfsrjpFXB3oHLw859yRyM+IqqQXfQEEp8cMA3LEiV1G4fPLEeo7725WEZxAn234kzGafuQbt8+6/a1050Gl6d3E+F9bSs6EEKWquExPtRsrfpGZnRmpH5lrU/c4whow/m8SHtO4/bsKnWSrAkeaCxleHqkOqcVeObKVRhF6VSFhGXkPsy7YqZ/PHa+tcJW/FfsebkOLok+BKuzkE2H0/qybpFt3WcEsKsecBTOHFdBQ3L3i+L8Wik/lunf5OaByeb4zBTl3qd5jldaNpweucaUX8+gP4hu7uYAdrwB3szZBaLNrREnBY07kk2YCtgHOMd/wnepkdR+XfihCrd0ctmhS/7kZwFz+0N9yV+2FCSmyu6Tkt/VJ+LKY6MR3jtdz4fBnKECpfaRj62mchk9Uvih7vMRbvAravXgrZx1/CdHvTtWbzv+h2M5/j0aXG8i4A8KKl0xTXuhBjMxrPvlHJenP2lm1tLyqHK3erMtBwSFipNCNKnVBviftwLCTfN2X+SM95puhnpsqwo9o1+O2/Kr087RxclqA8O1S36ONAju4fSIy443OhtuX60nU3BYhoed2RePz+jGnbZxdafOew2tLvg2CB8PI68qjA1lQudhIpdp8hfCnwiddPW3f130HGgooZumuDtKkK0JEu9fcF3/41JleXhJ7RPiHfMIn/xW9+0DkdlIRQWFZVJF+Qs8RrBe/scZfZ9sXjqc2GhI/Ri6wr5Y1xOySCdxO2neP7xLj3YFqSN/yxV9/U09rwyK7nk+/i7bunnVptvc7QXj7fWhRQCb3FJmAW8J58Rs85vMsIzx+Zk81DXlt1mAJuMZ4Zj6O30Iup+Sw6m/pUSEECGj2zHLEf6YxSHbp2Sa/U/4nnyjpPzxo1zQt6KrtSmSuS143Mh5v4q11o35DnLdz4O+e5cYUjmCdYaDxPie9qeODp7MMW2KvraffULGaNJxN1iNwIr4GeZySSIM9dj3+o3ct8bYq0/VHHL+w76C6FT3aREJ1fiTVVQPj8WJaN+w3whHp5tpcfP7Z+Vcgf6mBtQqq/QSOpHRQc/5TvHgm4emqe1+oXHQYx5GTESnUjlcmfJfh1ap6pWE9p16HC9Ux/TqTm0ozq2YtK6DEdup1EPENcsODUYw6cRbIMgWiHsE35xZvTtsvrHMXUhlttIXDme5LnvJrpvcmTsbheD+tW/frJ588+UfMav6w0O00V8Ha9iKUvP9jq60Fw8h+Idb1fOCLOcfguGmp1u37tXNPwrIajc+nd7WEV9lL7bs4/Pf3DtiNNd5c8YhWSnHhjULu59HTyo3VXlLr/HetG/grp1SIdPnPXWerpAOksniH56p6c6jTZVBFdiTa/kIXlt5+i2Nqtgh+Mhqm17qJv2pKe0qVPo5PsF1UBvq60+uk3VucdCsKc9TRctpSAfc6PMba3NA0Xes2/pox5hUVu5muSTbLWsWsJFdWRVF/1Ows1sqIT0UyHXj/NNoiw8VlWrfxV81uGfInxt+29W67f6AvLCTx9oI4nz/Hvy8VJiFzy9zjy0L/Iy6Zrp2RcP13zEybQT3drlx/HnaIbS7ob9uFc3gzeFVEcbt8fTsvO1FcyETNX7Ji4bTW9b2QapgY9QSFn7rvOLmMF2S5RxDT19os23dJi59IwRhLLU0ZudSOtaE6rYoVsGWE8ljrFtMX0/lbuWG9xXWYa6wsMGJzcCbiy7qC1PV2uu0wHLr7cE2o2Eeop9ZNpi+68b33/15uMdP3sL5koMWrtTZlS5BTqVvfA8e2nx16Wng1yqfyaaZj/Kp1k+mKBTyv2BXc9zfXhB/vY2mMa/zMnKki85vb4GaFIf3eiDz1jY8Tcw/jAso+obfWbaYrHlnJtpX1Cm9bzjUbOVLewDp3Tdp9DdnPHH95v3BXCTvQ8Xep23UndRWR32AVyc4RQOh2vgX+JEuVLqtR2Bz22V8EbrXtVYtiV6PKbllf7Oz14pWlmxrf92aKCISbvxm0bjQ98dyysZsJLPNssbjKfwPn9PLpd/Yx7qQjeFS5O82uJ9fbvE/0m/ZfhtwZYaE8PBucya11o+kJCzd97puY9Knve/f/w+Mmbcc5z3JO7p/HercnaAO9BBTN2Soq9ULGUjOBqXLUiQybefeTfMGOQBetG01HpGN/ARIYd65OW6hIgJnnZCD7wHbOp2LWJZ7SLlFvgSGsNL8Rw+UIP+TWuzO2Nm6AMuh/WreajmD7A3IfyaTSu6pxkw/ST/Nv3J3Wnjwrfc7l4Ke9DJMQuEOGM6HY4s8LiqkYgPnIeK1bTUdkZbU/44WlFyXrMtvZlvwtueZCoTwhg7F5TcApyp1D/WLSQ0LknOMhxeNfax/xvSCEdOabJVCETjNQ0+0J3O285U0svwP8gqg7KOQxXBPOvkuCw0mKJr+JRJhgGIfjUVq3mo4wu37wZ9ywjyATFvGIpFQ5luYobXzBz8J+0id6qTIsuT+IqiQgZGDeNs/LpK0hE+7y57i5cQ301Rtw1paq7bbrslyKDV8qucY7cbyi1q2mI0IYGTCrK17Uos9awUyGmzN+XWbL0c+Rc9Jf/iQ+kbb1TMz0xvHRWreajjCv8DHPM73sqzgyx6qHkoZ+a5yOz2Xp7STOluY7qg2OJ2vdajqCCQjVgUmi3Ti3UlbikYcSFYyhwVb2Nr+n0glXakgp/ydiwqB1q+mIcXTrm50x7aJSRIdaM3vV8uamreso2aVUVTpPnUJ7RsOUC1I0N1Nw3ITixagGowxg3t/5H51UQTCX173ZkROBItmDmhbp85r5S/7qd7Cw22+94V3TcTlHS9hKvkfkTUtLNJ0TRcvjAZP0iU4KsB6X/fUlMrLeR1YgwU7mc0Ft/yfHmegdhTU+SOTNrjAvwgpmM9DEzPrNGkIVvbmXD+FIMZgxDKxzoroM6eN4NaU1PkNkLqh1s+mHXoxEmD1clpH4G+7i7CWOGDuSydu6dLP98LuXafpiee48HbdMjHMnOlv83wcV15gYA+DKcyM4+DFjNmaLrQlLcKc5PprvWcrVnxi3p3u/67GkZ/5KL7oUu6zGzhNFLde62XQEE7qlMZ3ygS21kDCLq1MsZRr9tHCiJOFDLhxRXMs63fbT48NnREl2uZdCWHCXkQ+9Ht/MUmxR7BXBP2R957kojv3sWhHHaese4B6yvNKCEFY0YB5hem9vGEdsJfYyLp38ctkj/xjFs7eTRO5h1O88uKXCCcJOctDycacW4npbS+7vDXB/N7C5XS+AX5RWMRzY+N2iDkBAmx1aN5qeqMHYUg8lE1rxCc9/4v2rj1ykipqX9Yr9iUCrBHqpsgjxe5fWjaYrmBhRJtJ1a2e7xCyEz6/KjTR/BAVUIn7kc8YwYILSXus20xVJjHFwO/iMHnGE/BsNUF7BI3DLcg6Grb1AdNEAHGmEqMwvjJh6wOMQ1cWf8Is9DnsvwzLeg5C2+TFfoJVWQOsm0xc1mWjcsT+AYxW8RVsQ/9q+zRuotxhbE1sVg6/FaoODgVo3mc7YxchqEVAC32evxFc3Mv9O7DfdTkeC4VC/YDWGheFuQWSYmFCtW0xnlDTL69awYe+K2yf+uOWYa4VrWVJTc615+u8P9rsSrAtL/RMsUDTGsLPgwB15/VCXJiq+8DuovVdLRoZZhmHtwPRvPzzy1rrFdMZfKnYApR4iBFkPSjXVxKa5ALdT0O8Tvk3rFtMZ4QGqyT9G9QAdcEw6Dn4K1mEzybsghQCVqaZaB0hUvW7QecgtYMUWx/iqQW7/VOamImFn7hpspQB+Su3xmTMsdhCG5QJrQcXIuyzRusF0x2dZkifJC+Z3zuvepqSkeMw+25yK3CBJt1sG9WGpfbEf4FrQIvImh7VuL90xW8kbwHME24lDUNufQeJulWs2D94qI/Hsu3kz7gz+1Lq9dMfUGCU9AB/7ZR6rEOM1IumjyjUjFykav3XD65md2r7Uur30h+Kt/m65zY5bXQNws+oOGzu0ANcxdyqKYauzkPorObRuLv1RSGkHwPELVxl1T6BSPpFnGHhbUexwiDftk6CRATMmYUegQft9rZtLf3gr0/YwkWbABUjvQqWhp08+iyI7Ptq0vcG/5OEx0CHGaN1cOkROzAAzl7EjS8Oe9HjZAq7554BpuXh2fxYrn7hRPgiTaWdFwFNNN61bS4dkUNQB2CsyRtrhEM9EwNdzqtKKUb5sGWNloLM4SevW0iHO0v05sYifwhRwaDWdGMrj52284s+2sSwocw5z/ANxlFnr1tIj/1PSAXD/q1CJpKZHEZZhcBXr0t9KCvPBy6rhOD7XPI8IJ4YdPshAXH0OK+oABOPuzx9taRYe62RVujG5kuKPQNCZKexDMA9AoUDVZ5V0235RIq2L74in3lOnokBF7LbWraVHmqjXAWKtn9DfcDyiiuRgP7bIiCP7YIfwp3odgMf9wyGQnHxXhXoOJgr6SevG0iPzVOwAf1uV7kWeaFJSQc0s2UgU80TrxtIlCuPH8/HJqvBV1Bn3L952VnMGUcoJrdtKlzxVrwNktCr8IHPun3QK6sYCuLL9onVb6RL1dENjtloV3t98tr+CurFoQxTRTOu20iVeak0Eq7+yLtxA6R2aPr+T4hbeBqADfNC6rfRJN7vEztCQ3/X7YWiC9j87DYUwbDFRyhWtm0qf5FGnA3gKFL+wMDjb1E9WnawBS5bVtW4qfVJXDfFHNNksVL5hI7DzmyA1NoQAoANc0Lqp9IlBbmg3Fj4Dx0Tu2Hh4eklvW3eYed+E41nsMx4BHoPwBnYVgRBgqELpmyb8JbjV4/fXk5+ymUVed4wJaPnbAfRuWt+uIhACbFImf9v+P24Qkwv3iQ970YbCU3LkWmdPJV+CW8oIMoOQTg1F8q8kaBC8cBnQBr3dMQ5eNsxJRlWEOQcKk+JZHiGfZCUdQFgYCbj/mPdAl2PdynO5iHHC6iV2TwIxbC6453GtW0qnzFEg/9PCxUHHkqm5SXWeH3oSB3G97R6+QdUltBngGE4q6ABZhYvrQl5RmdIUPwksfePKT7OvjjCAJTINcQydFHQAG3vzfpWpa4qTJmTTKswnRoRlFIYjopgECqyndUvplUryO0A2G8UNoOMIuJejXv1HejzG8byBdlQRqi8jywAH0V5+B7BW9Ztattwh6mdf5rJcnenTb8d7hpZSXENSsaC61g2lV+7Ikv3nJSnbo6wjyBqz4KaypMHggQ7MxT7jzbsAvso3BKCnQNwNOQpzDIfkyF8wBMSRVOLsfPjd75XTfP3pQzJqIgQV8V6xkjnCJsYHMjrALcFiOo0F3/1q3sTPloXNGRqq4ENsNlmU/bqFCF6iZHQAG2v6tQPABcmXwO9lHc2uQ8/ZvRJEeTdP0bqh9MoKGR1gNW8J26A+WCdS6M1IP8E3Z88JIfP8mF56XXhpQpYzQuuG0iu1ZXSAUP6RWN7/QPo2OF/HG9HeI0rvJgPOfFTuLAJCbVm/1rqh9IohQUYPqMtbxKquTYEJUCDp0sudcQ5hbHsLLAtksmsxeGafrNBNTDGtG0q3fJDRAQRit6T49AEbf4Ge5FV9zba82TdONNnn4mmtN+nKoKfW7aRbTsjoAC4cFf+g3jPh/9XwxIxLumNHyajg+Hr2NXWqbrazhkFgubKd1u2kWw7K6AD4VU7msiX6gxd8A7AH0KHFtCNUnLkW6lYR2AdX1rqddEuDWBkdwMTRBXDKiVcGE7Tl8OzPU73eF5vojuPz1a1iOaLsGPsjESD4eSPnFRBCLsgwOn8ePripGPESgF5DyfGe37qFKjv0yA3KRi7jHcUOOR0Azwwe+Jm5yhTLR0r5BpHmWZuOS3/NITUE8YPxWlq3k245L6sD4Hjx/x7CHZ/4G3CGD1bqYor9Q56LUR4w2gbvQdHbtW4n3ZLeR2YPYHDZOZWY7fdjJ210RA0rgJLtNDFFCJNJaQcgPgjljZiBbV0Q5YgKAgNxqwkIQjVyKO8AON48PRbO8jztEM2dG/DLo3Uz6Zf3SgR/cV8W0rrcszXW4BGTXNgRFYSWAWghwGHMlC/+0DAi300y5uiV0lh3JgLJPuXV8D0gdAZuWccgZ5EOo7Jc+Se3hPkakB6n12PYtlDqTCHFlTB2SxbyKkfuMaCFAIexXqb8L9Bh3FzJnaS2GJaP1AQro1z3L4Og9Qc1TTmodTPplxny5B9xiclZGs4gJhK/akcTP4LfWhc+SmIoaeJtsoj/TAp5W6QS4jBkmoew5/qd4JMP9AT8ZvTNupan8AoVJNUh6BRRTh3eU5S/qRdaN5N+MQbIkb/lOA/O0SfbKPywNO8ALUE5/Dqkn8j79tO6mXRMPbKJH0hxGzac85kvQqQ1tlH2Tw2BlzBRzUA4F+V1B5hE1epHrVtJx/Qmm7jVvURR+UdzV/vTBeO4u40wYfmAI+E6pt9r2q7CEFD4Gr4z5ak7x2ndSjpmM9nE5bFabiLyT17IzRsEnE7bsPw6hD82YkEJeOOZNquQA5Reie/MinvrOoMoIiaRLoRQDjUIuC8aUrQDx9bnUNQFmG5jrzY8Fn+FYdeJd4dNp//kksL8gMSrnAUfqIk8bRxx8pjWzaRjSBvRrkbMeMuW/IM5cdw3X6BOLLdR9kegILSVuCixro2rzPfNwHf6i+AQEaEGm3D6QT4aaqMDxHBkwEgtjEpI+p912Vdxn5akfUfwD8I1aMLcZDDfaeApapjWraRjRpFtD/xwLLH5DYhiG2k6R9DJtKpgv2jrsu9AX89nwGUBLQVr0I65xV6+0/eJE1u0biU9kwrbPgCM5sfY7AGVWG/7m0wq9Bt3fuhE00TromvgeEQn6hGPF3QwVpYpqwvPWSPwOzZO60bSM1TsALBqV0oksvhVZjReikkDTiMygCCveXnKLgOHl6Ti8KxAgQqYo9jx7Sf1Aif87fU6jBDmLtn40Pzzoe0OgFemP+U1GWUyEOdtOPjBZ8FFdK6IlpgraYheUcBv7D6m+GWcM+mNtDezm1q3ko4JJIN2+wCfnt5ijoNc6LHgaDoFWIZBTdE/eMoGgSnaA/MhchTBr+D/H1M6x61oUfdbQaPc4Zn3WreSnqHUemEQ0PK4GLvIyfo5+hgMDeGUkG8O190Fx0296NUmgcG8OY6l5aritHgc33SfPJNH60bSM1/INo4BKz0NxH2HDYWOH95SRybQH4CTEHwrX9lNiRMTjdhp6upNfNcco0uOsUz/jUgKpj417bVuJD1DBe3GH4GDHqIdgAoT9ZE8OAV+Q+tw3hiv28GZ7fSOAx7Ti+eacCaYtaU1OVQHc9vfFfxna88JYSfhIVT7Az+Q3sHiPeAZyEUFoe8Afq8hfpTgdSGRnvgG4HHerd2prMmBPBdloQseaZEM3ivJU7CSYMnBDakFOhDaY+Bj0MovxTtAHPgIGEmbQLiJE0n8mMRfNhzE96MMCAk+8XgOakGffMz2B5WdSAgBo3+YV3gdCWE3z2gBAMfcdSRYC8GV/dvwzZ0Mfr7GLa34S71JaH+U/PkKZggzj/QfWt9/qtlKubk5lXjFmKAG2llw4jetG0nPMEHkUsErYI14ByCXBAuB+WM8+NWK+NHUXN7tAOK4DLnyFwQ9SGU2K5/68GwfXmXO7jQn7qCXFjaAE2g3wJF8otsfTLefiMo/gVLjn030gM/gBwhBZVYXSz8QXuXpDY/ecXPnsnYctIpxMnrZnNiUvrIOOFFW6zbSNUw0cSDOUWLyd1tC5+s8phtcokuHswz4widQ15HuYpJcuPmHWFcgjN5bYkWkKUC/K4xgmSFU6zbSNeb4MUAAIqEk/tlslT/I3dwBXOcyV5Id5Tq3AD4TojBy8uHOCjXadS79qwA4xa82jFAHZmEXuITtvsiG+Ntt4JvujWWGb6UKmK9tBMV5KMKyhCu8yiEb4bnh5gTXCGbcB7erqmrdRrqG2QQygVd6y4bCHSDin8gNrBXbA6SiaCpt2nHMQqmEDPZxlZ20SCCclBecU7AMAJxxRpPwX3DKLo9zCBF6MQKCb/Ldtj8CY/NQo8Ca0TgeWznvxlrAhK8GkVCV03Xg534bexTQW6gKe4iT/qwYgdMyMT9rgYxrMITjMM6iBVQCmHMZy9ruAXgiuXPfne1rdPWobPdNnOtMcPOwNyvluVAVjmTG8bnsKpk3AP1ADwpBvsIcSX9GQlArp4aoA7n1MB7UH2KXuQAFAqo/jRvQeQw+R7AKvUZPELIS3wKyz9O6jXRNdmb9byAc5O0VkyxeFvQAYz2xy3KBy5LACya4E3F9ubFKAonBpUoUP9Ch/MiIDLrn9xYPLg2fZeefxS57DS5bOBCPaAvvc05JHDEY3CRS6ybSN20YiTWFx0NEOwCw+8Kw0oVFrgqGimDexynzccMQBZVzBV+kPlo3kb7pTht64P5wyaVmTlyMhvDC7hNELmtjeaPWSvQ7gdKSD4od5FDMqpnkjDtS/BXQDF44TST+nBq23XBx0kPrJtI3yxiJPYALPVPEO0AE6RUiqKNF6lxPy6vUmMBDx/bjtW4ifWOszoiMXIMtIN4D6D3arOzEieG9x7KP5yivEwN0FfNZ6ybSOWYpZoHHu8U7QGZa0/8Je73/GVb6OSsk3QYV6lYaaCxEICNxh+JkXsaDmllHJKgGMfs1YSXMiR22YVj4kv3kqnCsOi6EoTfColo3kc4xT+k7co4FMYfz6cVaODgNvf6Fd34yuP/hQHXqVgwNAhyPeSmgBFTxlhBXMKdZu6dlGXPyG2+16wZMjIR8ySFUwtf8EJ8Fx3VM4j3A7DcQ2zbQnFzgqMp1aw2+R6aZ9heEsMF4RoAJ0LXXRPEO0JeVPbCxOT15isp1g3YoyFGIY+lkfuR7gOPX4h0glZ1/1WfziVMqj9jg7tTfWreQ3inOyK8SWLAtJd4B8E7s/OlZUagiuiisBD8wxF0o0glwLH+Z5Qd3ek6Ld4AeTOb0z3dd3vaRdeqqkp1fIcKh7kld+wtC2CDcbBscB9Z4JMwDGDVOJ+AyOnHFONa5dnYGj7YAOpPba385CFuwDAPfEYerxCNL+lC+/NdGk8fN2buIj1XU5YaTVLQl7GC2mZd0T4GZXE/xV0AfODebyiiWW7icTa1vZ4XMrIJVG6V1C+mdLaTgxruQQ+624h0Aj/PAsIVCo4XR6m3iw4XJ3vaXg7BFUVJuW5+Z4NK7UVJcufjPwr7Gb6k2cIcRSpHfcAcTRG4Kv8aG4Xh0esYNhB38qVbVYFgB/yStW0jvkLqAb7CgJtDzX1AfezvAKdVCysKl5jtaN5DeWQX3dU1O2ELix2yFkQUtqKJW1aCzuU9aN5DuyQillhXajMcOwII87ZI+Qaha60HQ53CEQ2JUI8wcghsCZQyYYTiOJxSUNBGwTT6VauYKTcj/1bqBdA/pMToMw0r6wziRTe3tAKqFFYe6wW+0bh/dMxJKDbhk2Un8P/ZYdnELAdtkVKtmK0FpJif7C0LYBG7rm1pi2FSgIZLT47KdHUC1oG+kM6usWreP7lkMxXaN+AVFb9pV0b4O8LtqNWsCiiuD9oQdjB/cEwx2JoZd5BTggnLhA9SL+0laow+wvyCETUhnAcAcu6qdb3/IXdUqRsYpmWt/QQibkJ7dQAgY40UVOsAM1SpmhP4EGyIDEUezBwpuKfHLQ4UO0Nze6hidaO9x5Pb0ZbtKQ4hDLgYBoz5p24G2cTlgZ3U64xGNc8NfpLmap9bto3/gYpA7UPb5SYVXwG47a+ML3vxw9nebLPCM1u2jezrDdgbbOEGp9neA0dyJWzpXedUBXiT9gf6x8RQsMErr9tE/MIYDNA95rsIrYASn9PsXxuxmFEYlrOw5P6BfAaS9ojsyEXI0r2BDg1BNRyKUC54mlLOFN59Ii8lLGQ+Nnyu+XdiFyAAdR14jCxysdfvonyugnUPA8K2JCq+A02QPcD0z2Bv8T1oQmYZCC8JeeFPRL4JvV+KxB1eRq5T4WGet20f3LGGeNPH4ARLocOJVyqb7iZRHAdoKNTMczX3EB4mu7oKoMuBbQXuwtHdciRDDCF2Gn5qKYV7ixgEyAB4FVjFHMWEYDF16Taw6DZJx/Bj4cZe0X5yFgkg5GjKQ0K/EL1FvoHLI6Yth582HJYiBgGsZ/rCjFvyL4wfhD8pitYLW7aN7DNB/9IUkWkFALRYzkWQhi8KhM2mfv0Sq4xdHaxaRq4HDRf8AhJ1sgg0NHIF9lC9mYWb5NrCIKUB8zUsH47jbK5Hq3KFDk7Yk8y3Qun10Dwjdi+MNA8kYrurRztIXfWUjDBCGu12yXZ3wytSCAWW0/rPW7aN/yHiOGYmvwSKZMpYFMRNIB8aZ7iJupC+RPukGpFL5kFqAo3GGm68RBS1GbeoDtvf7wTtJCA5Zpz3jxSSL1u2jf8gBN4gp/ciBHSCEGAaWhL9iRR/qV+zIxsu0bh/d053097kEw26ruhbAAQz/2sFfCQVtV2irRQxCNApwOOQoYJYfxxuwyoBIECPIn3E2bT+DOGOR5Vq3j+7xg4F/gR8gP7stxIQJaYBh3m7k7/lGG9UpysnYBy0HOpqTsKGBs5DNLvKkKoe7GLlBCLDlAaIjNyPyG+howslwck8xsBDjMID66Qvqd04bxp9XuBkbNZD6hyAUUgg2tM894meU43rAe5ajYhuGZNGV4jgZn0v+QxDKoKzDwYp9+upyZCqL0LD69+nf/sJuhvNhWJ2sp9gZEwK1biDdU4Fs6V+In8diFMj2Yq2CIy9fnSQjh8hW/9H/sS++KumPQCjHSO4EuSwkfs9Q0AHakcXM3N4vXmKO/WI1usHyYu6zVesG0j3U3AuYi5NhG2TyhCnphxMVJQQhwQuIVmkGqwcMN4pejrAPKjLkM+KnQSxGIPdtvnh9gj97p7/14Xqi3gYk7PRvZF0+QvxyhF2cIRs6AIQVP5BLVgdojWG+sydZztb9pp+zvah0TkKd7psvr2Sv3RFCjA9kS8PxVqlEXAYtQBbXuz9xX9NHbUwpY0pJqFJ31oxENQckCAFKkpYBJhj9eYG7jA7wD1UCV+17W6pgFpM0J1As11U+vbRuIN1DGgvjjaBZ9h1psr9xafb96Ij0fMXVOXtKMFtiIYl1Il5LAYvJzeE+4Vo3kN45SrkIIQO4X5PUAR6CS3kkE/7XBOGpwINhkj3BbgXv/rbkdOCG1g2ke05Qr+cUcGD4IKUDmJ7wFeR3o5LQ9fGPBi+QYzM6EV+BYVVgXpcaWjeQ3vGlFnGivcHRAUlrwqYePAVt4V7lEv+xX6GUM7VHyd7WOYkT3XEaGeC4HfIb5WC2U/IiR9xbpekHVbFeo+F9/n2Kt1KwsZ/OBIJHjAqBRagboAphRRAVEM40Eh5K9Bz4u5VcwwS2Ex5fkl0lrDEcYWaAw4ASneTnR8hhGSWpaNJBk4RQMoAiftxy3gp9Pv6WHVrkKfmCIRUJuiHlIAezn36q4VHNOEkdAG9q9XH27d+Q/9LqP8is0WHyPyM5K1HNITGCn070AlAYPJTqPYwnvkPS3gTeS3O2lVejY9T/xnIgt1tBebkRcjlHySkARhZndPiEqXTnyeRdB9lFZBveKHNqaq6Ps/gzxNyVVSGz4sgzsLDk6at1C+mcVfQuQBF4WFB8Zzd2E6eIdCLzRx9ZDgBZc4z6wKtZDq1bSO/spuVEbsDmlfABuMqZ3bd+I5JBqSdw52hihnJe6xbSOUEFKCklrAWH06UMAU5zAj26DhFRK9ulcElnCW7tigqhMsfot35x8PYN6iqlB4zlmv3nF7E0vuWlrHK3iLwT0IKgY7lOSwl+qwdJ6QB4xC+c9cBpL9xsZiiToqhuC0Gp77RuIZ2zivbuVQIobRQyiUofEtWdU0wp27bGpno3lVTuP9DbkA9Zx8J4jIMLb9OjRYUPvc3/w434bBxh287M1K3FFNl7/A0qEzkrHZWbDSEHZhxIbsF77xKRv8m5Ltg7HnuQU04L8fdGbFym/n6yKge9WPyIloQdylZ6HBi7GR4fFhnUr8Swuqtx3I3jA0z81QEZeE9W5eBq9Uutm0jnZKSFk4l08HvGtpLoKSDCt/N9fGZblLJGWgfAY2bLqVt2EPXWJ0zrJtI3U8fSwtlLJvyQYFuEr8HULPverhbTwdunxERPc02O3ccvIEdCS63bSN8w5mH+dcmEASLaIZ/IrXpLba+6Y3GJ7JLRA6ZBq4XR3lq3ka4JYoIITqJ2X7aLiNB9J4+m58LHUnvArzIqtwDOTJsiazFHcpMZ99EenueIyTDhhfXyXvriUnuAHDcgg2AOtB7kUP6jJeNDeXU7IG73e6pcILeYafdFc5FQEw5JHIEjEjQQdCjTmNX8MlQAv5USxOiycxunHOMgiT3gHxnrAeSW5QWkHeJIjjFBZCj3DEGSwkvG9ONY/fmOk9gD/pNetyDS4WA0WhF0JGZ375Qy73JpgowYNM+inDv0icMev9oaFJaoI71uLcmtpm7yVhERsnBmdLqSyY2eoFm4NHzu12eVc4xOrkgMEm++FH4hPJVROcqKqZnWjaRrzjAbgVRk8C4SOwCON3xtXq2vwKTOAhHEjCn7BSKUubWWXrdwKtbpCa0bSdfsoUVzgfzYBsqILTecNuIwsraFY4fAlaLs5fhXiF7LqNtmcmXKtF3rRtIzZrsAyj3DJ+kdAC/xJ7kseMhCM6RxNpjYfSOf+dgbOZX7g8wTo0yzBCEJZtjnfxsez5bRAXC8D+np/ZiFrCPOecPUBv9aryv4d5dRtyDqzXKqttatpGcG0bLZAg9lxhc1/Q0Hg3Us54/xVcmyp5XvwM0gy/avDhVVoGt2rVtJxyQxMiKf5iyyOgDxHRgGloedOSHp5lP2YTWHcbaY5D3MGahB6mjZBocIyVyiZwIfoS6uBCUfDsE3nImBYDXLRFPPkmTxoyzsDkw1pVRpSH96G2gyle8N8ibtOBjdkJPgaK1EFVE2YwcHWjufNI2hthjy7wphEptLqtFqfDL1y/VHKmM9pCnuMLrTDoBDoae+z/I7ADHBf3rGt4xV6se75DTBd3s98kOTJVBSjc6ZrYNa0wPJnVo3k47ZShsMw33hE0o6AAHv6LHRa3oD+XbY9sVSt3Yy4HgH2jroGD3HfK11M+mYd1Qbu4Ml/k4KvgE2aLhLvmrXVELob9JRBxWonmWS6ngOIRsDbetZHBz9qFjY/Jg+tJWr2tOMyJZKvwNoY9aYkVq3k34ZRSt3gljeFRQK2gaPnzjLqk8vkOkD3W3OUqVcyKZ1O+kXOtBLdHdiRndFmZRtknlHfTn1gW8hOuKE8SpVyNh5cspAyIH2FvWF+H1QSjQA2bi3Pya9OgXBhz9hFXVkWE+VkTxKehEIWUyldoUiwGv2pSM6AEG3DJINvuA2Jb0agAXRaxWz0kktACGTkdRj35iYuhuKOKgH4JX/lbgbdACsKrjMpA+N46kC+qBFYUdRjmriIcRvQz9H9QA8cYe0h/gYMDwebD6mR4IVS2vdUHrFldoGIj02jwh1WBeIWb9ZSn0qEK+kZJYdEu3drDjSEnQQ6cgY4/gjOP2aureSYhGLYRrTWUJ9wLYUy1+UK22B0lSOL3KEDM74ky1cnjwMD+tV8JryZcE++z6zV4cv5ErNzLJBb1dUfHGoHBWtgGIqrbHadJrWLaVXbpANXOKQOWm3VHlbsQ/Djt4pTvWBK+SMblSGvVnoXpHpN9EpwX+mR+zDm7RuwQfkS9IxGCm3oRdZj9h6uYJngM5HnM7BKCURe0rSBR59QXsomnVS7FFOsbQnZPapPqGRoGPwolyAst68gcGKe8B1qMWR/jXpe8LzyyVq+NaaCTfR6KQsF0KujIfSbunl5ENIhgoh4cPy0iXtI2DKtD8yct8ETwsX4o3Jb8nUL9TH/x/qNeD6lPEtU/24jCHdUrPdysdV0rMhZFCebN94sx244bQE+d9aS11tdArbm6UEndxwBanIU+MWeRybkVbvTF9r975ccIQ5a4TU5UGLXao+yGrQMQwi2zfKnPJKXP6nLFX2fKtepVVN21FxoDZRDuX8bxUyv72n/rUejBByrZSm7zXPYo9ikgxDQ4R0ulPWnazADeKuoBKsJBjUuQq5rBBKyXtrY3r4HzHx4fuW9It/KrRRbyxtq98yTml0SUmZEDI5RHqLijB7g5oivjvYiqeg8L9+hl8Hes7m/HZ2FONY0r96lglRv0cObUwtNDSXojfUydI5bQIyGXIIRclHNdGJSdkn2gG68o/KDwLbnsojzB8I7+1CIwr3nRKGdXk4eXJr3Vb65DU1zGIm2xKmgkIr9B7A8WvC+oNMQtBDoSKC/xRd4fPjBj3/FfmRcgSU1596TOsuFu0AeBGBsbzfCfje/vx6AfWS8BL+oIwTVRnp7M/J0h5ZjDiABpRSmNlLl40w8TTNhVbnCnqSF5jGNb0+OevTZBtlxIiGHP+Fm+UNWhBwAPVJKfncpRNKS/AedHGmQGm+9cQzM0+0yCJv0Gqr10YpDKE6U3KSTyQzPTviKS68uBYCizPh4qHJGB6LWAInWQWsClYQrRQhRlVyKnAhP51Qs7kE6UX8+Jx3cl6fONe8yhZJfmWTRcJMtMzMzWHai3zLq09vsnFDzQJdfgXO2RMu2BZg4uqXlwI5hWUj0seEY4YzxcrgogTXsl2zXtZRKtYkYQi1yUG2bQBLOSDpUqtWryZIeYwbNdmXp83BhauIiV3p22Ed4USgCZTSmSh3scwuIu/0S9ZureNlqJwjpGEYQ7ZtVwunHg0kjAWECPgJFjHzrJiT+RiRHlDU+h0QW17r9tIf3am4Mg/YRr2SogwK0r4XXFpIEnMvHFvUdtVG8gSubibP+gwhTtJAsmmDe5nT8tvVAYiZwrUBdfwwg9is0m267ar16mCdp4+iIGUIG4yiFIMbbjCnSY0SY/MBF7/ERSRw3CieT5Hbn2hhWGVqU19rf3M06NYSA0XZy6mttquWfjVPpkdIR0BlFtAPaw5mql3QcSYjFoQesl21oP48PkmCf9O6xfSGB737UjyQTrqdLEuQEuh2/LcWO7YEcFLj14rUbRlf1OP7SF1UXQrRm3fJB+mkUanqyp/2HZd9Zd8+7K3CgWJqf6178pQWvUzrJtMZd2jjIP8btOLXTMmRoiQRwdoAmrp88GpG+6CxaATyDDyzAZ+d3lq3mb54zjRtYUrDE0tqLFvK7Uu9Giy0iFSBdTfDhnLtmNfAcFEDkKT1PMZrcWFat5m+YKJL4SX+pSZagblwmVQCT3PBp7zRpgsztzL+GWdxRoIp8D0+JbN6M0XzIaQz2NyyX6ikOtVxmZSFyqFJJ/iGkD/Rd7rKPbNf3G7EUD7AusSE3ci1qIqwfMbQQZ1v5pTbA4qTa7XhM6y7QDTtN8RalPclCLL7O564t93QwqCKsHrAayopt9wOgHtuIruA8wmr3SAqXAWtj8qmvRRj8FXDrDep3XcgE1L1OMu0q4mKBG7sMizSU6b7gMQqpK550h5ORtNy6j7PrZeJH0nyMO6Vx0pRBO96GH0HVOMF06w+LJvttWdl+hHxmR/mDTIW5by0EzyoElvOsVrg89wsqYalW1iHK/t8UOt20w9dmIc24i9Wsu+QEHldAPevWC5soYGraW66Ri/h1RlykaM5Hi0xzETQ+QlWr6SodVo3nG7YxDyaMefZ6UmiQaelEWp2IZeUYceYXHDP373rmr1tZaj8OZ2N4xTrtsNb65bTC3cZZS6XARYnPDLLkrQgIdUsHvXSXl4H5NfSULQZ5/Py4I4sNxQIQaoyyzg531qcyK6ae+GBk4vaP3b3u7Te0pit+uG08ixmmD6+ybjUXGWz/pBGN0xb7jGPerDlZ9lPgumQVNwzPd39apSdmt7TivZLZBc6SaIPAvsYVc08Jh6+IA1umOYcYtS6Q/JZnAjqq14PgMQMvNVvx58jima7vU10S4gfQ90Tn1j25IsqOFpfqPW1GIs/YZ8e1yHSZaL/PLcMFieMGSXLVj4Nx6ZmGvNKQXV9U8pdYcauF5crKEEyxidWy1u61FWvSTvsxCPyWLymg3pKFacyEhW+CLDz5oWF0ysdNhaY+cG6yk72F/sVEs4EnMabWASBKD3aoR3gD8U17sEqpcwKOcFrpbOAx+wts14t1nozj1TmLuzt2mzqhpuyZKIdz+5cC7EMlhHDXiot/HmqfDXNJZNWFDV/7cosZnUBh4UZwPELNZRXF2tQ0aKsEh1Vfje7PuWtc1tNhJMmlEw1/5mJV9/Ti7gnHSZ/Uwa76ntklmVxEVs2qDgr9N3CW+crerZSmHqL/afG3poBRwPDHNYBfrWzvmutrJIrP1fLtYjXG/46K5m1fDsEZeVs2HQoe+ujw+Tfx+7n1SnOqlC39XXVaImpAmZu+7UWkaM5r9yLtGwu7PUomM6+Bf2WD3jKvbhJkq6BLVZl4q9yqP5d2TpJ8BukIhMO2Vfdebz2LCUGTbdrsjZVQD/atERr8aQB0744ct5nSewdu6u7VmCdoutk5T5nvQsI1Hew1sJJG853wNMINSJHTy0uVPrF3oGKSvRtIlBgUz3PANikE2xTdRmrSm0NVQRfWRGPysv/aE+7JVDaP3rcBuInqIsLngb4HFSnuh42TJsjsqyQFd8YMwjtgYd+V2ponbqlRQ/I+a86ocKO2vR259PtD+myMwr50HarJbkMXWB47oanAdHl1YkV5iFi0/S42khpfW2nQAGmlVpLJM051C4tegDe4RfYBZw7t3plz/Tdd2OAyI1y7n+yTbSYX4Vyv9BaHBpgPC7JCajdlKmFLSsC3jdufe0ZZjm3EN+57jO+qk1XEzeEMs79XiYAlqy6miZrAmMZtYtMvAO2dTslRhbuvKcRp+gIK9dzEZ+rXRJ61VwWquHF7za0cWc+i/FdgwY6qi/04XkHzAgZIL3CN8vvmVgJarpfaNx0b9FfeT2YRlypsoTH1HyTUHfP+R37Lvfta90q54zYqN3FI3BHMJRbgSPzGctVv1qXn/74cVJq4yz7q8x4a0sJKL2XF9xk+MXGneLzPj9oUcZlwdfdf1pLQVOmWxsKNgWmHUdWdHPEB6KC5d2PjaV0cIwLroZYXOg/sdolkSmEQWw5wz/T9dm1qFHBO8G/poS31jLQllWs0BD9ykI1qa6k84elw9XvAJUs7IYOjcU/wWf5zGde0WyZYUurNChe0i2rbzn71yEbMbQyKWq16zpaOFzMPHt5GwT2hlPupvAbajwcoHoPeMq6cZ1GeDRwR15ji+Dlbj3PC+/8LRPzYC2JEgo8VR64iLcL1Fpu6pGOeQlMnIm53gUOfEKeQH2O9ONj7GhaPkxmrbuZj3GX/MQE76ztRamuD28LVbzGLYl3tUmjGawho9+9Qr1fZn09I8XWqsIBoLCY7FCThTTGg954D25DHFXtgzNm+k49VR4KxAdS9/whDsdnY0ErBfzYxjww37jidqGFvh/mqtJDK69p33HYw8jIp93Mzi4SPvS/x//2qU2pK65pq5/1g5odaXWxMcRkPagN0MfLSyrivlV5zbAi+fXMkBPHM9d81of/osI/+WH5WRvXlfIIbfwdOPxBNJyFYhLbb7dSQwy6Yx58Ru+0nnC6rlq4NIUg37zAb8rZSedF1B+V84Yf8SbsHYzjsZPJIfSrwqq26rgFQa4DyNAWApPNrqRCscXKTez6/EJVT++x03EGLhHtXs9j3ctYges5sUSuR3MjI3cNy7gvavWbRXFsR1wlhv9nj2p8GuO6gtYYnBVGHAYCd46hs6c5ogu42X5m21Nj/1Gc9HYVhAeE9ds0k+n5RgYPop4XXejlm/7mkoxynS777FPgL0ErkvbQTyRU5jsIPAhUX2xwRBewgf+fTIWsPEun9va2Uf+WJwfFiRTesEMqQajjPhrW5PqWVE1r09/7mIfgS70cqM+NbmVMyy4QyloZ5nEomlBtlM2/YOHx9QKdIPXL+9rM0lLpbVuXtJj895voNOgKE7SWqhyMv6VS1U6+C47PTyR+nqYmPGeaiwelt5eLbIfzvMprPhMyiGibF3xt7f1k/lL+a4PWpZSvtn+RQ9UjZGx2fAVM+zeAqncTOOpKWU2MBSqGkW+BThlLOFb+gyyWf/8ncFXAQ7H9m3nXLWavPitErjduW3Z8798FHLND/hT7tij9glph85kLF8lK9iMmx54jSFPfpP4P7GsNm/xsOcrbb+NSU6WJOZ7ZUAZ7z764mtS/vfuot5cOv/PHVeUfrSUqm6Ri1HpIib1wc/3IXuLRKHOZfDr9ci+yrz2E8WlpWY+mojmir+XjnxkY2No/sVNl/fnVVP6zQrSWpwK25aC+ion9YRdo0IYYDIx9SC4NGQeIhxJVRFlQumuLQdTM6YiEoLXE9yByutWY4PZgC9viMmduS49K47tHyl3lEKu1NBUxsxj1uU985w0TlvZzwX3eXCa1Z9K9EJtwKSErUbL3Bxw/Ae+RJPlNE3J/ezpzzQ1/TeS5xiW1cL19WeKCTXhIaKpngTH7ynUpNPLmUc5ibtDms+p/4r7FNwAgcDK1qpX5BNkFvFZ8xPFZ1JTAsKSs6goD/TFsA9gaGA574D+y8o7OuPtVQaebA+40kzWSi3jQp2zU77uGvRgy5EW1+z8nyMkrlXFaS1IxSS+pxhx7g9r+Ljm5El6P9tdSo5rKo+bQYWRkwYiZGJY/jYIdpgHf1EIAB+fdlDvvsf0psRvu/TfUmz497X1ZhywNrJ7+JS0X6xzMZK2laBdBHtTqoNvVzXznsw+WppjzHfPNW51ka09tuj+qyrfBaShaREePq/qY0slu8a+Oo0OoGVnqEN7NLa8nfexrJD0zWmvpqYLBYwL5tU/4Mo/3goNzHbxK/K1y67bMpv5qqVGNMtSueIf3NZB+t+NcTn2rmNakaC02NZn2U3NymdxlTgqvulPtvg6ZSH+rxBXTXxy8I8+pIMSNXi7kO+98vKJ9jaYX/Atn7fVN6QRKp+4ucv3H9KY3b7T4gt/7ayBn4b6blura4NR1w1xyx9h0ZQjfzrzzYQcYFX0LNFqT4/Kr7PpRFrdBgwpRlHZ0n/8285wvGPl9TQoatutYvtY3pP+pBt4ro6jdonHjNzhbnfZ6LjtY9TeK/6fnx9IqwtVXRoNLV6mpYeyPN7ZyxzxBHsXTzi2lVpiyLP7OHnwOhmXFUqm2yNxzE1dHa94u2RHLvylidy1U1Go6o+Wfa2ibuq77bwzwZp9zLXXpjz2f5NpTfJXEBgdbWiL6ZJTnpVDPdA/LyGzgRyy6erIg56NYOv/dPHM+f6PzwwufyhXqXB984YJm9lrZkXask0kV3/U64va/Tc3+6GMeF9kxIhvXYdPRZSerbJn0LW0eujcZUpurd1p/NtBW24mi21pjyDZkjcX8L/lRxy7nS3FeB8RnYWPHD6PFrTHcHjveFMUWLvXuCvgcWzZ0hNZt/dXil6//ao7vDveBY77sHrmWu0KS7t6zdzvbN/EMsBKzT9fC91+uLOmKLfyi2WcjZstdx8Sr+x4w1F7R08q0E3frU2RY7oM8xpJBR0suzZaSUrVVq8WtPFLutWQb5Zd+PygNA50wPbDJSaVRLxE0Ts+KdePz5HXq49+DCx2T0b6uW59EFo5n2eucil/0pvnca/+t2N6qakrK+VZt/ng453SsZOmK8nkjGt6rRHj+3b978n/Ix3bb9+7uMemBwAzpnAouXbq09igv/sV2Q8kVWy6o8OxPfP5duY5PC7r32h15RcirX8jFqGEnF6xTJ2ar32/2qSmHRB3+lsz5vylcSxaavFpY2T9m4Opd79osaOlszz1W5SvfV6mj21jPueU363QH/yvC+1juKhNs2nwkLhpzPc/xtvOkW/MRHKn7vkfHRwHyRJ5Y+PofJ7v0Hzasf+/c0530Gjb6q6T0lFYnfn8jEr4qpmufT0P7Dv5jU6tXdW9v8+J8+UtPdTq09NXKFVn7tv9xkkz/DhHV1/TdPQC96zWn5tJWz3PMXyR55FYimEahsoFLrls7V5zvpE4oG4RqrMq/ZMWOucUfhygTqygx8cOjxrfwyO+AIPQIVXEudTDD7Dw5hjbxDLDbX/2FMldWz7n2us2rm0la/1kIJdRcWzBf1RErXgyLnBu1pt3HWXHBwYKuW0zBY1MnfexWfP/cvjuGlH9WNV/JI2inRp8c8EpyYjPTy8vL7mjSCAQCgUAgEAgEAoFAIBAIBAKBQCAQCAQCgUAgEAgEAoFAIBAIBAKBQCAQCAQCgUBw+D8NJ/12OIXQHQAAAABJRU5ErkJggg==;" vertex="1" parent="1">
          <mxGeometry x="678" y="397.5" width="61" height="61" as="geometry" />
        </mxCell>
        <mxCell id="o294ewDcCMPDDSSyki-N-36" value="Server" style="text;html=1;align=center;verticalAlign=middle;resizable=0;points=[];autosize=1;strokeColor=none;fillColor=none;fontStyle=1;fontSize=13;" vertex="1" parent="1">
          <mxGeometry x="688" y="670" width="58" height="28" as="geometry" />
        </mxCell>
      </root>
    </mxGraphModel>
  </diagram>
</mxfile>
